<?xml version="1.0" encoding="utf-8"?>
<svg viewBox="0 0 500 500" xmlns="http://www.w3.org/2000/svg">
  <ellipse style="fill: rgb(200, 200, 200);" cx="250" cy="250" rx="250" ry="250"/>
  <path fill-rule="evenodd" class="a" d="M 232.82 58.217 C 234.027 58.217 235.745 58.356 236.65 58.542 C 237.556 58.727 239.111 59.285 240.132 59.795 C 241.154 60.283 242.663 61.188 243.476 61.815 C 244.311 62.442 245.472 63.58 246.098 64.346 C 246.702 65.112 247.584 66.412 248.002 67.248 C 248.443 68.083 249.047 69.592 249.326 70.614 C 249.744 72.053 249.859 73.051 249.859 75.141 C 249.859 76.905 249.72 78.321 249.465 79.319 C 249.256 80.155 248.583 81.827 247.979 83.034 C 247.074 84.868 246.563 85.564 244.915 87.212 C 243.452 88.675 242.431 89.464 241.061 90.161 C 240.039 90.695 238.415 91.345 237.463 91.577 C 236.511 91.832 235.095 92.111 234.329 92.204 C 233.563 92.273 232.031 92.227 230.893 92.088 C 229.778 91.972 228.107 91.577 227.202 91.252 C 226.273 90.927 224.787 90.207 223.882 89.65 C 222.976 89.093 221.514 87.886 220.632 86.957 C 219.726 86.005 218.589 84.496 218.078 83.614 C 217.591 82.732 216.917 81.2 216.616 80.248 C 216.268 79.157 216.036 77.648 215.943 76.185 C 215.849 74.467 215.919 73.353 216.198 71.891 C 216.43 70.799 216.825 69.406 217.104 68.757 C 217.382 68.13 217.963 66.969 218.403 66.203 C 218.844 65.437 219.959 64.067 220.841 63.185 C 221.746 62.28 223.116 61.165 223.882 60.701 C 224.648 60.237 225.855 59.633 226.552 59.355 C 227.248 59.076 228.455 58.705 229.222 58.542 C 229.987 58.38 231.613 58.217 232.82 58.217 Z M 229.059 70.149 C 228.363 70.637 227.829 71.31 227.295 72.355 C 226.738 73.469 226.552 74.166 226.552 75.025 C 226.552 75.675 226.691 76.65 226.9 77.23 C 227.086 77.81 227.643 78.739 228.107 79.296 C 228.595 79.853 229.453 80.55 230.034 80.828 C 230.615 81.13 231.543 81.432 232.123 81.525 C 232.82 81.633 233.593 81.571 234.445 81.339 C 235.141 81.13 236.186 80.643 236.743 80.201 C 237.3 79.783 238.066 78.924 238.437 78.275 C 238.809 77.579 239.158 76.603 239.227 75.837 C 239.343 74.909 239.274 74.212 238.971 73.283 C 238.716 72.518 238.159 71.589 237.602 70.985 C 237.068 70.428 236.14 69.709 235.49 69.43 C 234.654 69.035 233.934 68.873 232.936 68.896 C 232.169 68.896 231.218 69.035 230.8 69.175 C 230.405 69.337 229.616 69.778 229.059 70.149 Z M 346.108 120.224 C 348.964 120.201 352.585 120.34 354.582 120.526 C 356.509 120.711 359.364 121.083 360.966 121.362 C 362.568 121.617 365.493 122.243 367.466 122.755 C 369.439 123.242 372.48 124.124 374.198 124.704 C 375.916 125.308 378.586 126.306 380.118 126.956 C 381.65 127.606 383.948 128.651 385.225 129.278 C 386.502 129.928 388.383 130.926 389.404 131.506 C 390.425 132.087 392.468 133.34 393.931 134.292 C 395.393 135.244 397.808 136.939 399.27 138.053 C 400.733 139.19 403.101 141.141 404.494 142.394 C 405.887 143.671 408.138 145.853 409.461 147.246 C 410.785 148.639 412.874 151.03 414.105 152.562 C 415.335 154.094 417.192 156.602 418.214 158.134 C 419.258 159.666 420.651 161.871 421.324 163.009 C 421.997 164.169 423.228 166.468 424.064 168.116 C 424.876 169.788 426.037 172.295 426.617 173.688 C 427.175 175.104 428.056 177.448 428.568 178.911 C 429.055 180.373 429.775 182.672 430.146 184.019 C 430.517 185.365 431.144 188.034 431.515 189.938 C 431.91 191.865 432.398 194.79 432.63 196.438 C 432.932 198.737 433.025 201.198 433.048 206.769 C 433.048 211.528 432.932 214.964 432.746 216.635 C 432.561 218.028 432.166 220.605 431.864 222.323 C 431.539 224.041 430.912 226.92 430.448 228.707 C 430.007 230.494 429.102 233.466 428.475 235.323 C 427.825 237.18 426.733 239.99 426.037 241.591 C 425.341 243.193 424.111 245.77 423.274 247.348 C 422.462 248.904 421.092 251.295 420.256 252.688 C 419.397 254.058 417.889 256.332 416.89 257.726 C 415.869 259.119 414.314 261.161 413.432 262.253 C 412.526 263.343 410.716 265.387 409.392 266.779 C 408.092 268.172 405.817 270.378 404.354 271.677 C 402.892 272.978 400.71 274.789 399.503 275.74 C 398.295 276.692 396.09 278.248 394.627 279.222 C 393.165 280.197 390.541 281.799 388.824 282.775 C 387.106 283.726 384.064 285.258 382.091 286.14 C 380.118 287.023 376.821 288.322 374.779 289.019 C 372.735 289.716 369.393 290.714 367.35 291.225 C 365.307 291.735 361.918 292.432 359.805 292.757 C 357.692 293.082 354.349 293.476 352.376 293.616 C 350.217 293.778 346.921 293.825 344.135 293.755 C 341.581 293.662 338.076 293.453 336.358 293.244 C 334.64 293.035 331.436 292.524 329.277 292.083 C 327.119 291.643 324.031 290.922 322.429 290.458 C 320.827 289.994 318.251 289.135 313.84 287.557 L 231.473 287.557 C 158.462 287.557 148.805 287.51 146.228 287.208 C 144.627 286.999 142.073 286.582 140.541 286.256 C 139.008 285.931 136.339 285.189 134.621 284.632 C 132.903 284.051 130.396 283.099 129.05 282.519 C 127.703 281.916 125.567 280.87 124.29 280.174 C 123.013 279.455 120.924 278.201 119.648 277.342 C 118.371 276.483 116.49 275.114 115.468 274.324 C 114.447 273.512 112.474 271.747 111.081 270.401 C 109.712 269.031 107.738 266.942 106.717 265.734 C 105.695 264.528 103.908 262.113 102.77 260.396 C 101.609 258.677 99.869 255.636 98.893 253.663 C 97.918 251.69 96.665 248.811 96.108 247.279 C 95.574 245.746 94.831 243.286 94.459 241.823 C 94.088 240.361 93.623 238.225 93.414 237.065 C 93.229 235.904 92.974 234.046 92.834 232.885 C 92.695 231.655 92.602 223.066 92.602 211.992 C 92.602 196.996 92.672 192.608 92.95 190.286 C 93.136 188.684 93.554 186.085 93.879 184.483 C 94.227 182.881 94.993 180.072 95.62 178.215 C 96.223 176.357 97.269 173.641 97.941 172.179 C 98.592 170.716 99.775 168.418 100.541 167.072 C 101.308 165.725 102.515 163.798 103.234 162.777 C 103.954 161.756 105.092 160.2 105.811 159.294 C 106.508 158.413 108.388 156.323 110.013 154.675 C 111.615 153.05 113.96 150.844 115.237 149.823 C 116.514 148.801 118.811 147.13 120.344 146.132 C 121.876 145.11 124.592 143.578 126.38 142.696 C 128.167 141.814 130.628 140.723 131.835 140.258 C 133.042 139.794 135.085 139.121 136.362 138.75 C 137.639 138.378 139.728 137.844 141.005 137.589 C 142.282 137.333 144.464 136.939 145.88 136.73 C 148.225 136.359 154.423 136.335 295.964 136.196 L 298.703 134.385 C 300.189 133.387 302.766 131.832 304.438 130.902 C 306.109 129.997 308.709 128.674 310.241 128.001 C 311.773 127.304 314.28 126.26 315.813 125.68 C 317.345 125.099 320.224 124.147 322.197 123.59 C 324.17 123.01 327.095 122.267 328.697 121.942 C 330.299 121.617 332.76 121.199 334.152 120.99 C 335.545 120.781 337.705 120.549 338.912 120.433 C 340.119 120.317 343.369 120.224 346.108 120.224 Z M 334.733 142.348 C 333.015 142.649 330.345 143.276 328.813 143.717 C 327.281 144.135 324.983 144.878 323.706 145.365 C 322.429 145.83 319.713 147.037 317.67 148.035 C 315.627 149.033 312.54 150.798 310.821 151.912 C 309.104 153.05 306.597 154.86 305.25 155.952 C 303.927 157.02 301.606 159.109 300.143 160.571 C 298.681 162.034 296.545 164.402 295.407 165.795 C 294.292 167.211 292.598 169.509 291.67 170.902 C 290.741 172.318 289.441 174.454 288.791 175.661 C 288.118 176.868 287.073 178.957 286.469 180.304 C 285.842 181.65 284.868 184.111 284.287 185.759 C 283.707 187.431 282.917 190.078 282.523 191.68 C 282.152 193.281 281.594 196.09 281.316 197.948 C 280.898 200.64 280.805 202.358 280.805 206.537 C 280.782 210.228 280.898 212.619 281.2 214.662 C 281.409 216.264 281.78 218.562 282.035 219.769 C 282.29 220.976 282.848 223.228 283.289 224.76 C 283.707 226.292 284.45 228.591 284.937 229.868 C 285.402 231.144 286.609 233.861 287.607 235.904 C 288.628 237.946 290.114 240.663 290.903 241.939 C 291.716 243.216 293.109 245.259 294.014 246.467 C 294.92 247.673 296.545 249.67 297.636 250.877 C 298.703 252.084 300.538 253.965 301.675 255.033 C 302.813 256.1 304.6 257.633 305.668 258.445 L 307.572 259.931 C 342.301 259.792 344.925 259.722 347.153 259.374 C 348.546 259.141 351.053 258.631 352.725 258.19 C 354.396 257.772 356.996 256.936 358.529 256.332 C 360.061 255.729 362.15 254.8 363.171 254.29 C 364.193 253.779 365.957 252.781 367.118 252.061 C 368.278 251.365 370.252 249.995 371.528 249.043 C 372.805 248.068 375.104 246.025 376.636 244.493 C 378.168 242.961 380.211 240.663 381.186 239.386 C 382.138 238.109 383.53 236.066 384.297 234.859 C 385.04 233.652 386.2 231.493 386.873 230.1 C 387.547 228.707 388.475 226.501 388.94 225.225 C 389.404 223.948 390.077 221.696 390.449 220.233 C 390.82 218.771 391.308 216.473 391.517 215.126 C 391.888 212.991 391.934 210.391 392.027 194.233 C 392.074 181.859 392.027 174.779 391.842 172.759 C 391.702 171.111 391.331 168.464 391.029 166.909 C 390.704 165.33 390.123 163.032 389.729 161.802 C 389.334 160.548 388.708 158.737 388.336 157.785 C 387.686 156.114 387.593 155.998 385.759 154.628 C 384.691 153.839 382.95 152.632 381.859 151.935 C 380.768 151.216 378.888 150.101 377.68 149.429 C 376.473 148.755 374.128 147.594 372.457 146.875 C 370.786 146.132 367.977 145.064 366.189 144.484 C 364.401 143.903 361.732 143.161 360.269 142.835 C 358.807 142.51 356.509 142.069 355.162 141.86 C 353.653 141.651 350.659 141.466 347.269 141.419 C 344.274 141.372 340.932 141.442 339.84 141.559 C 338.749 141.675 336.451 142.023 334.733 142.348 Z M 144.951 147.687 C 143.675 147.896 141.377 148.453 139.844 148.895 C 138.312 149.335 135.921 150.171 134.505 150.728 C 133.089 151.308 131.069 152.26 129.978 152.841 C 128.887 153.444 127.123 154.489 126.031 155.209 C 124.94 155.928 123.269 157.112 122.317 157.879 C 121.365 158.644 119.694 160.107 118.626 161.129 C 117.581 162.173 115.91 163.96 114.935 165.098 C 113.96 166.259 112.451 168.279 111.569 169.625 C 110.686 170.971 109.317 173.362 108.504 174.964 C 107.715 176.566 106.74 178.749 106.345 179.84 C 105.928 180.931 105.347 182.742 105.022 183.902 C 104.697 185.063 104.209 187.152 103.977 188.546 C 103.722 189.938 103.397 192.816 103.258 194.929 C 103.095 197.344 103.049 204.656 103.119 214.778 C 103.188 225.155 103.328 231.446 103.49 232.654 C 103.652 233.675 103.977 235.555 104.233 236.832 C 104.488 238.109 105.185 240.616 105.788 242.403 C 106.368 244.191 107.552 247.07 108.411 248.788 C 109.27 250.506 110.71 253.013 111.592 254.359 C 112.497 255.706 114.053 257.795 115.051 259.002 C 116.072 260.209 117.79 262.044 118.858 263.042 C 119.926 264.063 121.76 265.595 122.897 266.501 C 124.058 267.383 125.938 268.683 127.076 269.402 C 128.237 270.099 130.419 271.283 131.951 272.026 C 133.483 272.769 135.944 273.79 137.407 274.278 C 138.869 274.789 141.028 275.415 142.166 275.67 C 143.327 275.949 145.346 276.344 146.693 276.576 C 148.968 276.947 154.238 276.971 222.141 277.063 L 295.151 277.133 C 292.459 275.09 290.741 273.674 289.58 272.699 C 288.419 271.701 285.982 269.333 284.101 267.453 C 282.244 265.549 279.899 262.949 278.878 261.672 C 277.857 260.396 276.301 258.306 275.396 257.029 C 274.467 255.752 272.912 253.361 271.914 251.69 C 270.939 250.041 269.313 247.001 268.315 244.957 C 267.34 242.915 266.133 240.245 265.669 239.038 C 265.181 237.83 264.415 235.625 263.928 234.162 C 263.44 232.7 262.72 230.239 262.302 228.707 C 261.908 227.175 261.328 224.575 261.026 222.903 C 260.724 221.255 260.283 218.376 260.074 216.519 C 259.772 214.059 259.656 211.481 259.656 206.885 C 259.656 202.381 259.772 199.665 260.074 197.251 C 260.283 195.394 260.794 192.26 261.165 190.286 C 261.559 188.313 262.326 185.133 262.883 183.206 C 263.417 181.302 264.415 178.261 265.089 176.474 C 265.739 174.686 267.178 171.389 268.246 169.161 C 269.337 166.932 270.985 163.844 271.89 162.312 C 272.819 160.78 274.282 158.482 275.187 157.205 C 276.092 155.928 277.648 153.839 278.669 152.585 C 279.69 151.308 281.176 149.544 281.989 148.686 C 282.778 147.827 283.428 147.06 283.428 146.991 C 283.428 146.921 253.69 146.897 217.312 146.897 C 180.958 146.921 150.337 147.014 149.247 147.106 C 148.155 147.223 146.228 147.478 144.951 147.687 Z M 402.637 214.894 C 402.451 216.496 402.079 218.841 401.824 220.118 C 401.569 221.394 401.035 223.6 400.64 224.993 C 400.246 226.386 399.409 228.846 398.783 230.448 C 398.156 232.05 397.042 234.557 396.299 236.019 C 395.556 237.482 394.372 239.618 393.653 240.779 C 392.932 241.939 391.702 243.75 390.913 244.841 C 390.101 245.933 388.638 247.743 387.663 248.904 C 386.664 250.065 384.831 251.992 383.577 253.199 C 382.3 254.406 380.374 256.124 379.306 256.983 C 378.214 257.864 376.172 259.35 374.779 260.279 C 373.386 261.207 371.227 262.531 370.019 263.181 C 368.812 263.831 366.561 264.922 365.028 265.618 C 363.496 266.292 360.78 267.313 358.993 267.894 C 357.205 268.474 354.443 269.217 352.841 269.542 C 351.239 269.867 348.593 270.285 346.921 270.494 C 345.04 270.703 341.651 270.842 337.867 270.865 C 332.272 270.888 331.924 270.912 333.224 271.19 C 333.99 271.376 335.824 271.701 337.286 271.933 C 339.376 272.258 341.349 272.351 346.34 272.351 C 350.38 272.351 353.491 272.235 354.814 272.049 C 355.975 271.886 358.157 271.492 359.689 271.19 C 361.221 270.888 363.729 270.261 365.261 269.82 C 366.793 269.38 369.045 268.637 370.252 268.172 C 371.459 267.685 373.548 266.779 374.895 266.152 C 376.241 265.526 378.632 264.226 380.234 263.274 C 381.836 262.322 384.157 260.79 385.388 259.862 C 386.618 258.932 388.684 257.262 390.007 256.1 C 391.308 254.939 393.374 252.92 394.581 251.574 C 395.788 250.227 397.646 247.975 398.69 246.583 C 399.758 245.19 401.313 242.868 402.172 241.475 C 403.031 240.082 404.378 237.575 405.19 235.904 C 406.002 234.255 407.07 231.725 407.604 230.332 C 408.138 228.939 408.881 226.687 409.252 225.34 C 409.648 223.995 410.228 221.65 410.529 220.118 C 410.854 218.585 411.249 215.985 411.458 214.314 C 411.644 212.596 411.806 209.345 411.806 206.769 C 411.806 204.262 411.644 200.942 411.458 199.34 C 411.272 197.739 410.971 195.556 410.762 194.465 C 410.553 193.374 410.019 191.076 409.578 189.357 C 409.136 187.64 408.231 184.878 407.582 183.206 C 406.908 181.557 405.793 179.027 405.074 177.634 C 404.354 176.241 403.588 174.825 403.38 174.5 C 403.008 173.943 402.985 174.895 402.985 192.956 C 402.985 208.231 402.915 212.573 402.637 214.894 Z M 71.593 126.236 C 72.103 126.213 72.916 126.329 73.404 126.445 C 73.868 126.585 74.587 126.956 75.005 127.328 C 75.4 127.676 75.934 128.372 76.143 128.883 C 76.56 129.766 76.584 131.251 76.584 182.742 L 78.487 183.623 C 79.555 184.088 81.134 185.04 82.016 185.713 C 82.898 186.363 84.129 187.547 84.755 188.313 C 85.359 189.079 86.241 190.425 86.682 191.331 C 87.124 192.236 87.704 193.792 87.959 194.814 C 88.4 196.601 88.423 197.436 88.423 215.822 C 88.423 234.209 88.4 235.045 87.959 236.832 C 87.704 237.854 87.124 239.409 86.682 240.314 C 86.241 241.22 85.359 242.566 84.755 243.333 C 84.129 244.098 82.968 245.236 82.132 245.863 C 81.32 246.489 79.811 247.395 78.789 247.882 C 77.745 248.37 76.073 248.95 74.959 249.159 C 73.543 249.438 72.382 249.508 70.78 249.414 C 69.457 249.345 67.879 249.067 66.833 248.741 C 65.882 248.44 64.373 247.79 63.468 247.302 C 62.4 246.698 61.146 245.7 59.869 244.401 C 58.314 242.845 57.664 241.963 56.897 240.43 C 56.363 239.339 55.737 237.784 55.505 236.948 C 55.133 235.579 55.11 233.768 55.11 215.822 C 55.11 197.878 55.133 196.067 55.505 194.697 C 55.737 193.862 56.363 192.306 56.897 191.215 C 57.664 189.683 58.314 188.801 59.869 187.245 C 61.077 186.015 62.422 184.924 63.351 184.413 C 64.187 183.949 65.348 183.415 67.066 182.858 L 67.066 156.16 C 67.066 129.928 67.066 129.44 67.53 128.535 C 67.785 128.024 68.273 127.421 68.644 127.165 C 68.993 126.933 69.596 126.632 69.967 126.492 C 70.362 126.353 71.082 126.236 71.593 126.236 Z M 67.507 194.674 C 66.857 195.348 66.299 196.159 66.068 196.902 C 65.696 197.948 65.673 199.712 65.673 215.822 C 65.673 231.934 65.696 233.698 66.068 234.742 C 66.323 235.485 66.857 236.298 67.507 236.971 C 68.18 237.621 68.993 238.155 69.736 238.41 C 70.386 238.643 71.36 238.805 71.941 238.805 C 72.545 238.805 73.473 238.573 74.147 238.248 C 74.796 237.97 75.725 237.25 76.213 236.693 C 76.723 236.136 77.303 235.3 77.489 234.859 C 77.814 234.139 77.861 231.864 77.861 215.822 C 77.861 199.781 77.814 197.506 77.489 196.787 C 77.303 196.346 76.723 195.51 76.213 194.952 C 75.725 194.396 74.889 193.722 74.378 193.467 C 73.844 193.212 72.846 192.979 72.057 192.933 C 71.151 192.886 70.292 192.979 69.619 193.234 C 69.039 193.444 68.087 194.093 67.507 194.674 Z M 387.222 284.724 C 387.291 284.817 389.264 290.482 391.563 297.307 C 393.884 304.132 395.927 310.214 396.136 310.841 C 396.322 311.445 396.624 311.932 396.763 311.932 C 396.925 311.932 397.854 312.304 398.806 312.791 C 399.851 313.325 401.058 314.161 401.847 314.95 C 402.567 315.647 403.449 316.807 403.797 317.504 C 404.145 318.2 409.949 334.915 428.846 390.514 L 428.869 396.597 L 427.894 398.547 C 427.221 399.893 426.502 400.915 425.573 401.843 C 424.83 402.563 423.692 403.445 423.065 403.793 C 422.416 404.142 420.071 405.023 417.842 405.766 C 414.708 406.834 413.362 407.183 411.922 407.276 C 410.622 407.345 409.578 407.276 408.44 406.997 C 407.535 406.788 406.188 406.278 405.446 405.883 C 404.679 405.465 403.542 404.606 402.892 403.979 C 402.242 403.329 401.406 402.285 401.035 401.658 C 400.64 400.984 395.115 385.105 375.754 328.066 L 375.73 325.397 C 375.73 323.099 375.8 322.541 376.288 321.334 C 376.59 320.568 377.286 319.291 378.841 317.04 L 374.895 305.385 C 372.713 298.955 370.971 293.569 370.994 293.407 C 371.041 293.244 374.662 291.178 379.073 288.834 C 383.461 286.489 387.129 284.632 387.222 284.724 Z M 233.749 96.127 C 251.879 96.174 251.972 96.174 253.829 96.684 C 254.851 96.986 256.522 97.659 257.544 98.193 C 258.89 98.89 259.911 99.655 261.258 101.025 C 262.28 102.046 263.51 103.556 263.997 104.391 C 264.485 105.227 265.135 106.736 265.483 107.758 C 266.017 109.382 266.11 110.009 266.11 112.749 C 266.133 115.419 266.04 116.138 265.599 117.624 C 265.297 118.575 264.671 120.108 264.206 120.99 C 263.626 122.104 262.744 123.219 261.374 124.588 C 260.283 125.68 258.821 126.91 258.124 127.304 C 257.427 127.722 256.104 128.326 255.222 128.651 C 254.317 128.953 252.762 129.324 251.74 129.463 C 250.487 129.649 243.847 129.696 231.427 129.649 C 214.805 129.579 212.832 129.533 211.578 129.162 C 210.812 128.953 209.187 128.28 207.98 127.676 C 206.192 126.794 205.426 126.236 203.894 124.728 C 202.385 123.195 201.828 122.43 200.946 120.641 C 200.342 119.435 199.669 117.763 199.46 116.927 C 199.205 115.953 199.065 114.513 199.065 112.865 C 199.065 111.193 199.205 109.8 199.46 108.802 C 199.692 107.967 200.226 106.574 200.644 105.668 C 201.062 104.786 201.921 103.37 202.548 102.558 C 203.175 101.721 204.312 100.538 205.078 99.934 C 205.844 99.308 207.307 98.378 208.328 97.891 C 209.35 97.404 210.649 96.87 211.23 96.73 C 211.81 96.568 212.994 96.359 213.9 96.266 C 214.782 96.174 223.719 96.104 233.749 96.127 Z M 211.625 108.501 C 211.137 108.988 210.51 109.8 210.232 110.311 C 209.86 111.008 209.744 111.657 209.721 112.865 C 209.721 114.258 209.814 114.676 210.44 115.767 C 210.905 116.626 211.532 117.299 212.298 117.81 C 212.925 118.228 213.807 118.668 214.248 118.784 C 214.712 118.924 222.35 119.017 232.588 119.017 C 247.306 119.017 250.3 118.971 251.276 118.692 C 251.926 118.483 252.878 117.949 253.458 117.461 C 254.015 116.951 254.711 116.022 255.06 115.303 C 255.57 114.211 255.64 113.793 255.547 112.516 C 255.454 111.448 255.245 110.683 254.804 109.916 C 254.456 109.29 253.736 108.477 253.179 108.083 C 252.645 107.711 251.67 107.224 251.043 107.038 C 250.068 106.759 247.074 106.713 232.472 106.713 C 215.849 106.736 214.991 106.759 213.783 107.177 C 213.04 107.433 212.135 107.99 211.625 108.501 Z M 122.897 307.289 C 124.058 307.289 125.451 307.451 126.612 307.754 C 127.633 308.032 129.189 308.636 130.094 309.1 C 131.069 309.611 132.323 310.563 133.228 311.468 C 134.133 312.374 135.085 313.627 135.596 314.602 C 136.061 315.484 136.664 317.062 136.942 318.084 C 137.384 319.872 137.407 320.545 137.407 336.308 C 137.407 351.955 137.384 352.767 136.942 354.531 C 136.687 355.553 136.153 357.062 135.735 357.898 C 135.225 358.966 134.459 359.964 133.135 361.264 C 131.835 362.564 130.791 363.376 129.746 363.864 C 128.91 364.282 127.564 364.792 126.728 365.001 C 125.799 365.257 124.36 365.419 123.013 365.419 C 121.667 365.419 120.228 365.257 119.299 365.001 C 118.464 364.792 117.117 364.282 116.281 363.864 C 115.237 363.376 114.192 362.564 112.892 361.264 C 111.569 359.964 110.803 358.966 110.292 357.898 C 109.874 357.062 109.34 355.553 109.084 354.531 C 108.644 352.767 108.62 351.955 108.62 336.308 C 108.62 320.545 108.644 319.872 109.084 318.084 C 109.363 317.062 109.967 315.484 110.431 314.602 C 110.942 313.627 111.894 312.374 112.799 311.468 C 113.704 310.563 114.958 309.611 115.933 309.1 C 116.815 308.636 118.347 308.032 119.299 307.777 C 120.297 307.521 121.83 307.313 122.897 307.289 Z M 120.042 317.782 C 119.648 318.2 119.02 319.176 118.649 319.941 L 118.022 321.334 C 118.022 350.306 118.046 351.119 118.464 352.326 C 118.719 353.023 119.299 354.021 119.74 354.508 C 120.204 355.019 120.994 355.599 121.505 355.832 C 122.015 356.064 122.735 356.249 123.13 356.249 C 123.501 356.249 124.174 356.11 124.592 355.97 C 125.01 355.808 125.707 355.321 126.171 354.88 C 126.612 354.438 127.215 353.487 127.494 352.79 C 128.004 351.513 128.004 351.421 128.004 336.308 L 128.004 321.102 C 126.867 318.688 126.264 317.852 125.776 317.457 C 125.358 317.132 124.569 316.738 124.058 316.598 C 123.547 316.459 123.013 316.343 122.897 316.343 C 122.758 316.366 122.248 316.506 121.736 316.691 C 121.226 316.877 120.46 317.387 120.042 317.782 Z M 207.051 307.313 C 208.003 307.313 209.512 307.451 210.418 307.638 C 211.3 307.847 212.832 308.381 213.783 308.845 C 215.06 309.449 215.989 310.145 217.289 311.445 C 218.496 312.652 219.308 313.719 219.889 314.834 C 220.33 315.716 220.888 317.086 221.119 317.852 C 221.491 319.129 221.537 320.661 221.631 335.031 C 221.677 345.571 221.607 351.444 221.444 352.674 C 221.305 353.696 220.934 355.274 220.632 356.157 C 220.307 357.038 219.564 358.502 218.961 359.383 C 218.334 360.265 217.312 361.449 216.686 362.007 C 216.036 362.564 214.689 363.423 213.667 363.933 C 212.646 364.421 211.23 364.955 210.533 365.117 C 209.837 365.28 208.258 365.419 207.051 365.419 C 205.705 365.396 204.265 365.257 203.337 365.001 C 202.501 364.769 201.085 364.212 200.203 363.748 C 199.181 363.214 197.975 362.308 196.953 361.264 C 195.815 360.126 195.049 359.104 194.445 357.898 C 193.981 356.946 193.401 355.483 193.192 354.647 C 192.821 353.278 192.774 351.63 192.774 336.308 C 192.774 320.8 192.797 319.361 193.192 317.968 C 193.424 317.132 193.935 315.786 194.353 314.95 C 194.841 313.906 195.653 312.861 196.953 311.561 C 198.369 310.121 199.228 309.471 200.551 308.845 C 201.503 308.381 202.966 307.847 203.801 307.66 C 204.637 307.475 206.1 307.313 207.051 307.313 Z M 204.962 317.202 C 204.521 317.481 203.871 318.108 203.5 318.642 C 203.151 319.176 202.687 320.15 202.455 320.824 C 202.107 321.914 202.06 323.331 202.06 336.308 C 202.06 348.983 202.107 350.724 202.455 351.862 C 202.664 352.558 203.175 353.603 203.616 354.183 C 204.034 354.764 204.846 355.46 205.426 355.762 C 206.262 356.203 206.703 356.273 207.632 356.179 C 208.258 356.087 209.094 355.855 209.489 355.623 C 209.86 355.39 210.533 354.694 210.952 354.067 C 211.37 353.417 211.81 352.396 211.95 351.746 C 212.089 351.026 212.135 344.944 212.112 335.727 L 212.042 320.87 C 211.137 318.92 210.487 318.014 210 317.574 C 209.535 317.156 208.746 316.714 208.258 316.575 C 207.794 316.459 207.284 316.343 207.168 316.366 C 207.028 316.366 206.68 316.459 206.355 316.552 C 206.03 316.645 205.403 316.947 204.962 317.202 Z M 74.727 308.055 C 81.389 308.125 83.037 308.218 84.477 308.543 C 85.429 308.775 87.008 309.332 87.959 309.796 C 89.143 310.354 90.118 311.027 90.977 311.909 C 91.674 312.629 92.579 313.836 92.997 314.602 C 93.392 315.368 93.948 316.784 94.227 317.736 C 94.482 318.688 94.831 320.824 94.97 322.495 C 95.179 324.816 95.179 326.186 94.97 328.415 C 94.831 330.017 94.482 332.059 94.227 332.942 C 93.972 333.824 93.507 335.101 93.206 335.727 C 92.88 336.377 92.138 337.445 91.511 338.142 C 90.907 338.839 89.77 339.813 89.004 340.301 C 88.238 340.788 87.333 341.23 86.961 341.299 C 86.612 341.369 86.287 341.554 86.218 341.717 C 86.148 341.856 87.913 346.522 90.164 352.047 C 92.393 357.55 94.227 362.355 94.227 362.726 C 94.227 363.098 93.995 363.585 93.623 363.933 C 93.043 364.514 92.974 364.514 89.259 364.514 C 86.737 364.514 85.366 364.421 85.15 364.235 C 84.964 364.096 82.898 359.174 76.235 342.575 L 74.727 342.575 L 74.727 352.79 C 74.727 360.498 74.657 363.144 74.425 363.585 C 74.285 363.91 73.821 364.282 73.45 364.398 C 73.055 364.537 71.5 364.63 69.967 364.63 C 68.435 364.63 66.833 364.537 66.415 364.398 C 66.021 364.282 65.557 363.957 65.441 363.701 C 65.301 363.399 65.209 353.788 65.209 336.308 C 65.209 315.716 65.278 309.262 65.487 308.891 C 65.65 308.636 65.975 308.334 66.253 308.218 C 66.509 308.078 70.083 308.032 74.727 308.055 Z M 74.727 333.29 C 82.063 333.174 82.597 333.127 83.316 332.686 C 83.757 332.431 84.361 331.85 84.663 331.409 C 84.964 330.969 85.313 330.202 85.452 329.692 C 85.614 329.181 85.731 327.208 85.731 325.281 C 85.731 323.377 85.614 321.38 85.452 320.87 C 85.313 320.359 84.964 319.57 84.663 319.129 C 84.361 318.688 83.711 318.108 83.2 317.852 C 82.411 317.457 81.714 317.365 78.511 317.318 L 74.773 317.225 L 74.727 333.29 Z M 160.622 308.078 C 167.749 308.125 169.025 308.194 170.14 308.566 C 170.836 308.775 171.927 309.239 172.578 309.564 C 173.204 309.889 174.411 310.841 175.247 311.677 C 176.176 312.605 177.104 313.859 177.615 314.834 C 178.079 315.739 178.706 317.295 178.984 318.316 C 179.426 319.872 179.518 320.73 179.518 323.424 C 179.518 325.815 179.402 327.092 179.101 328.182 C 178.868 329.018 178.358 330.365 177.94 331.2 C 177.545 332.013 176.686 333.243 174.899 335.124 L 175.781 336.122 C 176.268 336.679 177.011 337.747 177.452 338.513 C 177.894 339.279 178.45 340.533 178.729 341.299 C 178.984 342.065 179.38 343.435 179.588 344.317 C 179.82 345.408 179.936 347.08 179.936 349.308 C 179.936 352.024 179.844 353.045 179.449 354.531 C 179.17 355.553 178.543 357.178 178.079 358.13 C 177.545 359.221 176.71 360.405 175.827 361.31 C 174.899 362.262 173.923 362.981 172.925 363.446 C 171.997 363.887 170.743 364.258 169.675 364.398 C 168.723 364.514 164.545 364.63 160.389 364.63 C 155.886 364.63 152.543 364.561 152.078 364.398 C 151.66 364.282 151.22 363.957 151.104 363.701 C 150.941 363.399 150.871 353.812 150.871 336.308 C 150.871 315.716 150.941 309.262 151.15 308.915 C 151.289 308.636 151.638 308.334 151.893 308.218 C 152.172 308.102 155.886 308.032 160.622 308.078 Z M 160.389 331.665 C 165.938 331.549 166.17 331.525 167.075 330.922 C 167.609 330.574 168.352 329.784 168.747 329.181 C 169.141 328.577 169.629 327.51 169.838 326.789 C 170.024 326.093 170.186 324.747 170.186 323.772 C 170.186 322.82 170.07 321.567 169.908 320.986 C 169.768 320.429 169.374 319.547 169.072 319.082 C 168.77 318.595 168.073 317.968 167.517 317.69 C 166.704 317.272 166.054 317.179 163.477 317.086 L 160.436 316.993 L 160.389 331.665 Z M 160.389 355.112 C 165.566 355.112 167.099 354.996 167.424 354.856 C 167.702 354.717 168.282 354.253 168.701 353.858 C 169.119 353.463 169.629 352.605 169.861 351.978 C 170.117 351.188 170.255 350.12 170.255 348.728 C 170.233 347.474 170.093 346.128 169.861 345.362 C 169.629 344.665 169.141 343.597 168.77 342.971 C 168.306 342.274 167.702 341.694 167.075 341.369 C 166.263 340.974 165.543 340.858 163.268 340.765 L 160.459 340.649 L 160.389 355.112 Z M 268.06 308.032 C 271.542 308.102 271.635 308.125 272.076 308.682 C 272.517 309.262 272.541 309.796 272.517 355.112 L 284.868 355.228 L 285.308 355.808 C 285.727 356.342 285.773 356.76 285.75 359.941 C 285.75 363.167 285.703 363.515 285.286 363.933 C 285.03 364.189 284.473 364.467 284.055 364.537 C 283.66 364.607 279.018 364.63 273.748 364.583 C 264.578 364.514 264.183 364.491 263.208 363.585 L 263.185 308.961 L 263.835 308.45 C 264.462 307.985 264.717 307.963 268.06 308.032 Z M 312.029 308.009 C 316.184 307.985 317.948 308.078 318.39 308.287 C 318.738 308.473 319.063 308.891 319.203 309.379 C 319.318 309.843 321.361 321.891 323.706 336.192 C 326.074 350.492 328.001 362.471 328.001 362.772 C 328.024 363.098 327.815 363.632 327.559 363.933 C 327.119 364.491 327.003 364.514 323.891 364.607 C 322.011 364.653 320.34 364.583 319.806 364.421 C 319.133 364.235 318.9 364.003 318.715 363.423 C 318.599 363.005 318.135 360.684 317.67 358.246 C 317.206 355.832 316.788 353.603 316.625 352.79 L 307.456 352.906 L 306.504 358.13 C 305.97 361.008 305.459 363.539 305.343 363.771 C 305.227 364.003 304.809 364.282 304.438 364.421 C 304.043 364.537 302.441 364.63 300.839 364.607 C 299.237 364.607 297.682 364.514 297.357 364.421 C 297.032 364.328 296.637 364.003 296.452 363.701 C 296.15 363.19 296.521 360.568 300.468 336.424 C 302.859 321.752 304.902 309.471 305.018 309.146 C 305.134 308.845 305.482 308.45 305.761 308.287 C 306.132 308.102 308.105 308.009 312.029 308.009 Z M 309.08 343.505 L 315.001 343.505 C 314.768 341.81 314.118 337.701 313.399 333.29 L 312.076 325.281 L 309.08 343.505 Z M 350.519 308.055 C 355.835 308.125 359.131 308.264 359.805 308.45 C 360.386 308.589 361.523 309.053 362.359 309.471 C 363.264 309.913 364.425 310.748 365.261 311.607 C 366.166 312.489 367.001 313.65 367.628 314.857 C 368.162 315.879 368.743 317.272 368.952 317.991 C 369.161 318.688 369.416 320.196 369.555 321.358 C 369.71 322.75 369.71 324.143 369.555 325.536 C 369.416 326.674 369.091 328.299 368.836 329.134 C 368.58 329.947 368.069 331.154 367.698 331.804 C 367.35 332.431 366.584 333.452 364.912 335.171 L 365.98 336.377 C 366.561 337.05 367.466 338.443 367.953 339.465 C 368.464 340.487 369.091 342.158 369.346 343.179 C 369.671 344.41 369.88 346.081 369.95 348.287 C 370.066 350.817 369.996 351.955 369.695 353.51 C 369.462 354.578 368.975 356.203 368.603 357.108 C 368.232 357.99 367.466 359.36 366.885 360.126 C 366.305 360.893 365.4 361.867 364.843 362.285 C 364.309 362.726 363.287 363.33 362.591 363.655 C 361.894 363.957 360.478 364.305 359.457 364.444 C 358.435 364.561 354.094 364.63 349.8 364.583 C 342.347 364.537 341.953 364.514 340.978 363.609 L 340.954 308.961 L 341.604 308.45 C 342.278 307.963 342.347 307.963 350.519 308.055 Z M 350.287 331.688 C 354.628 331.688 355.65 331.572 356.276 331.316 C 356.74 331.108 357.483 330.62 357.901 330.226 C 358.342 329.808 358.923 328.995 359.225 328.438 C 359.503 327.857 359.874 326.813 360.037 326.116 C 360.223 325.327 360.292 324.097 360.223 322.982 C 360.153 321.961 359.921 320.708 359.712 320.196 C 359.503 319.686 359.039 318.966 358.691 318.595 C 358.342 318.247 357.762 317.782 357.368 317.574 C 356.88 317.318 355.789 317.179 353.514 317.086 L 350.356 316.993 L 350.287 331.688 Z M 350.287 355.135 C 355.905 355.135 356.996 355.042 357.599 354.787 C 358.041 354.601 358.691 354.044 359.039 353.557 C 359.41 353.092 359.828 352.164 360.014 351.537 C 360.246 350.724 360.292 349.68 360.199 348.054 C 360.13 346.639 359.921 345.292 359.643 344.595 C 359.41 343.992 358.853 343.063 358.412 342.553 C 357.948 342.019 357.274 341.439 356.903 341.252 C 356.415 341.021 355.255 340.858 353.281 340.788 L 350.334 340.672 L 350.287 355.135 Z M 243.151 323.029 C 244.056 323.099 245.564 323.4 246.516 323.702 C 247.608 324.027 248.885 324.677 249.883 325.374 C 250.788 326 251.972 327.068 252.529 327.765 C 253.109 328.461 253.899 329.761 254.317 330.643 C 254.735 331.549 255.199 332.965 255.361 333.777 C 255.547 334.683 255.594 336.076 255.524 337.259 C 255.454 338.351 255.175 339.859 254.92 340.626 C 254.642 341.392 253.992 342.715 253.458 343.527 C 252.924 344.364 251.949 345.547 251.299 346.151 C 250.649 346.777 249.441 347.613 248.606 348.054 C 247.793 348.472 246.54 349.006 245.82 349.192 C 245.054 349.424 243.685 349.564 242.338 349.564 C 241.107 349.564 239.552 349.424 238.74 349.215 C 237.973 349.006 236.627 348.449 235.745 347.985 C 234.701 347.428 233.609 346.569 232.611 345.501 C 231.682 344.526 230.777 343.272 230.336 342.367 C 229.941 341.554 229.431 340.138 229.222 339.233 C 228.943 338.096 228.873 337.028 228.943 335.635 C 229.013 334.567 229.291 332.988 229.547 332.152 C 229.802 331.34 230.452 329.993 230.963 329.204 C 231.473 328.391 232.448 327.231 233.121 326.58 C 233.795 325.954 235.025 325.072 235.837 324.631 C 236.674 324.213 237.765 323.725 238.275 323.563 C 238.786 323.4 239.738 323.191 240.365 323.099 C 241.015 322.982 242.268 322.959 243.151 323.029 Z M 239.088 333.94 C 238.809 334.288 238.484 334.962 238.345 335.402 C 238.159 336.006 238.159 336.47 238.368 337.213 C 238.507 337.747 238.925 338.513 239.274 338.931 C 239.622 339.326 240.202 339.79 240.551 339.975 C 240.898 340.138 241.665 340.278 242.222 340.278 C 242.802 340.278 243.568 340.138 243.916 339.975 C 244.265 339.79 244.892 339.279 245.309 338.815 C 245.751 338.305 246.122 337.608 246.215 337.097 C 246.285 336.61 246.285 335.89 246.215 335.472 C 246.122 335.054 245.727 334.334 245.309 333.87 C 244.892 333.406 244.265 332.895 243.916 332.709 C 243.568 332.524 242.779 332.384 242.175 332.384 C 241.525 332.384 240.76 332.57 240.318 332.826 C 239.9 333.081 239.343 333.569 239.088 333.94 Z M 338.215 153.305 C 339.956 153.375 342.464 153.584 343.787 153.769 C 345.134 153.978 347.222 154.373 348.43 154.675 C 349.66 154.976 351.633 155.603 352.841 156.044 C 354.071 156.486 355.882 157.228 356.903 157.693 C 357.925 158.157 359.759 159.132 360.966 159.852 C 362.197 160.571 364.076 161.825 365.144 162.661 C 366.236 163.473 367.861 164.796 368.72 165.562 C 369.601 166.352 371.203 167.977 372.295 169.184 C 373.363 170.415 375.08 172.643 376.125 174.175 C 377.146 175.707 378.539 178.076 379.19 179.399 C 379.862 180.745 380.814 182.881 381.279 184.157 C 381.766 185.434 382.44 187.64 382.811 189.033 C 383.159 190.449 383.623 193.003 383.856 194.72 C 384.157 197.111 384.227 198.876 384.134 202.033 C 384.064 204.332 383.832 207.163 383.623 208.301 C 383.414 209.462 382.996 211.389 382.695 212.596 C 382.37 213.826 381.813 215.707 381.395 216.774 C 381 217.866 380.188 219.793 379.584 221.07 C 378.957 222.346 377.913 224.296 377.24 225.364 C 376.566 226.455 375.429 228.127 374.709 229.078 C 373.99 230.054 372.318 231.957 370.971 233.35 C 369.625 234.742 367.535 236.693 366.305 237.668 C 365.098 238.619 363.125 240.036 361.894 240.802 C 360.687 241.544 358.505 242.729 357.019 243.425 C 355.557 244.145 353.166 245.097 351.68 245.584 C 350.217 246.071 347.965 246.675 346.689 246.931 C 345.412 247.186 343.485 247.511 342.394 247.65 C 341.326 247.79 338.842 247.882 336.892 247.882 C 334.942 247.882 332.179 247.743 330.74 247.557 C 329.301 247.348 326.816 246.884 325.215 246.467 C 323.636 246.071 321.431 245.399 320.34 244.981 C 319.272 244.563 317.647 243.889 316.742 243.495 C 315.859 243.077 314.188 242.195 313.027 241.522 C 311.889 240.848 309.893 239.502 308.616 238.55 C 307.34 237.621 305.366 235.95 304.206 234.836 C 303.068 233.744 301.35 231.887 300.375 230.727 C 299.423 229.566 298.03 227.685 297.287 226.571 C 296.545 225.457 295.268 223.205 294.455 221.534 C 293.643 219.885 292.551 217.262 292.017 215.73 C 291.507 214.198 290.834 211.69 290.509 210.158 C 290.207 208.626 289.835 206.026 289.696 204.354 C 289.534 202.544 289.487 200.176 289.58 198.435 C 289.673 196.856 289.928 194.349 290.184 192.863 C 290.416 191.401 290.927 189.079 291.321 187.709 C 291.716 186.34 292.343 184.436 292.714 183.461 C 293.109 182.509 293.945 180.652 294.617 179.352 C 295.268 178.029 296.382 176.079 297.079 174.988 C 297.775 173.92 298.843 172.388 299.423 171.622 C 300.004 170.856 301.582 169.091 302.929 167.721 C 304.275 166.329 306.272 164.494 307.34 163.635 C 308.43 162.754 310.218 161.477 311.286 160.757 C 312.377 160.061 314.676 158.807 316.393 157.971 C 318.135 157.136 320.688 156.068 322.081 155.627 C 323.497 155.162 325.888 154.512 327.42 154.211 C 328.952 153.908 331.321 153.537 332.644 153.421 C 333.99 153.305 336.497 153.259 338.215 153.305 Z M 327.42 165.121 C 326.143 165.47 324.216 166.12 323.126 166.56 C 322.058 166.979 320.224 167.861 319.063 168.511 C 317.926 169.138 316.045 170.368 314.884 171.227 C 313.746 172.086 311.867 173.734 310.706 174.895 C 309.568 176.056 307.92 177.982 307.061 179.19 C 306.202 180.397 304.879 182.625 304.113 184.157 C 303.347 185.69 302.418 187.895 302.023 189.033 C 301.652 190.194 301.118 192.236 300.816 193.559 C 300.375 195.626 300.305 196.693 300.305 200.64 C 300.305 204.517 300.375 205.678 300.793 207.605 C 301.072 208.881 301.628 210.924 302.023 212.132 C 302.418 213.362 303.207 215.289 303.741 216.426 C 304.298 217.587 305.505 219.676 306.434 221.07 C 307.641 222.903 308.964 224.459 311.054 226.548 C 313.004 228.498 314.745 229.96 316.277 231.006 C 317.554 231.841 319.713 233.071 321.036 233.698 C 322.383 234.348 324.31 235.137 325.331 235.485 C 326.352 235.81 328.117 236.298 329.231 236.531 C 330.345 236.786 332.551 237.087 334.106 237.227 C 336.149 237.412 337.728 237.389 339.724 237.227 C 341.257 237.065 343.508 236.739 344.716 236.484 C 345.946 236.205 347.756 235.695 348.778 235.346 C 349.8 234.975 351.378 234.348 352.26 233.953 C 353.166 233.559 354.791 232.7 355.859 232.027 C 356.949 231.377 358.876 230.007 360.153 228.986 C 361.43 227.941 363.287 226.177 364.285 225.016 C 365.284 223.878 366.7 222.044 367.443 220.953 C 368.162 219.885 369.23 218.005 369.834 216.774 C 370.438 215.567 371.296 213.478 371.737 212.132 C 372.179 210.809 372.713 208.765 372.944 207.605 C 373.154 206.467 373.409 204.424 373.502 203.078 C 373.594 201.754 373.594 199.456 373.502 197.97 C 373.386 196.508 373.084 194.326 372.829 193.095 C 372.573 191.888 372.086 190.054 371.737 189.033 C 371.412 188.012 370.669 186.201 370.113 184.97 C 369.532 183.763 368.278 181.581 367.304 180.095 C 366.05 178.215 364.75 176.659 362.846 174.755 C 361.36 173.293 359.225 171.436 358.064 170.623 C 356.927 169.811 354.883 168.604 353.537 167.907 C 352.214 167.234 350.008 166.305 348.662 165.864 C 347.338 165.4 345.134 164.82 343.787 164.541 C 342.138 164.193 340.211 164.007 337.751 163.96 C 335.499 163.891 333.34 163.984 331.947 164.193 C 330.74 164.356 328.697 164.773 327.42 165.121 Z M 157.836 164.657 C 160.528 164.703 163.268 164.89 164.568 165.121 C 165.798 165.33 167.981 165.818 169.443 166.189 C 170.929 166.584 173.158 167.327 174.435 167.837 C 175.712 168.325 177.87 169.323 179.193 170.043 C 180.54 170.762 182.374 171.83 183.256 172.434 C 184.162 173.038 185.717 174.199 186.738 175.011 C 187.76 175.8 189.594 177.472 190.801 178.702 C 192.031 179.933 193.795 181.975 194.771 183.252 C 195.746 184.506 197.115 186.549 197.835 187.756 C 198.555 188.986 199.53 190.797 199.994 191.818 C 200.458 192.84 201.201 194.674 201.643 195.881 C 202.083 197.111 202.687 199.084 203.012 200.292 C 203.313 201.522 203.731 203.612 203.94 204.935 C 204.219 206.629 204.335 208.811 204.359 212.015 C 204.359 215.846 204.265 217.193 203.825 219.676 C 203.546 221.348 202.988 223.762 202.617 225.085 C 202.246 226.386 201.643 228.266 201.247 229.264 C 200.853 230.239 199.994 232.096 199.367 233.373 C 198.717 234.65 197.626 236.6 196.907 237.668 C 196.21 238.759 194.979 240.477 194.167 241.498 C 193.378 242.52 191.683 244.401 190.43 245.654 C 189.176 246.907 187.202 248.649 186.042 249.531 C 184.905 250.39 183.024 251.69 181.863 252.409 C 180.725 253.152 178.729 254.243 177.452 254.847 C 176.176 255.473 173.877 256.402 172.345 256.913 C 170.813 257.447 168.306 258.12 166.774 258.445 C 165.242 258.77 162.688 259.141 161.086 259.281 C 159.461 259.444 156.814 259.49 155.05 259.42 C 153.332 259.35 150.616 259.049 149.014 258.794 C 147.436 258.515 145.137 258.004 143.907 257.656 C 142.7 257.284 140.727 256.611 139.496 256.147 C 138.289 255.682 136.246 254.754 134.969 254.081 C 133.692 253.407 131.719 252.223 130.558 251.458 C 129.421 250.691 127.54 249.275 126.38 248.3 C 125.242 247.348 123.525 245.746 122.596 244.725 C 121.644 243.727 120.228 242.056 119.415 241.034 C 118.626 240.012 117.442 238.341 116.815 237.32 C 116.189 236.298 115.143 234.418 114.494 233.141 C 113.867 231.864 112.938 229.775 112.474 228.498 C 111.987 227.221 111.313 225.039 110.942 223.623 C 110.594 222.23 110.13 219.793 109.921 218.237 C 109.735 216.659 109.572 213.896 109.572 212.085 C 109.572 210.251 109.665 207.837 109.804 206.676 C 109.943 205.539 110.245 203.542 110.501 202.265 C 110.756 200.988 111.453 198.551 112.033 196.81 C 112.59 195.092 113.635 192.538 114.331 191.122 C 115.004 189.729 116.281 187.478 117.163 186.131 C 118.046 184.808 119.554 182.765 120.506 181.604 C 121.481 180.467 123.037 178.772 123.989 177.867 C 124.917 176.961 126.38 175.661 127.192 174.988 C 128.028 174.314 129.444 173.27 130.327 172.666 C 131.232 172.063 132.857 171.088 133.925 170.484 C 135.015 169.881 136.942 168.929 138.219 168.395 C 139.496 167.837 141.586 167.072 142.862 166.654 C 144.139 166.259 146.228 165.725 147.505 165.47 C 148.782 165.215 150.616 164.912 151.568 164.796 C 152.543 164.681 155.352 164.611 157.836 164.657 Z M 147.621 176.404 C 146.669 176.659 145.161 177.147 144.255 177.472 C 143.373 177.82 141.702 178.54 140.541 179.12 C 139.403 179.7 137.685 180.676 136.71 181.325 C 135.758 181.953 134.087 183.229 133.019 184.135 C 131.928 185.04 130.28 186.688 129.328 187.756 C 128.399 188.847 127.053 190.565 126.38 191.586 C 125.707 192.608 124.685 194.396 124.105 195.533 C 123.525 196.693 122.782 198.365 122.457 199.247 C 122.108 200.152 121.598 201.871 121.296 203.078 C 120.971 204.308 120.6 206.235 120.46 207.372 C 120.274 208.696 120.228 210.947 120.297 213.409 C 120.413 216.473 120.576 217.912 121.017 219.793 C 121.319 221.139 121.806 222.927 122.085 223.739 C 122.363 224.575 123.269 226.617 124.081 228.266 C 124.894 229.938 126.287 232.282 127.146 233.466 C 128.004 234.673 129.653 236.623 130.791 237.784 C 131.951 238.944 133.832 240.593 134.969 241.452 C 136.13 242.311 138.01 243.541 139.148 244.168 C 140.309 244.795 142.189 245.7 143.327 246.164 C 144.487 246.629 146.577 247.302 147.97 247.673 C 149.386 248.022 151.638 248.44 152.961 248.602 C 154.4 248.765 156.652 248.834 158.416 248.765 C 160.088 248.695 162.595 248.393 163.987 248.115 C 165.404 247.836 167.586 247.256 168.863 246.792 C 170.14 246.35 172.136 245.515 173.274 244.934 C 174.435 244.354 176.106 243.425 176.988 242.845 C 177.894 242.265 179.356 241.197 180.238 240.454 C 181.143 239.711 182.56 238.388 183.419 237.529 C 184.277 236.647 185.717 234.952 186.622 233.722 C 187.527 232.514 188.874 230.332 189.64 228.846 C 190.383 227.384 191.312 225.294 191.683 224.204 C 192.078 223.136 192.588 221.301 192.867 220.141 C 193.122 219.003 193.471 216.96 193.61 215.613 C 193.773 214.174 193.842 212.039 193.749 210.391 C 193.68 208.858 193.401 206.467 193.122 205.051 C 192.844 203.658 192.263 201.453 191.822 200.176 C 191.358 198.899 190.569 196.972 190.035 195.881 C 189.524 194.814 188.364 192.816 187.458 191.471 C 186.553 190.124 184.788 187.965 183.512 186.642 C 182.235 185.318 180.238 183.531 179.077 182.649 C 177.94 181.79 176.059 180.536 174.899 179.886 C 173.761 179.236 171.765 178.285 170.488 177.797 C 169.211 177.286 167.33 176.659 166.309 176.404 C 165.288 176.125 163.477 175.754 162.247 175.568 C 161.04 175.382 158.602 175.243 156.791 175.243 C 155.003 175.266 152.612 175.429 151.452 175.591 C 150.314 175.777 148.596 176.125 147.621 176.404 Z M 214.596 234.789 C 215.246 234.859 216.128 235.114 216.57 235.346 C 217.034 235.579 217.568 235.973 217.776 236.205 C 218.009 236.437 218.334 236.995 218.519 237.436 C 218.682 237.9 218.914 239.293 219.007 240.57 C 219.1 241.847 219.308 243.75 219.495 244.818 C 219.68 245.863 220.098 247.581 220.423 248.649 C 220.771 249.693 221.468 251.388 222.002 252.409 C 222.536 253.407 223.534 254.847 224.231 255.567 C 225.112 256.472 226.041 257.145 227.132 257.656 C 228.432 258.282 229.152 258.445 230.615 258.538 C 231.938 258.607 232.89 258.515 233.864 258.236 C 234.631 258.004 235.791 257.493 236.418 257.099 C 237.045 256.704 238.066 255.798 238.693 255.079 C 239.32 254.383 240.248 252.966 240.736 251.945 C 241.247 250.924 241.897 249.205 242.199 248.115 C 242.524 247.047 242.942 245.05 243.127 243.704 C 243.336 242.381 243.498 240.709 243.522 239.99 C 243.522 239.293 243.638 238.295 243.8 237.807 C 243.963 237.296 244.428 236.531 244.845 236.113 C 245.309 235.648 246.076 235.207 246.819 234.998 C 247.584 234.766 248.42 234.696 249.07 234.766 C 249.65 234.859 250.533 235.137 251.043 235.416 C 251.554 235.718 252.204 236.344 252.506 236.856 C 253.017 237.737 253.04 237.946 252.947 241.034 C 252.878 243.03 252.645 245.282 252.32 246.838 C 252.041 248.254 251.508 250.343 251.136 251.481 C 250.765 252.642 250.045 254.406 249.581 255.427 C 249.094 256.449 248.211 258.073 247.584 259.025 C 246.958 260 245.773 261.486 244.938 262.369 C 244.079 263.227 242.918 264.295 242.338 264.713 C 241.781 265.131 240.527 265.874 239.552 266.361 C 238.6 266.826 237.045 267.429 236.07 267.661 C 234.886 267.987 233.47 268.126 231.543 268.149 C 229.616 268.172 228.2 268.056 226.9 267.754 C 225.879 267.522 224.323 267.011 223.418 266.594 C 222.536 266.199 221.328 265.526 220.748 265.154 C 220.191 264.76 219.146 263.924 218.45 263.297 C 217.754 262.67 216.57 261.324 215.803 260.302 C 215.06 259.281 213.946 257.47 213.343 256.24 C 212.715 255.033 211.95 253.268 211.625 252.293 C 211.3 251.341 210.812 249.623 210.533 248.463 C 210.255 247.325 209.884 245.282 209.721 243.936 C 209.535 242.612 209.396 240.755 209.396 239.827 C 209.396 238.898 209.535 237.807 209.698 237.389 C 209.884 236.971 210.324 236.344 210.696 235.997 C 211.067 235.648 211.834 235.207 212.391 234.998 C 213.064 234.789 213.877 234.72 214.596 234.789 Z M 339.26 171.436 C 340.536 171.483 342.58 171.738 343.787 171.993 C 345.017 172.225 346.712 172.689 347.571 173.015 C 348.43 173.34 349.938 174.013 350.937 174.5 C 351.935 175.011 353.467 175.94 354.349 176.566 C 355.255 177.193 356.694 178.377 357.577 179.213 C 358.459 180.025 359.852 181.581 360.664 182.649 C 361.476 183.74 362.661 185.62 363.287 186.827 C 363.891 188.058 364.68 189.822 365.028 190.774 C 365.353 191.749 365.864 193.559 366.142 194.836 C 366.491 196.531 366.63 197.994 366.607 200.176 C 366.607 202.149 366.467 203.844 366.212 205.051 C 365.98 206.073 365.516 207.86 365.144 208.998 C 364.773 210.158 363.984 212.039 363.403 213.176 C 362.823 214.337 361.848 215.962 361.267 216.774 C 360.687 217.61 359.248 219.259 358.087 220.466 C 356.718 221.881 355.139 223.182 353.537 224.25 C 352.214 225.132 350.38 226.153 349.474 226.525 C 348.593 226.896 346.967 227.453 345.876 227.778 C 344.808 228.08 342.858 228.474 341.581 228.637 C 340.119 228.823 338.285 228.87 336.59 228.777 C 335.128 228.683 333.038 228.428 331.947 228.173 C 330.879 227.941 329.208 227.453 328.233 227.105 C 327.281 226.757 325.609 226.014 324.519 225.457 C 323.451 224.9 321.663 223.785 320.572 222.973 C 319.504 222.16 317.926 220.767 317.089 219.885 C 316.277 219.003 315.093 217.61 314.513 216.774 C 313.909 215.962 313.004 214.499 312.493 213.525 C 311.982 212.573 311.193 210.692 310.752 209.345 C 310.288 208.022 309.777 205.817 309.568 204.471 C 309.382 203.147 309.22 201.313 309.22 200.408 C 309.197 199.526 309.313 197.901 309.452 196.81 C 309.591 195.742 309.94 193.908 310.241 192.747 C 310.543 191.61 311.193 189.729 311.68 188.568 C 312.168 187.431 313.259 185.434 314.118 184.157 C 314.954 182.881 316.509 180.954 317.601 179.886 C 318.669 178.819 320.27 177.425 321.152 176.799 C 322.058 176.172 323.776 175.151 324.983 174.547 C 326.213 173.92 328.024 173.154 329.045 172.852 C 330.067 172.527 331.436 172.155 332.064 171.993 C 332.713 171.854 334.06 171.645 335.081 171.529 C 336.103 171.413 337.983 171.366 339.26 171.436 Z M 331.947 182.3 C 330.996 182.625 329.579 183.252 328.813 183.693 C 328.047 184.135 326.816 184.97 326.097 185.551 C 325.354 186.131 324.17 187.315 323.451 188.174 C 322.754 189.033 321.709 190.681 321.152 191.818 C 320.572 192.979 319.899 194.744 319.643 195.765 C 319.318 197.042 319.179 198.388 319.179 200.06 C 319.203 201.638 319.342 203.147 319.643 204.354 C 319.876 205.376 320.34 206.792 320.642 207.488 C 320.943 208.209 321.594 209.392 322.081 210.158 C 322.568 210.924 323.613 212.224 324.379 213.037 C 325.168 213.849 326.422 214.964 327.188 215.521 C 327.954 216.078 329.324 216.844 330.206 217.262 C 331.112 217.657 332.62 218.191 333.572 218.446 C 334.826 218.771 336.103 218.887 337.983 218.887 C 339.956 218.887 341.163 218.771 342.51 218.423 C 343.532 218.144 345.203 217.517 346.224 217.007 C 347.246 216.496 348.755 215.544 349.544 214.917 C 350.334 214.29 351.587 213.06 352.283 212.201 C 353.003 211.343 354.094 209.578 354.721 208.301 C 355.325 207.024 356.021 205.306 356.23 204.471 C 356.439 203.658 356.671 202.08 356.74 200.988 C 356.834 199.596 356.74 198.435 356.462 197.042 C 356.253 195.974 355.742 194.233 355.348 193.212 C 354.953 192.19 354.118 190.634 353.537 189.729 C 352.933 188.847 351.61 187.338 350.612 186.363 C 349.591 185.411 348.151 184.274 347.385 183.81 C 346.619 183.368 345.319 182.765 344.483 182.463 C 343.67 182.161 342.231 181.766 341.303 181.581 C 340.374 181.419 338.819 181.279 337.82 181.279 C 336.822 181.302 335.499 181.395 334.849 181.511 C 334.222 181.627 332.922 181.975 331.947 182.3 Z" style="fill: rgb(38, 60, 91);"/>
  <path class="b" d="M 236.07 383.318 C 237.532 383.364 239.32 383.573 240.017 383.782 C 240.713 383.968 241.734 384.386 242.292 384.711 C 242.826 385.035 243.266 385.43 243.266 385.593 C 243.266 385.732 242.964 386.173 241.897 387.264 L 241.247 386.754 C 240.898 386.475 239.923 386.081 239.088 385.894 C 238.252 385.686 236.65 385.523 235.49 385.523 C 234.213 385.523 232.89 385.663 232.123 385.894 C 231.241 386.15 230.545 386.568 229.895 387.241 C 229.314 387.798 228.827 388.588 228.664 389.122 C 228.525 389.632 228.409 390.329 228.409 390.7 C 228.409 391.048 228.548 391.675 228.711 392.093 C 228.897 392.488 229.407 393.184 229.872 393.602 C 230.359 393.997 231.079 394.484 231.473 394.67 C 231.891 394.832 234.004 395.459 236.186 396.063 C 238.368 396.666 240.434 397.27 240.806 397.432 C 241.177 397.572 241.897 398.175 242.408 398.756 C 242.942 399.336 243.568 400.265 243.8 400.845 C 244.149 401.611 244.265 402.401 244.241 403.863 C 244.241 405.256 244.102 406.208 243.777 407.113 C 243.498 407.856 242.826 408.924 242.175 409.621 C 241.479 410.41 240.551 411.129 239.668 411.547 C 238.902 411.919 237.695 412.337 236.998 412.476 C 236.255 412.638 234.654 412.685 233.168 412.615 C 231.589 412.546 230.034 412.313 229.105 412.034 C 228.27 411.779 227.132 411.222 226.575 410.781 C 225.995 410.363 225.507 409.899 225.484 409.783 C 225.461 409.667 225.786 409.249 227.039 408.157 L 227.55 408.669 C 227.829 408.97 228.595 409.388 229.222 409.643 C 229.872 409.899 231.311 410.224 232.472 410.363 C 234.05 410.572 234.932 410.572 236.07 410.363 C 236.905 410.224 238.043 409.876 238.6 409.597 C 239.18 409.318 240.017 408.669 240.457 408.135 C 240.945 407.601 241.479 406.602 241.734 405.813 C 242.036 404.885 242.129 404.049 242.059 403.166 C 242.013 402.47 241.758 401.542 241.502 401.1 C 241.27 400.659 240.806 400.125 240.481 399.893 C 240.156 399.638 237.927 398.895 235.49 398.222 C 233.052 397.525 230.545 396.713 229.918 396.364 C 229.291 396.039 228.363 395.366 227.899 394.879 C 227.434 394.391 226.853 393.579 226.644 393.068 C 226.413 392.488 226.25 391.513 226.25 390.514 C 226.25 389.354 226.413 388.564 226.761 387.729 C 227.039 387.079 227.596 386.22 228.014 385.802 C 228.432 385.36 229.175 384.78 229.686 384.479 C 230.196 384.177 231.241 383.759 232.007 383.573 C 233.006 383.318 234.143 383.248 236.07 383.318 Z M 303.138 383.434 L 305.227 383.434 L 305.296 394.762 C 305.366 404.885 305.413 406.161 305.761 406.881 C 305.993 407.322 306.55 408.088 307.038 408.575 C 307.525 409.063 308.5 409.667 309.197 409.946 C 310.148 410.317 311.03 410.433 312.679 410.433 C 314.072 410.456 315.348 410.317 316.161 410.085 C 316.858 409.876 317.902 409.365 318.46 408.924 C 319.04 408.506 319.736 407.693 320.572 406.069 L 320.572 383.434 L 322.847 383.434 L 322.824 395.111 C 322.777 406.649 322.777 406.765 322.267 407.81 C 321.988 408.39 321.385 409.272 320.966 409.783 C 320.526 410.293 319.667 410.99 319.04 411.338 C 318.413 411.687 317.276 412.128 316.509 412.313 C 315.744 412.522 314.211 412.685 313.097 412.685 C 311.959 412.685 310.497 412.568 309.847 412.429 C 309.173 412.29 308.105 411.895 307.456 411.594 C 306.829 411.269 305.854 410.572 305.296 410.038 C 304.74 409.527 304.066 408.669 303.788 408.157 C 303.277 407.252 303.277 407.043 303.207 395.32 L 303.138 383.434 Z M 351.448 383.434 L 369.091 383.434 L 369.091 385.756 L 353.769 385.756 L 353.769 396.898 L 368.395 396.898 L 368.395 398.988 L 353.769 398.988 L 353.769 410.131 L 369.091 410.131 L 369.091 412.452 L 351.448 412.452 L 351.448 397.943 L 351.448 383.434 Z M 67.53 398.988 L 172.693 398.988 L 172.693 401.077 L 67.53 401.077 L 67.53 400.032 L 67.53 398.988 Z M 190.337 383.434 L 192.658 383.434 L 192.658 412.452 L 190.337 412.452 L 190.337 397.943 L 190.337 383.434 Z M 200.087 383.434 L 202.408 383.434 L 216.453 407.972 L 216.57 383.434 L 218.659 383.434 L 218.659 412.452 L 216.337 412.452 L 202.292 387.914 L 202.177 412.476 L 200.087 412.476 L 200.087 397.966 L 200.087 383.434 Z M 249.535 383.434 L 266.249 383.434 L 266.249 385.756 L 259.052 385.756 L 259.052 412.452 L 256.731 412.452 L 256.731 385.756 L 249.535 385.756 L 249.535 384.595 L 249.535 383.434 Z M 272.285 383.434 L 274.374 383.434 L 274.374 412.452 L 272.285 412.452 L 272.285 397.943 L 272.285 383.434 Z M 280.41 383.434 L 297.125 383.434 L 297.125 385.756 L 289.928 385.756 L 289.928 412.452 L 287.607 412.452 L 287.607 385.756 L 280.41 385.756 L 280.41 384.595 L 280.41 383.434 Z M 328.697 383.434 L 345.412 383.434 L 345.412 385.756 L 338.215 385.756 L 338.215 412.452 L 336.126 412.452 L 336.126 385.756 L 328.697 385.756 L 328.697 384.595 L 328.697 383.434 Z" style="fill: rgb(142, 146, 159);"/>
</svg>