<?xml version="1.0" encoding="utf-8"?>
<svg viewBox="0 0 500 500" xmlns="http://www.w3.org/2000/svg">
  <path d="M 500 250 A 250 250 0 0 1 250 500 A 250 250 0 0 1 0 250 A 250 250 0 0 1 250 0 A 250 250 0 0 1 500 250 Z" style="fill: rgb(202, 80, 76);"/>
  <path d="M 364.998 390 L 364.998 110 L 134.998 110 L 134.998 300 L 224.998 300 L 224.998 390 L 364.998 390 Z" style="stroke-linejoin: bevel; fill: rgb(255, 255, 255);" transform="matrix(-1, 0, 0, -1, 499.995972, 500)"/>
  <path d="M 275 200 L 365 200 L 365 199.996 L 275.002 200 L 275 155 L 275 200 Z M 365 110 L 275 110 L 275 110.002 L 365 199.994 L 365 110 Z" style="fill: rgb(134, 83, 80);" transform="matrix(-1, 0, 0, -1, 640, 310)"/>
  <path d="M 313.5 263.5 A 63.5 63.5 0 0 1 250 327 A 63.5 63.5 0 0 1 186.5 263.5 A 63.5 63.5 0 0 1 250 200 A 63.5 63.5 0 0 1 313.5 263.5 Z" style="fill: rgb(202, 80, 76);"/>
  <path d="M 273.407 290.661 C 273.407 292.166 272.99 293.607 272.23 294.914 C 271.469 296.221 270.365 297.395 268.99 298.365 C 267.633 299.361 266.008 300.158 264.203 300.707 C 262.397 301.256 260.41 301.556 258.328 301.556 C 256.246 301.556 254.259 301.256 252.453 300.707 C 250.647 300.158 249.023 299.36 247.666 298.364 C 246.29 297.394 245.186 296.221 244.426 294.914 C 243.665 293.607 243.249 292.166 243.249 290.661 C 243.249 289.156 243.666 287.715 244.426 286.408 C 245.187 285.101 246.291 283.928 247.666 282.957 C 249.023 281.962 250.647 281.164 252.453 280.615 C 254.259 280.066 256.246 279.766 258.328 279.766 C 260.385 279.766 262.039 279.976 263.506 280.368 C 264.973 280.76 266.252 281.333 267.561 282.06 L 268.237 282.436 L 268.914 282.811 L 270.317 265.722 L 271.72 248.634 L 257.051 241.588 L 242.383 234.542 L 240.637 255.802 L 238.891 277.063 L 238.912 277.143 L 238.933 277.224 C 239.021 277.561 239.088 277.882 239.133 278.211 C 239.177 278.54 239.2 278.877 239.2 279.249 C 239.2 280.754 238.774 282.194 237.996 283.502 C 237.218 284.809 236.089 285.983 234.684 286.953 C 233.295 287.948 231.634 288.746 229.787 289.295 C 227.941 289.844 225.909 290.144 223.78 290.144 C 221.651 290.144 219.619 289.844 217.773 289.295 C 215.926 288.746 214.265 287.948 212.876 286.953 C 211.471 285.983 210.342 284.809 209.564 283.502 C 208.786 282.194 208.36 280.753 208.36 279.249 C 208.36 277.744 208.786 276.304 209.564 274.996 C 210.342 273.689 211.471 272.515 212.876 271.545 C 214.265 270.549 215.926 269.752 217.773 269.203 C 219.619 268.654 221.651 268.354 223.78 268.354 C 225.758 268.354 227.358 268.541 228.787 268.891 C 230.217 269.241 231.475 269.755 232.77 270.407 L 233.432 270.741 L 234.093 271.074 L 235.694 251.584 L 237.294 232.093 L 237.281 232.087 L 237.267 232.081 L 238.077 221.593 L 238.887 211.104 L 258.641 220.593 L 278.394 230.081 L 278.264 231.762 L 278.133 233.442 L 278.174 233.446 L 278.214 233.449 L 275.898 261.658 L 273.582 289.866 L 273.476 289.876 L 273.37 289.885 C 273.382 290.014 273.391 290.143 273.398 290.273 C 273.404 290.402 273.407 290.532 273.407 290.661 Z" style="fill: rgb(255, 255, 255);"/>
</svg>