<?xml version="1.0" encoding="utf-8"?>
<svg viewBox="0 0 500 500" xmlns="http://www.w3.org/2000/svg">
  <g transform="matrix(1, 0, 0, 1, -0.001099, 0.000093)" style="">
    <title>zip</title>
    <path style="fill: rgb(255, 230, 69);" d="M 130 0 L 290 0 L 290 150 L 440 150 L 440 430 C 440 468.66 408.66 500 370 500 L 130 500 C 91.34 500 60 468.66 60 430 L 60 70 C 60 31.34 91.34 0 130 0 Z"/>
    <path d="M 290.001 0.001 L 440.001 150.001 L 290.001 150.001 L 290.001 0.001 Z" style="fill: rgb(255, 193, 46);" transform="matrix(1, -0.000016, 0.000016, 1, -0.0012, 0.00584)"/>
    <g transform="matrix(1, 0, 0, 1, 0.001099, -0.000093)">
      <path d="M 158.206 0 H 186.13 V 301.79 H 158.206 V 0 Z" style="fill: rgb(161, 157, 141);"/>
      <path d="M 290.373 305.626 Q 314 276.194 337.627 305.626 L 344.07 313.653 Q 367.697 343.085 358.672 390.708 L 356.211 403.695 Q 347.186 451.318 317.982 451.318 L 310.018 451.318 Q 280.814 451.318 271.789 403.695 L 269.328 390.708 Q 260.303 343.085 283.93 313.653 Z" style="fill: rgb(196, 192, 173);" transform="matrix(-1, -0.000013, 0.000013, -1, 486.16272, 707.42511)"/>
      <path d="M 141.609 183.224 H 202.728 A 12.4 12.351 0 0 1 215.128 195.575 V 195.575 A 12.4 12.351 0 0 1 202.728 207.926 H 141.609 A 12.4 12.351 0 0 1 129.209 195.575 V 195.575 A 12.4 12.351 0 0 1 141.609 183.224 Z" style="fill: rgb(196, 192, 173);"/>
      <path d="M 141.609 116.026 H 202.728 A 12.4 12.351 0 0 1 215.128 128.377 V 128.377 A 12.4 12.351 0 0 1 202.728 140.728 H 141.609 A 12.4 12.351 0 0 1 129.209 128.377 V 128.377 A 12.4 12.351 0 0 1 141.609 116.026 Z" style="fill: rgb(196, 192, 173);"/>
      <path d="M 141.608 48.217 H 202.727 A 12.4 12.351 0 0 1 215.127 60.568 V 60.568 A 12.4 12.351 0 0 1 202.727 72.919 H 141.608 A 12.4 12.351 0 0 1 129.208 60.568 V 60.568 A 12.4 12.351 0 0 1 141.608 48.217 Z" style="fill: rgb(196, 192, 173);"/>
    </g>
  </g>
</svg>