<?xml version="1.0" encoding="utf-8"?>
<svg viewBox="0 0 500 500" xmlns="http://www.w3.org/2000/svg">
  <g transform="matrix(1, 0, 0, 1, 2.147966, 0.000001)">
    <title>image</title>
    <path d="M 77.852 0 H 417.852 A 80 80 0 0 1 497.852 80 V 420 A 80 80 0 0 1 417.852 500 H 77.852 A 80 80 0 0 1 -2.148 420 V 80 A 80 80 0 0 1 77.852 0 Z" style="fill: rgb(235, 240, 250);"/>
    <path d="M 229.714 133.306 C 229.714 174.727 196.135 208.306 154.714 208.306 C 113.293 208.306 79.714 174.727 79.714 133.306 C 79.714 91.885 113.293 58.306 154.714 58.306 C 196.135 58.306 229.714 91.885 229.714 133.306 Z M 89.643 286.449 C 116.741 258.845 144.092 258.592 171.695 285.691 L 213.655 326.885 L 316.689 198.4 C 346.761 160.9 377.176 160.619 407.935 197.557 L 497.852 305.536 L 497.852 420 C 497.852 464.183 462.035 500 417.852 500 L 77.852 500 C 33.669 500 -2.148 464.183 -2.148 420 L -2.148 379.956 Z" style="fill: rgb(170, 200, 90);"/>
    <path style="fill: rgba(0, 0, 0, 0.14);" d="M 247.852 0 H 417.852 A 80 80 0 0 1 497.852 80 V 420 A 80 80 0 0 1 417.852 500 H 247.852 V 0 Z"/>
  </g>
</svg>