<?xml version="1.0" encoding="utf-8"?>
<svg viewBox="0 0 500 500" xmlns="http://www.w3.org/2000/svg" xmlns:bx="https://boxy-svg.com">
  <g style="visibility: hidden;">
    <title>audio</title>
    <path d="M 500 250 C 500 388.071 388.071 500 250 500 C 111.929 500 0 388.071 0 250 C 0 111.929 111.929 0 250 0 C 388.071 0 500 111.929 500 250 Z" style="fill: rgb(202, 80, 76);"/>
    <path d="M 364.998 390 L 364.998 110 L 134.998 110 L 134.998 300 L 224.998 300 L 224.998 390 L 364.998 390 Z" style="stroke-linejoin: bevel; fill: rgb(255, 255, 255);" transform="matrix(-1, 0, 0, -1, 499.995987, 500)"/>
    <path d="M 275 200 L 365 200 L 365 199.996 L 275.002 200 L 275 155 L 275 200 Z M 365 110 L 275 110 L 275 110.002 L 365 199.994 L 365 110 Z" style="fill: rgb(134, 83, 80);" transform="matrix(-1, 0, 0, -1, 640, 310)"/>
    <path d="M 313.5 263.5 C 313.5 298.57 285.07 327 250 327 C 214.93 327 186.5 298.57 186.5 263.5 C 186.5 228.43 214.93 200 250 200 C 285.07 200 313.5 228.43 313.5 263.5 Z" style="fill: rgb(202, 80, 76);"/>
    <path d="M 273.407 290.661 C 273.407 292.166 272.99 293.607 272.23 294.914 C 271.469 296.221 270.365 297.395 268.99 298.365 C 267.633 299.361 266.008 300.158 264.203 300.707 C 262.397 301.256 260.41 301.556 258.328 301.556 C 256.246 301.556 254.259 301.256 252.453 300.707 C 250.647 300.158 249.023 299.36 247.666 298.364 C 246.29 297.394 245.186 296.221 244.426 294.914 C 243.665 293.607 243.249 292.166 243.249 290.661 C 243.249 289.156 243.666 287.715 244.426 286.408 C 245.187 285.101 246.291 283.928 247.666 282.957 C 249.023 281.962 250.647 281.164 252.453 280.615 C 254.259 280.066 256.246 279.766 258.328 279.766 C 260.385 279.766 262.039 279.976 263.506 280.368 C 264.973 280.76 266.252 281.333 267.561 282.06 L 268.237 282.436 L 268.914 282.811 L 270.317 265.722 L 271.72 248.634 L 257.051 241.588 L 242.383 234.542 L 240.637 255.802 L 238.891 277.063 L 238.912 277.143 L 238.933 277.224 C 239.021 277.561 239.088 277.882 239.133 278.211 C 239.177 278.54 239.2 278.877 239.2 279.249 C 239.2 280.754 238.774 282.194 237.996 283.502 C 237.218 284.809 236.089 285.983 234.684 286.953 C 233.295 287.948 231.634 288.746 229.787 289.295 C 227.941 289.844 225.909 290.144 223.78 290.144 C 221.651 290.144 219.619 289.844 217.773 289.295 C 215.926 288.746 214.265 287.948 212.876 286.953 C 211.471 285.983 210.342 284.809 209.564 283.502 C 208.786 282.194 208.36 280.753 208.36 279.249 C 208.36 277.744 208.786 276.304 209.564 274.996 C 210.342 273.689 211.471 272.515 212.876 271.545 C 214.265 270.549 215.926 269.752 217.773 269.203 C 219.619 268.654 221.651 268.354 223.78 268.354 C 225.758 268.354 227.358 268.541 228.787 268.891 C 230.217 269.241 231.475 269.755 232.77 270.407 L 233.432 270.741 L 234.093 271.074 L 235.694 251.584 L 237.294 232.093 L 237.281 232.087 L 237.267 232.081 L 238.077 221.593 L 238.887 211.104 L 258.641 220.593 L 278.394 230.081 L 278.264 231.762 L 278.133 233.442 L 278.174 233.446 L 278.214 233.449 L 275.898 261.658 L 273.582 289.866 L 273.476 289.876 L 273.37 289.885 C 273.382 290.014 273.391 290.143 273.398 290.273 C 273.404 290.402 273.407 290.532 273.407 290.661 Z" style="fill: rgb(255, 255, 255);"/>
  </g>
  <g style="visibility: hidden;">
    <title>code</title>
    <path style="fill: rgb(0, 161, 224);" d="M 130 0 L 290 0 L 290 150 L 440 150 L 440 430 C 440 468.66 408.66 500 370 500 L 130 500 C 91.34 500 60 468.66 60 430 L 60 70 C 60 31.34 91.34 0 130 0 Z"/>
    <path d="M 290.001 0.001 L 440.001 150.001 L 290.001 150.001 L 290.001 0.001 Z" style="fill: rgb(77, 189, 233);" transform="matrix(1, -0.000016, 0.000016, 1, -0.0012, 0.00584)"/>
    <text style="fill: rgb(255, 255, 255); font-family: Arial, sans-serif; font-size: 21.7px; stroke: rgb(255, 255, 255); stroke-width: 1.89223px; white-space: pre;" transform="matrix(7.455646, 0, 0, 7.341719, -893.172363, -1988.831787)" x="143.068" y="312.422">{ }</text>
  </g>
  <g transform="matrix(1, 0, 0, 1, -0.001099, 0.0002)" style="visibility: hidden;">
    <title>doc</title>
    <path style="fill: rgb(41, 121, 255);" d="M 130 0 L 290 0 L 290 150 L 440 150 L 440 430 C 440 468.66 408.66 500 370 500 L 130 500 C 91.34 500 60 468.66 60 430 L 60 70 C 60 31.34 91.34 0 130 0 Z"/>
    <path d="M 290.001 0.001 L 440.001 150.001 L 290.001 150.001 L 290.001 0.001 Z" style="fill: rgb(41, 98, 255);" transform="matrix(1, -0.000016, 0.000016, 1, -0.0012, 0.00584)"/>
    <text style="fill: rgb(255, 255, 255); font-family: Arial, sans-serif; font-size: 21.7px; stroke: rgb(255, 255, 255); stroke-linecap: round; stroke-miterlimit: 2; stroke-width: 1.89223px; white-space: pre;" transform="matrix(6.221945, 0, 0, 7.341719, -790.165283, -1988.338989)" x="143.068" y="312.422">DOC</text>
  </g>
  <g transform="matrix(1, 0, 0, 1, -0.001099, 0.000093)" style="visibility: hidden;">
    <title>txt</title>
    <path style="fill: rgb(41, 121, 255);" d="M 130 0 L 290 0 L 290 150 L 440 150 L 440 430 C 440 468.66 408.66 500 370 500 L 130 500 C 91.34 500 60 468.66 60 430 L 60 70 C 60 31.34 91.34 0 130 0 Z"/>
    <path d="M 290.001 0.001 L 440.001 150.001 L 290.001 150.001 L 290.001 0.001 Z" style="fill: rgb(41, 98, 255);" transform="matrix(1, -0.000016, 0.000016, 1, -0.0012, 0.00584)"/>
    <text style="fill: rgb(255, 255, 255); font-family: Arial, sans-serif; font-size: 21.7px; stroke: rgb(255, 255, 255); stroke-linecap: round; stroke-miterlimit: 2; stroke-width: 1.89223px; white-space: pre;" transform="matrix(6.221945, 0, 0, 7.341719, -767.656433, -1988.675903)" x="143.068" y="312.422">TXT</text>
  </g>
  <g transform="matrix(1, 0, 0, 1, -0.001099, 0.000093)" style="visibility: hidden;">
    <title>pdf</title>
    <path style="fill: rgb(210, 38, 0);" d="M 130 0 L 290 0 L 290 150 L 440 150 L 440 430 C 440 468.66 408.66 500 370 500 L 130 500 C 91.34 500 60 468.66 60 430 L 60 70 C 60 31.34 91.34 0 130 0 Z"/>
    <path d="M 290.001 0.001 L 440.001 150.001 L 290.001 150.001 L 290.001 0.001 Z" style="fill: rgb(172, 34, 0);" transform="matrix(1, -0.000016, 0.000016, 1, -0.0012, 0.00584)"/>
    <text style="fill: rgb(255, 255, 255); font-family: Arial, sans-serif; font-size: 21.7px; stroke: rgb(255, 255, 255); stroke-linecap: round; stroke-miterlimit: 2; stroke-width: 1.89223px; white-space: pre;" transform="matrix(6.221945, 0, 0, 7.341719, -775.16687, -1988.676025)" x="143.068" y="312.422">PDF</text>
  </g>
  <g style="visibility: hidden;">
    <title>unknown</title>
    <path d="M 500 250 C 500 388.071 388.071 500 250 500 C 111.929 500 0 388.071 0 250 C 0 111.929 111.929 0 250 0 C 388.071 0 500 111.929 500 250 Z" style="fill: rgb(75, 131, 193);"/>
    <text style="fill: rgb(255, 255, 255); font-family: Arial, sans-serif; font-size: 21.7px; paint-order: fill; stroke: rgb(255, 255, 255); stroke-linecap: round; stroke-linejoin: round; stroke-miterlimit: 2; stroke-width: 0.205043px; white-space: pre;" transform="matrix(13.423164, 0, 0, 15.838955, -1751.423096, -4579.091797)"><tspan x="143.068" y="312.422" style="vector-effect: non-scaling-stroke;">?</tspan></text>
  </g>
  <g style="visibility: hidden;">
    <title>video</title>
    <path d="M 500 250 C 500 388.071 388.071 500 250 500 C 111.929 500 0 388.071 0 250 C 0 111.929 111.929 0 250 0 C 388.071 0 500 111.929 500 250 Z" style="fill: rgb(147, 95, 178);"/>
    <path d="M 364.998 390 L 364.998 110 L 134.998 110 L 134.998 300 L 224.998 300 L 224.998 390 L 364.998 390 Z" style="stroke-linejoin: bevel; fill: rgb(255, 255, 255);" transform="matrix(-1, 0, 0, -1, 499.995987, 500)"/>
    <path d="M 275 200 L 365 200 L 365 199.996 L 275.002 200 L 275 155 L 275 200 Z M 365 110 L 275 110 L 275 110.002 L 365 199.994 L 365 110 Z" style="fill: rgb(89, 57, 108);" transform="matrix(-1, 0, 0, -1, 640, 310)"/>
    <path d="M 313.5 263.5 C 313.5 298.57 285.07 327 250 327 C 214.93 327 186.5 298.57 186.5 263.5 C 186.5 228.43 214.93 200 250 200 C 285.07 200 313.5 228.43 313.5 263.5 Z" style="fill: rgb(147, 95, 178);"/>
    <path d="M 785.305 339.551 L 820.305 405.551 L 750.305 405.551 L 785.305 339.551 Z" style="fill: rgb(255, 255, 255);" transform="matrix(-0.000072, 1, -1, -0.000072, 625.610046, -520.278503)" bx:shape="triangle 750.305 339.551 70 66 0.5 0 1@955c5a82"/>
  </g>
  <g style="visibility: hidden;">
    <title>audio</title>
    <path d="M 500 250 C 500 388.071 388.071 500 250 500 C 111.929 500 0 388.071 0 250 C 0 111.929 111.929 0 250 0 C 388.071 0 500 111.929 500 250 Z" style="fill: rgb(202, 80, 76);"/>
    <path d="M 364.998 390 L 364.998 110 L 134.998 110 L 134.998 300 L 224.998 300 L 224.998 390 L 364.998 390 Z" style="stroke-linejoin: bevel; fill: rgb(255, 255, 255);" transform="matrix(-1, 0, 0, -1, 499.995987, 500)"/>
    <path d="M 275 200 L 365 200 L 365 199.996 L 275.002 200 L 275 155 L 275 200 Z M 365 110 L 275 110 L 275 110.002 L 365 199.994 L 365 110 Z" style="fill: rgb(134, 83, 80);" transform="matrix(-1, 0, 0, -1, 640, 310)"/>
    <path d="M 313.5 263.5 C 313.5 298.57 285.07 327 250 327 C 214.93 327 186.5 298.57 186.5 263.5 C 186.5 228.43 214.93 200 250 200 C 285.07 200 313.5 228.43 313.5 263.5 Z" style="fill: rgb(202, 80, 76);"/>
    <path d="M 273.407 290.661 C 273.407 292.166 272.99 293.607 272.23 294.914 C 271.469 296.221 270.365 297.395 268.99 298.365 C 267.633 299.361 266.008 300.158 264.203 300.707 C 262.397 301.256 260.41 301.556 258.328 301.556 C 256.246 301.556 254.259 301.256 252.453 300.707 C 250.647 300.158 249.023 299.36 247.666 298.364 C 246.29 297.394 245.186 296.221 244.426 294.914 C 243.665 293.607 243.249 292.166 243.249 290.661 C 243.249 289.156 243.666 287.715 244.426 286.408 C 245.187 285.101 246.291 283.928 247.666 282.957 C 249.023 281.962 250.647 281.164 252.453 280.615 C 254.259 280.066 256.246 279.766 258.328 279.766 C 260.385 279.766 262.039 279.976 263.506 280.368 C 264.973 280.76 266.252 281.333 267.561 282.06 L 268.237 282.436 L 268.914 282.811 L 270.317 265.722 L 271.72 248.634 L 257.051 241.588 L 242.383 234.542 L 240.637 255.802 L 238.891 277.063 L 238.912 277.143 L 238.933 277.224 C 239.021 277.561 239.088 277.882 239.133 278.211 C 239.177 278.54 239.2 278.877 239.2 279.249 C 239.2 280.754 238.774 282.194 237.996 283.502 C 237.218 284.809 236.089 285.983 234.684 286.953 C 233.295 287.948 231.634 288.746 229.787 289.295 C 227.941 289.844 225.909 290.144 223.78 290.144 C 221.651 290.144 219.619 289.844 217.773 289.295 C 215.926 288.746 214.265 287.948 212.876 286.953 C 211.471 285.983 210.342 284.809 209.564 283.502 C 208.786 282.194 208.36 280.753 208.36 279.249 C 208.36 277.744 208.786 276.304 209.564 274.996 C 210.342 273.689 211.471 272.515 212.876 271.545 C 214.265 270.549 215.926 269.752 217.773 269.203 C 219.619 268.654 221.651 268.354 223.78 268.354 C 225.758 268.354 227.358 268.541 228.787 268.891 C 230.217 269.241 231.475 269.755 232.77 270.407 L 233.432 270.741 L 234.093 271.074 L 235.694 251.584 L 237.294 232.093 L 237.281 232.087 L 237.267 232.081 L 238.077 221.593 L 238.887 211.104 L 258.641 220.593 L 278.394 230.081 L 278.264 231.762 L 278.133 233.442 L 278.174 233.446 L 278.214 233.449 L 275.898 261.658 L 273.582 289.866 L 273.476 289.876 L 273.37 289.885 C 273.382 290.014 273.391 290.143 273.398 290.273 C 273.404 290.402 273.407 290.532 273.407 290.661 Z" style="fill: rgb(255, 255, 255);"/>
  </g>
  <g transform="matrix(1, 0, 0, 1, 2.147966, 0.000001)" style="visibility: hidden;">
    <title>image</title>
    <path d="M 77.852 0 H 417.852 A 80 80 0 0 1 497.852 80 V 420 A 80 80 0 0 1 417.852 500 H 77.852 A 80 80 0 0 1 -2.148 420 V 80 A 80 80 0 0 1 77.852 0 Z" style="fill: rgb(235, 240, 250);"/>
    <path d="M 229.714 133.306 C 229.714 174.727 196.135 208.306 154.714 208.306 C 113.293 208.306 79.714 174.727 79.714 133.306 C 79.714 91.885 113.293 58.306 154.714 58.306 C 196.135 58.306 229.714 91.885 229.714 133.306 Z M 89.643 286.449 C 116.741 258.845 144.092 258.592 171.695 285.691 L 213.655 326.885 L 316.689 198.4 C 346.761 160.9 377.176 160.619 407.935 197.557 L 497.852 305.536 L 497.852 420 C 497.852 464.183 462.035 500 417.852 500 L 77.852 500 C 33.669 500 -2.148 464.183 -2.148 420 L -2.148 379.956 Z" style="fill: rgb(170, 200, 90);"/>
    <path style="fill: rgba(0, 0, 0, 0.14);" d="M 247.852 0 H 417.852 A 80 80 0 0 1 497.852 80 V 420 A 80 80 0 0 1 417.852 500 H 247.852 V 0 Z"/>
  </g>
  <g transform="matrix(1, 0, 0, 1, -0.001099, 0.000093)" style="visibility: hidden;">
    <title>zip</title>
    <path style="fill: rgb(255, 230, 69);" d="M 130 0 L 290 0 L 290 150 L 440 150 L 440 430 C 440 468.66 408.66 500 370 500 L 130 500 C 91.34 500 60 468.66 60 430 L 60 70 C 60 31.34 91.34 0 130 0 Z"/>
    <path d="M 290.001 0.001 L 440.001 150.001 L 290.001 150.001 L 290.001 0.001 Z" style="fill: rgb(255, 193, 46);" transform="matrix(1, -0.000016, 0.000016, 1, -0.0012, 0.00584)"/>
    <g transform="matrix(1, 0, 0, 1, 0.001099, -0.000093)">
      <path d="M 158.206 0 H 186.13 V 301.79 H 158.206 V 0 Z" style="fill: rgb(161, 157, 141);"/>
      <path d="M 290.373 305.626 Q 314 276.194 337.627 305.626 L 344.07 313.653 Q 367.697 343.085 358.672 390.708 L 356.211 403.695 Q 347.186 451.318 317.982 451.318 L 310.018 451.318 Q 280.814 451.318 271.789 403.695 L 269.328 390.708 Q 260.303 343.085 283.93 313.653 Z" style="fill: rgb(196, 192, 173);" transform="matrix(-1, -0.000013, 0.000013, -1, 486.16272, 707.42511)"/>
      <path d="M 141.609 183.224 H 202.728 A 12.4 12.351 0 0 1 215.128 195.575 V 195.575 A 12.4 12.351 0 0 1 202.728 207.926 H 141.609 A 12.4 12.351 0 0 1 129.209 195.575 V 195.575 A 12.4 12.351 0 0 1 141.609 183.224 Z" style="fill: rgb(196, 192, 173);"/>
      <path d="M 141.609 116.026 H 202.728 A 12.4 12.351 0 0 1 215.128 128.377 V 128.377 A 12.4 12.351 0 0 1 202.728 140.728 H 141.609 A 12.4 12.351 0 0 1 129.209 128.377 V 128.377 A 12.4 12.351 0 0 1 141.609 116.026 Z" style="fill: rgb(196, 192, 173);"/>
      <path d="M 141.608 48.217 H 202.727 A 12.4 12.351 0 0 1 215.127 60.568 V 60.568 A 12.4 12.351 0 0 1 202.727 72.919 H 141.608 A 12.4 12.351 0 0 1 129.208 60.568 V 60.568 A 12.4 12.351 0 0 1 141.608 48.217 Z" style="fill: rgb(196, 192, 173);"/>
    </g>
  </g>
</svg>