<?xml version="1.0" encoding="utf-8"?>
<svg viewBox="0 0 500 500" xmlns="http://www.w3.org/2000/svg">
  <g style="">
    <title>video</title>
    <path d="M 500 250 C 500 388.071 388.071 500 250 500 C 111.929 500 0 388.071 0 250 C 0 111.929 111.929 0 250 0 C 388.071 0 500 111.929 500 250 Z" style="fill: rgb(147, 95, 178);"/>
    <path d="M 364.998 390 L 364.998 110 L 134.998 110 L 134.998 300 L 224.998 300 L 224.998 390 L 364.998 390 Z" style="stroke-linejoin: bevel; fill: rgb(255, 255, 255);" transform="matrix(-1, 0, 0, -1, 499.995987, 500)"/>
    <path d="M 275 200 L 365 200 L 365 199.996 L 275.002 200 L 275 155 L 275 200 Z M 365 110 L 275 110 L 275 110.002 L 365 199.994 L 365 110 Z" style="fill: rgb(89, 57, 108);" transform="matrix(-1, 0, 0, -1, 640, 310)"/>
    <path d="M 313.5 263.5 C 313.5 298.57 285.07 327 250 327 C 214.93 327 186.5 298.57 186.5 263.5 C 186.5 228.43 214.93 200 250 200 C 285.07 200 313.5 228.43 313.5 263.5 Z" style="fill: rgb(147, 95, 178);"/>
    <path d="M 785.305 339.551 L 820.305 405.551 L 750.305 405.551 L 785.305 339.551 Z" style="fill: rgb(255, 255, 255);" transform="matrix(-0.000072, 1, -1, -0.000072, 625.610046, -520.278503)"/>
  </g>
</svg>