<?xml version="1.0" encoding="utf-8"?>
<svg viewBox="0 0 500 500" xmlns="http://www.w3.org/2000/svg">
  <g transform="matrix(1, 0, 0, 1, 8.596588, -16.442924)">
    <path opacity=".07" d="M 286.776 188.103 C 243.936 174.163 198.906 181.463 174.226 204.163 C 149.226 227.163 146.346 260.973 150.226 275.663 C 154.106 290.353 170.566 340.663 199.726 346.663 C 228.886 352.663 289.976 360.793 320.736 323.863 C 351.496 286.943 324.426 200.363 286.776 188.103 Z M 250.896 202.813 L 309.026 303.513 C 312.66 309.797 308.128 317.658 300.868 317.663 C 300.864 317.663 300.86 317.663 300.856 317.663 L 184.596 317.663 C 177.337 317.667 172.795 309.812 176.42 303.523 C 176.422 303.519 176.424 303.516 176.426 303.513 L 234.556 202.813 C 238.181 196.523 247.256 196.517 250.89 202.801 C 250.892 202.805 250.894 202.809 250.896 202.813 Z"/>
    <path d="M 255.166 210.813 C 252.314 205.855 245.164 205.845 242.297 210.794 C 242.294 210.8 242.29 210.806 242.286 210.813 L 184.146 311.513 C 181.283 316.464 184.853 322.658 190.572 322.663 C 190.577 322.663 190.582 322.663 190.586 322.663 L 306.866 322.663 C 312.586 322.663 316.166 316.463 313.306 311.513 L 255.166 210.813 Z M 252.726 296.163 C 252.726 303.476 244.81 308.046 238.476 304.39 C 235.537 302.693 233.726 299.557 233.726 296.163 C 233.726 288.849 241.643 284.279 247.976 287.935 C 250.916 289.632 252.726 292.768 252.726 296.163 Z M 235.726 232.163 C 235.726 226.389 241.976 222.781 246.976 225.667 C 249.297 227.007 250.726 229.483 250.726 232.163 L 250.726 273.163 C 250.726 278.936 244.476 282.544 239.476 279.658 C 237.156 278.318 235.726 275.842 235.726 273.163 L 235.726 232.163 Z M 202.546 209.593 C 200.853 210.517 200.227 212.637 201.146 214.333 L 206.216 223.663 C 207.506 226.03 210.874 226.113 212.279 223.813 C 212.932 222.746 212.965 221.411 212.366 220.313 L 207.296 211.003 C 206.372 209.303 204.245 208.676 202.546 209.603 L 202.546 209.593 Z" opacity=".2"/>
    <path d="M 293.096 186.663 L 297.726 191.163 L 293.226 195.663 L 288.726 191.163 L 293.096 186.663 Z M 302.016 331.663 L 311.306 340.953 L 302.006 350.243 L 292.726 340.943 L 302.016 331.663 Z M 298.916 340.953 L 302.016 344.053 L 305.116 340.953 L 302.016 337.853 L 298.916 340.953 Z M 243.226 305.663 C 250.539 305.663 255.11 297.746 251.454 291.413 C 249.757 288.473 246.62 286.663 243.226 286.663 C 235.913 286.663 231.343 294.579 234.999 300.913 C 236.696 303.852 239.832 305.663 243.226 305.663 Z M 243.226 301.663 C 238.992 301.663 236.346 297.079 238.463 293.413 C 239.446 291.711 241.261 290.663 243.226 290.663 C 247.46 290.663 250.106 295.246 247.99 298.913 C 247.007 300.614 245.191 301.663 243.226 301.663 Z M 243.226 224.663 C 239.084 224.663 235.726 228.02 235.726 232.163 L 235.726 273.163 C 235.726 278.936 241.976 282.544 246.976 279.658 C 249.297 278.318 250.726 275.842 250.726 273.163 L 250.726 232.163 C 250.726 228.02 247.369 224.663 243.226 224.663 Z M 239.726 232.163 C 239.726 229.468 242.643 227.784 244.976 229.131 C 246.059 229.757 246.726 230.912 246.726 232.163 L 246.726 273.163 C 246.726 275.857 243.81 277.541 241.476 276.194 C 240.393 275.568 239.726 274.413 239.726 273.163 L 239.726 232.163 Z M 234.556 202.813 C 238.181 196.523 247.256 196.517 250.89 202.801 C 250.892 202.805 250.894 202.809 250.896 202.813 L 309.026 303.513 C 312.66 309.797 308.128 317.658 300.868 317.663 C 300.864 317.663 300.86 317.663 300.856 317.663 L 184.596 317.663 C 177.337 317.667 172.795 309.812 176.42 303.523 C 176.422 303.519 176.424 303.516 176.426 303.513 L 234.556 202.813 Z M 247.426 204.813 C 245.335 201.198 240.118 201.198 238.026 204.813 L 179.896 305.513 C 177.803 309.13 180.41 313.658 184.59 313.663 C 184.592 313.663 184.594 313.663 184.596 313.663 L 300.856 313.663 C 305.036 313.663 307.656 309.133 305.556 305.513 L 247.426 204.813 Z M 156.726 281.663 C 157.831 281.663 158.726 282.558 158.726 283.663 L 158.726 287.663 L 162.726 287.663 C 164.266 287.663 165.228 289.329 164.458 290.663 C 164.101 291.281 163.441 291.663 162.726 291.663 L 158.726 291.663 L 158.726 295.663 C 158.726 297.202 157.06 298.164 155.726 297.395 C 155.108 297.037 154.726 296.377 154.726 295.663 L 154.726 291.663 L 150.726 291.663 C 149.187 291.663 148.225 289.996 148.994 288.663 C 149.352 288.044 150.012 287.663 150.726 287.663 L 154.726 287.663 L 154.726 283.663 C 154.726 282.563 155.626 281.663 156.726 281.663 Z"/>
  </g>
</svg>