<svg version="1.2" xmlns="http://www.w3.org/2000/svg" width="1629" height="1527"><path fill-rule="evenodd" d="M766 .1c5.2 0 12.6.6 16.5 1.4 3.9.8 10.6 3.2 15 5.4 4.4 2.1 10.9 6 14.4 8.7 3.6 2.7 8.6 7.6 11.3 10.9 2.6 3.3 6.4 8.9 8.2 12.5 1.9 3.6 4.5 10.1 5.7 14.5 1.8 6.2 2.3 10.5 2.3 19.5 0 7.6-.6 13.7-1.7 18-.9 3.6-3.8 10.8-6.4 16-3.9 7.9-6.1 10.9-13.2 18-6.3 6.3-10.7 9.7-16.6 12.7-4.4 2.3-11.4 5.1-15.5 6.1-4.1 1.1-10.2 2.3-13.5 2.7-3.3.3-9.9.1-14.8-.5-4.8-.5-12-2.2-15.9-3.6-4-1.4-10.4-4.5-14.3-6.9-3.9-2.4-10.2-7.6-14-11.6-3.9-4.1-8.8-10.6-11-14.4-2.1-3.8-5-10.4-6.3-14.5-1.5-4.7-2.5-11.2-2.9-17.5-.4-7.4-.1-12.2 1.1-18.5 1-4.7 2.7-10.7 3.9-13.5 1.2-2.7 3.7-7.7 5.6-11 1.9-3.3 6.7-9.2 10.5-13 3.9-3.9 9.8-8.7 13.1-10.7 3.3-2 8.5-4.6 11.5-5.8 3-1.2 8.2-2.8 11.5-3.5C753.8.8 760.8.1 766 .1zm-16.2 51.4c-3 2.1-5.3 5-7.6 9.5-2.4 4.8-3.2 7.8-3.2 11.5 0 2.8.6 7 1.5 9.5.8 2.5 3.2 6.5 5.2 8.9 2.1 2.4 5.8 5.4 8.3 6.6 2.5 1.3 6.5 2.6 9 3q4.5.7 10-.8c3-.9 7.5-3 9.9-4.9 2.4-1.8 5.7-5.5 7.3-8.3 1.6-3 3.1-7.2 3.4-10.5.5-4 .2-7-1.1-11-1.1-3.3-3.5-7.3-5.9-9.9-2.3-2.4-6.3-5.5-9.1-6.7-3.6-1.7-6.7-2.4-11-2.3-3.3 0-7.4.6-9.2 1.2-1.7.7-5.1 2.6-7.5 4.2zM1254 267.2c12.3-.1 27.9.5 36.5 1.3 8.3.8 20.6 2.4 27.5 3.6 6.9 1.1 19.5 3.8 28 6 8.5 2.1 21.6 5.9 29 8.4 7.4 2.6 18.9 6.9 25.5 9.7 6.6 2.8 16.5 7.3 22 10 5.5 2.8 13.6 7.1 18 9.6s13.2 7.9 19.5 12c6.3 4.1 16.7 11.4 23 16.2 6.3 4.9 16.5 13.3 22.5 18.7 6 5.5 15.7 14.9 21.4 20.9 5.7 6 14.7 16.3 20 22.9 5.3 6.6 13.3 17.4 17.7 24 4.5 6.6 10.5 16.1 13.4 21 2.9 5 8.2 14.9 11.8 22 3.5 7.2 8.5 18 11 24 2.4 6.1 6.2 16.2 8.4 22.5 2.1 6.3 5.2 16.2 6.8 22 1.6 5.8 4.3 17.3 5.9 25.5 1.7 8.3 3.8 20.9 4.8 28 1.3 9.9 1.7 20.5 1.8 44.5 0 20.5-.5 35.3-1.3 42.5-.8 6-2.5 17.1-3.8 24.5-1.4 7.4-4.1 19.8-6.1 27.5-1.9 7.7-5.8 20.5-8.5 28.5-2.8 8-7.5 20.1-10.5 27-3 6.9-8.3 18-11.9 24.8-3.5 6.7-9.4 17-13 23-3.7 5.9-10.2 15.7-14.5 21.7-4.4 6-11.1 14.8-14.9 19.5-3.9 4.7-11.7 13.5-17.4 19.5-5.6 6-15.4 15.5-21.7 21.1-6.3 5.6-15.7 13.4-20.9 17.5-5.2 4.1-14.7 10.8-21 15-6.3 4.2-17.6 11.1-25 15.3-7.4 4.1-20.5 10.7-29 14.5-8.5 3.8-22.7 9.4-31.5 12.4s-23.2 7.3-32 9.5-23.4 5.2-32.5 6.6c-9.1 1.4-23.5 3.1-32 3.7-9.3.7-23.5.9-35.5.6-11-.4-26.1-1.3-33.5-2.2-7.4-.9-21.2-3.1-30.5-5s-22.6-5-29.5-7c-6.9-2-18-5.7-37-12.5H760.2c-314.5 0-356.1-.2-367.2-1.5-6.9-.9-17.9-2.7-24.5-4.1-6.6-1.4-18.1-4.6-25.5-7-7.4-2.5-18.2-6.6-24-9.1-5.8-2.6-15-7.1-20.5-10.1-5.5-3.1-14.5-8.5-20-12.2-5.5-3.7-13.6-9.6-18-13-4.4-3.5-12.9-11.1-18.9-16.9-5.9-5.9-14.4-14.9-18.8-20.1-4.4-5.2-12.1-15.6-17-23-5-7.4-12.5-20.5-16.7-29-4.2-8.5-9.6-20.9-12-27.5-2.3-6.6-5.5-17.2-7.1-23.5-1.6-6.3-3.6-15.5-4.5-20.5-.8-5-1.9-13-2.5-18-.6-5.3-1-42.3-1-90 0-64.6.3-83.5 1.5-93.5.8-6.9 2.6-18.1 4-25 1.5-6.9 4.8-19 7.5-27 2.6-8 7.1-19.7 10-26 2.8-6.3 7.9-16.2 11.2-22 3.3-5.8 8.5-14.1 11.6-18.5 3.1-4.4 8-11.1 11.1-15 3-3.8 11.1-12.8 18.1-19.9 6.9-7 17-16.5 22.5-20.9 5.5-4.4 15.4-11.6 22-15.9 6.6-4.4 18.3-11 26-14.8 7.7-3.8 18.3-8.5 23.5-10.5 5.2-2 14-4.9 19.5-6.5 5.5-1.6 14.5-3.9 20-5s14.9-2.8 21-3.7c10.1-1.6 36.8-1.7 646.5-2.3l11.8-7.8c6.4-4.3 17.5-11 24.7-15 7.2-3.9 18.4-9.6 25-12.5 6.6-3 17.4-7.5 24-10 6.6-2.5 19-6.6 27.5-9 8.5-2.5 21.1-5.7 28-7.1 6.9-1.4 17.5-3.2 23.5-4.1 6-.9 15.3-1.9 20.5-2.4 5.2-.5 19.2-.9 31-.9zm-49 95.3c-7.4 1.3-18.9 4-25.5 5.9-6.6 1.8-16.5 5-22 7.1-5.5 2-17.2 7.2-26 11.5s-22.1 11.9-29.5 16.7c-7.4 4.9-18.2 12.7-24 17.4-5.7 4.6-15.7 13.6-22 19.9-6.3 6.3-15.5 16.5-20.4 22.5-4.8 6.1-12.1 16-16.1 22-4 6.1-9.6 15.3-12.4 20.5-2.9 5.2-7.4 14.2-10 20-2.7 5.8-6.9 16.4-9.4 23.5-2.5 7.2-5.9 18.6-7.6 25.5-1.6 6.9-4 19-5.2 27-1.8 11.6-2.2 19-2.2 37-.1 15.9.4 26.2 1.7 35 .9 6.9 2.5 16.8 3.6 22 1.1 5.2 3.5 14.9 5.4 21.5 1.8 6.6 5 16.5 7.1 22 2 5.5 7.2 17.2 11.5 26 4.4 8.8 10.8 20.5 14.2 26 3.5 5.5 9.5 14.3 13.4 19.5 3.9 5.2 10.9 13.8 15.6 19 4.6 5.2 12.5 13.3 17.4 17.9 4.9 4.6 12.6 11.2 17.2 14.7l8.2 6.4c149.6-.6 160.9-.9 170.5-2.4 6-1 16.8-3.2 24-5.1 7.2-1.8 18.4-5.4 25-8 6.6-2.6 15.6-6.6 20-8.8 4.4-2.2 12-6.5 17-9.6 5-3 13.5-8.9 19-13 5.5-4.2 15.4-13 22-19.6 6.6-6.6 15.4-16.5 19.6-22 4.1-5.5 10.1-14.3 13.4-19.5 3.2-5.2 8.2-14.5 11.1-20.5 2.9-6 6.9-15.5 8.9-21s4.9-15.2 6.5-21.5c1.6-6.3 3.7-16.2 4.6-22 1.6-9.2 1.8-20.4 2.2-90 .2-53.3 0-83.8-.8-92.5-.6-7.1-2.2-18.5-3.5-25.2-1.4-6.8-3.9-16.7-5.6-22-1.7-5.4-4.4-13.2-6-17.3-2.8-7.2-3.2-7.7-11.1-13.6-4.6-3.4-12.1-8.6-16.8-11.6-4.7-3.1-12.8-7.9-18-10.8-5.2-2.9-15.3-7.9-22.5-11-7.2-3.2-19.3-7.8-27-10.3-7.7-2.5-19.2-5.7-25.5-7.1-6.3-1.4-16.2-3.3-22-4.2-6.5-.9-19.4-1.7-34-1.9-12.9-.2-27.3.1-32 .6-4.7.5-14.6 2-22 3.4zm-817.5 23c-5.5.9-15.4 3.3-22 5.2-6.6 1.9-16.9 5.5-23 7.9-6.1 2.5-14.8 6.6-19.5 9.1-4.7 2.6-12.3 7.1-17 10.2-4.7 3.1-11.9 8.2-16 11.5-4.1 3.3-11.3 9.6-15.9 14-4.5 4.5-11.7 12.2-15.9 17.1-4.2 5-10.7 13.7-14.5 19.5-3.8 5.8-9.7 16.1-13.2 23-3.4 6.9-7.6 16.3-9.3 21-1.8 4.7-4.3 12.5-5.7 17.5-1.4 5-3.5 14-4.5 20-1.1 6-2.5 18.4-3.1 27.5-.7 10.4-.9 41.9-.6 85.5.3 44.7.9 71.8 1.6 77 .7 4.4 2.1 12.5 3.2 18s4.1 16.3 6.7 24c2.5 7.7 7.6 20.1 11.3 27.5 3.7 7.4 9.9 18.2 13.7 24 3.9 5.8 10.6 14.8 14.9 20 4.4 5.2 11.8 13.1 16.4 17.4 4.6 4.4 12.5 11 17.4 14.9 5 3.8 13.1 9.4 18 12.5 5 3 14.4 8.1 21 11.3 6.6 3.2 17.2 7.6 23.5 9.7 6.3 2.2 15.6 4.9 20.5 6 5 1.2 13.7 2.9 19.5 3.9 9.8 1.6 32.5 1.7 325 2.1l314.5.3c-11.6-8.8-19-14.9-24-19.1-5-4.3-15.5-14.5-23.6-22.6-8-8.2-18.1-19.4-22.5-24.9-4.4-5.5-11.1-14.5-15-20-4-5.5-10.7-15.8-15-23-4.2-7.1-11.2-20.2-15.5-29-4.2-8.8-9.4-20.3-11.4-25.5-2.1-5.2-5.4-14.7-7.5-21-2.1-6.3-5.2-16.9-7-23.5-1.7-6.6-4.2-17.8-5.5-25-1.3-7.1-3.2-19.5-4.1-27.5-1.3-10.6-1.8-21.7-1.8-41.5 0-19.4.5-31.1 1.8-41.5.9-8 3.1-21.5 4.7-30 1.7-8.5 5-22.2 7.4-30.5 2.3-8.2 6.6-21.3 9.5-29 2.8-7.7 9-21.9 13.6-31.5 4.7-9.6 11.8-22.9 15.7-29.5 4-6.6 10.3-16.5 14.2-22 3.9-5.5 10.6-14.5 15-19.9 4.4-5.5 10.8-13.1 14.3-16.8 3.4-3.7 6.2-7 6.2-7.3 0-.3-128.1-.4-284.8-.4-156.6.1-288.5.5-293.2.9-4.7.5-13 1.6-18.5 2.5zm1110 289.5c-.8 6.9-2.4 17-3.5 22.5s-3.4 15-5.1 21c-1.7 6-5.3 16.6-8 23.5-2.7 6.9-7.5 17.7-10.7 24-3.2 6.3-8.3 15.5-11.4 20.5-3.1 5-8.4 12.8-11.8 17.5-3.5 4.7-9.8 12.5-14 17.5-4.3 5-12.2 13.3-17.6 18.5-5.5 5.2-13.8 12.6-18.4 16.3-4.7 3.8-13.5 10.2-19.5 14.2s-15.3 9.7-20.5 12.5c-5.2 2.8-14.9 7.5-21.5 10.5-6.6 2.9-18.3 7.3-26 9.8-7.7 2.5-19.6 5.7-26.5 7.1-6.9 1.4-18.3 3.2-25.5 4.1-8.1.9-22.7 1.5-39 1.6-24.1.1-25.6.2-20 1.4 3.3.8 11.2 2.2 17.5 3.2 9 1.4 17.5 1.8 39 1.8 17.4 0 30.8-.5 36.5-1.3 5-.7 14.4-2.4 21-3.7 6.6-1.3 17.4-4 24-5.9 6.6-1.9 16.3-5.1 21.5-7.1 5.2-2.1 14.2-6 20-8.7 5.8-2.7 16.1-8.3 23-12.4 6.9-4.1 16.9-10.7 22.2-14.7 5.3-4 14.2-11.2 19.9-16.2 5.6-5 14.5-13.7 19.7-19.5 5.2-5.8 13.2-15.5 17.7-21.5 4.6-6 11.3-16 15-22 3.7-6 9.5-16.8 13-24 3.5-7.1 8.1-18 10.4-24 2.3-6 5.5-15.7 7.1-21.5 1.7-5.8 4.2-15.9 5.5-22.5 1.4-6.6 3.1-17.8 4-25 .8-7.4 1.5-21.4 1.5-32.5 0-10.8-.7-25.1-1.5-32-.8-6.9-2.1-16.3-3-21-.9-4.7-3.2-14.6-5.1-22-1.9-7.4-5.8-19.3-8.6-26.5-2.9-7.1-7.7-18-10.8-24-3.1-6-6.4-12.1-7.3-13.5-1.6-2.4-1.7 1.7-1.7 79.5 0 65.8-.3 84.5-1.5 94.5zM71.5 293.1c2.2-.1 5.7.4 7.8.9 2 .6 5.1 2.2 6.9 3.8 1.7 1.5 4 4.5 4.9 6.7 1.8 3.8 1.9 10.2 1.9 232l8.2 3.8c4.6 2 11.4 6.1 15.2 9 3.8 2.8 9.1 7.9 11.8 11.2 2.6 3.3 6.4 9.1 8.3 13 1.9 3.9 4.4 10.6 5.5 15 1.9 7.7 2 11.3 2 90.5s-.1 82.8-2 90.5c-1.1 4.4-3.6 11.1-5.5 15-1.9 3.9-5.7 9.7-8.3 13-2.7 3.3-7.7 8.2-11.3 10.9-3.5 2.7-10 6.6-14.4 8.7-4.5 2.1-11.7 4.6-16.5 5.5-6.1 1.2-11.1 1.5-18 1.1-5.7-.3-12.5-1.5-17-2.9-4.1-1.3-10.6-4.1-14.5-6.2-4.6-2.6-10-6.9-15.5-12.5-6.7-6.7-9.5-10.5-12.8-17.1-2.3-4.7-5-11.4-6-15C.6 764.1.5 756.3.5 679s.1-85.1 1.7-91c1-3.6 3.7-10.3 6-15 3.3-6.6 6.1-10.4 12.8-17.1 5.2-5.3 11-10 15-12.2 3.6-2 8.6-4.3 16-6.7V422c0-113 0-115.1 2-119 1.1-2.2 3.2-4.8 4.8-5.9 1.5-1 4.1-2.3 5.7-2.9 1.7-.6 4.8-1.1 7-1.1zM53.9 587.9c-2.8 2.9-5.2 6.4-6.2 9.6C46.1 602 46 609.6 46 679s.1 77 1.7 81.5c1.1 3.2 3.4 6.7 6.2 9.6 2.9 2.8 6.4 5.1 9.6 6.2 2.8 1 7 1.7 9.5 1.7 2.6 0 6.6-1 9.5-2.4 2.8-1.2 6.8-4.3 8.9-6.7 2.2-2.4 4.7-6 5.5-7.9 1.4-3.1 1.6-12.9 1.6-82s-.2-78.9-1.6-82c-.8-1.9-3.3-5.5-5.5-7.9-2.1-2.4-5.7-5.3-7.9-6.4-2.3-1.1-6.6-2.1-10-2.3-3.9-.2-7.6.2-10.5 1.3-2.5.9-6.6 3.7-9.1 6.2zm1377.2 387.9c.3.4 8.8 24.8 18.7 54.2 10 29.4 18.8 55.6 19.7 58.3.8 2.6 2.1 4.7 2.7 4.7.7 0 4.7 1.6 8.8 3.7 4.5 2.3 9.7 5.9 13.1 9.3 3.1 3 6.9 8 8.4 11s26.5 75 107.9 314.5l.1 26.2-4.2 8.4c-2.9 5.8-6 10.2-10 14.2-3.2 3.1-8.1 6.9-10.8 8.4-2.8 1.5-12.9 5.3-22.5 8.5-13.5 4.6-19.3 6.1-25.5 6.5-5.6.3-10.1 0-15-1.2-3.9-.9-9.7-3.1-12.9-4.8-3.3-1.8-8.2-5.5-11-8.2-2.8-2.8-6.4-7.3-8-10-1.7-2.9-25.5-71.3-108.9-317l-.1-11.5c0-9.9.3-12.3 2.4-17.5 1.3-3.3 4.3-8.8 11-18.5l-17-50.2c-9.4-27.7-16.9-50.9-16.8-51.6.2-.7 15.8-9.6 34.8-19.7 18.9-10.1 34.7-18.1 35.1-17.7zM770 163.4c78.1.2 78.5.2 86.5 2.4 4.4 1.3 11.6 4.2 16 6.5 5.8 3 10.2 6.3 16 12.2 4.4 4.4 9.7 10.9 11.8 14.5 2.1 3.6 4.9 10.1 6.4 14.5 2.3 7 2.7 9.7 2.7 21.5.1 11.5-.3 14.6-2.2 21-1.3 4.1-4 10.7-6 14.5-2.5 4.8-6.3 9.6-12.2 15.5-4.7 4.7-11 10-14 11.7-3 1.8-8.7 4.4-12.5 5.8-3.9 1.3-10.6 2.9-15 3.5-5.4.8-34 1-87.5.8-71.6-.3-80.1-.5-85.5-2.1-3.3-.9-10.3-3.8-15.5-6.4-7.7-3.8-11-6.2-17.6-12.7-6.5-6.6-8.9-9.9-12.7-17.6-2.6-5.2-5.5-12.4-6.4-16-1.1-4.2-1.7-10.4-1.7-17.5 0-7.2.6-13.2 1.7-17.5 1-3.6 3.3-9.6 5.1-13.5 1.8-3.8 5.5-9.9 8.2-13.4 2.7-3.6 7.6-8.7 10.9-11.3 3.3-2.7 9.6-6.7 14-8.8 4.4-2.1 10-4.4 12.5-5 2.5-.7 7.6-1.6 11.5-2 3.8-.4 42.3-.7 85.5-.6zm-95.3 53.3c-2.1 2.1-4.8 5.6-6 7.8-1.6 3-2.1 5.8-2.2 11 0 6 .4 7.8 3.1 12.5 2 3.7 4.7 6.6 8 8.8 2.7 1.8 6.5 3.7 8.4 4.2 2 .6 34.9 1 79 1 63.4 0 76.3-.2 80.5-1.4 2.8-.9 6.9-3.2 9.4-5.3 2.4-2.2 5.4-6.2 6.9-9.3 2.2-4.7 2.5-6.5 2.1-12-.4-4.6-1.3-7.9-3.2-11.2-1.5-2.7-4.6-6.2-7-7.9-2.3-1.6-6.5-3.7-9.2-4.5-4.2-1.2-17.1-1.4-80-1.4-71.6.1-75.3.2-80.5 2-3.2 1.1-7.1 3.5-9.3 5.7zM292.5 1073c5 0 11 .7 16 2 4.4 1.2 11.1 3.8 15 5.8 4.2 2.2 9.6 6.3 13.5 10.2 3.9 3.9 8 9.3 10.2 13.5 2 3.8 4.6 10.6 5.8 15 1.9 7.7 2 10.6 2 78.5 0 67.4-.1 70.9-2 78.5-1.1 4.4-3.4 10.9-5.2 14.5-2.2 4.6-5.5 8.9-11.2 14.5-5.6 5.6-10.1 9.1-14.6 11.2-3.6 1.8-9.4 4-13 4.9-4 1.1-10.2 1.8-16 1.8-5.8 0-12-.7-16-1.8-3.6-.9-9.4-3.1-13-4.9-4.5-2.1-9-5.6-14.6-11.2-5.7-5.6-9-9.9-11.2-14.5-1.8-3.6-4.1-10.1-5.2-14.5-1.9-7.6-2-11.1-2-78.5 0-67.9.1-70.8 2-78.5 1.2-4.4 3.8-11.2 5.8-15 2.2-4.2 6.3-9.6 10.2-13.5 3.9-3.9 9.3-8 13.5-10.2 3.8-2 10.4-4.6 14.5-5.7 4.3-1.1 10.9-2 15.5-2.1zm-12.3 45.2c-1.7 1.8-4.4 6-6 9.3l-2.7 6c0 124.8.1 128.3 1.9 133.5 1.1 3 3.6 7.3 5.5 9.4 2 2.2 5.4 4.7 7.6 5.7 2.2 1 5.3 1.8 7 1.8 1.6 0 4.5-.6 6.3-1.2 1.8-.7 4.8-2.8 6.8-4.7 1.9-1.9 4.5-6 5.7-9 2.2-5.5 2.2-5.9 2.2-71v-65.5c-4.9-10.4-7.5-14-9.6-15.7-1.8-1.4-5.2-3.1-7.4-3.7-2.2-.6-4.5-1.1-5-1.1-.6.1-2.8.7-5 1.5s-5.5 3-7.3 4.7zm374.8-45.1c4.1 0 10.6.6 14.5 1.4 3.8.9 10.4 3.2 14.5 5.2 5.5 2.6 9.5 5.6 15.1 11.2 5.2 5.2 8.7 9.8 11.2 14.6 1.9 3.8 4.3 9.7 5.3 13 1.6 5.5 1.8 12.1 2.2 74 .2 45.4-.1 70.7-.8 76-.6 4.4-2.2 11.2-3.5 15-1.4 3.8-4.6 10.1-7.2 13.9-2.7 3.8-7.1 8.9-9.8 11.3-2.8 2.4-8.6 6.1-13 8.3-4.4 2.1-10.5 4.4-13.5 5.1-3 .7-9.8 1.3-15 1.3-5.8-.1-12-.7-16-1.8-3.6-1-9.7-3.4-13.5-5.4-4.4-2.3-9.6-6.2-14-10.7-4.9-4.9-8.2-9.3-10.8-14.5-2-4.1-4.5-10.4-5.4-14-1.6-5.9-1.8-13-1.8-79 0-66.8.1-73 1.8-79 1-3.6 3.2-9.4 5-13 2.1-4.5 5.6-9 11.2-14.6 6.1-6.2 9.8-9 15.5-11.7 4.1-2 10.4-4.3 14-5.1 3.6-.8 9.9-1.5 14-1.5zm-9 42.6c-1.9 1.2-4.7 3.9-6.3 6.2-1.5 2.3-3.5 6.5-4.5 9.4-1.5 4.7-1.7 10.8-1.7 66.7 0 54.6.2 62.1 1.7 67 .9 3 3.1 7.5 5 10 1.8 2.5 5.3 5.5 7.8 6.8 3.6 1.9 5.5 2.2 9.5 1.8 2.7-.4 6.3-1.4 8-2.4 1.6-1 4.5-4 6.3-6.7 1.8-2.8 3.7-7.2 4.3-10 .6-3.1.8-29.3.7-69l-.3-64c-3.9-8.4-6.7-12.3-8.8-14.2-2-1.8-5.4-3.7-7.5-4.3-2-.5-4.2-1-4.7-.9-.6 0-2.1.4-3.5.8s-4.1 1.7-6 2.8zm-561-39.4c28.7.3 35.8.7 42 2.1 4.1 1 10.9 3.4 15 5.4 5.1 2.4 9.3 5.3 13 9.1 3 3.1 6.9 8.3 8.7 11.6 1.7 3.3 4.1 9.4 5.3 13.5 1.1 4.1 2.6 13.3 3.2 20.5.9 10 .9 15.9 0 25.5-.6 6.9-2.1 15.7-3.2 19.5-1.1 3.8-3.1 9.3-4.4 12-1.4 2.8-4.6 7.4-7.3 10.4-2.6 3-7.5 7.2-10.8 9.3-3.3 2.1-7.2 4-8.8 4.3-1.5.3-2.9 1.1-3.2 1.8-.3.6 7.3 20.7 17 44.5 9.6 23.7 17.5 44.4 17.5 46 0 1.6-1 3.7-2.6 5.2-2.5 2.5-2.8 2.5-18.8 2.5q-16.3 0-17.7-1.2c-.8-.6-9.7-21.8-38.4-93.3H85v44c0 33.2-.3 44.6-1.3 46.5-.6 1.4-2.6 3-4.2 3.5-1.7.6-8.4 1-15 1s-13.5-.4-15.3-1c-1.7-.5-3.7-1.9-4.2-3-.6-1.3-1-42.7-1-118 0-88.7.3-116.5 1.2-118.1.7-1.1 2.1-2.4 3.3-2.9 1.1-.6 16.5-.8 36.5-.7zm0 108.7c31.6-.5 33.9-.7 37-2.6 1.9-1.1 4.5-3.6 5.8-5.5 1.3-1.9 2.8-5.2 3.4-7.4.7-2.2 1.2-10.7 1.2-19 0-8.2-.5-16.8-1.2-19-.6-2.2-2.1-5.6-3.4-7.5-1.3-1.9-4.1-4.4-6.3-5.5-3.4-1.7-6.4-2.1-20.2-2.3l-16.1-.4zm370-108.6c30.7.2 36.2.5 41 2.1 3 .9 7.7 2.9 10.5 4.3 2.7 1.4 7.9 5.5 11.5 9.1 4 4 8 9.4 10.2 13.6 2 3.9 4.7 10.6 5.9 15 1.9 6.7 2.3 10.4 2.3 22 0 10.3-.5 15.8-1.8 20.5-1 3.6-3.2 9.4-5 13-1.7 3.5-5.4 8.8-13.1 16.9l3.8 4.3c2.1 2.4 5.3 7 7.2 10.3 1.9 3.3 4.3 8.7 5.5 12 1.1 3.3 2.8 9.2 3.7 13 1 4.7 1.5 11.9 1.5 21.5 0 11.7-.4 16.1-2.1 22.5-1.2 4.4-3.9 11.4-5.9 15.5-2.3 4.7-5.9 9.8-9.7 13.7-4 4.1-8.2 7.2-12.5 9.2-4 1.9-9.4 3.5-14 4.1-4.1.5-22.1 1-40 1-19.4 0-33.8-.3-35.8-1-1.8-.5-3.7-1.9-4.2-3-.7-1.3-1-42.6-1-118 0-88.7.3-116.5 1.2-118 .6-1.2 2.1-2.5 3.2-3 1.2-.5 17.2-.8 37.6-.6zm-1 101.6c23.9-.5 24.9-.6 28.8-3.2 2.3-1.5 5.5-4.9 7.2-7.5 1.7-2.6 3.8-7.2 4.7-10.3.8-3 1.5-8.8 1.5-13 0-4.1-.5-9.5-1.2-12-.6-2.4-2.3-6.2-3.6-8.2-1.3-2.1-4.3-4.8-6.7-6-3.5-1.8-6.3-2.2-17.4-2.6l-13.1-.4zm0 101c22.3 0 28.9-.5 30.3-1.1 1.2-.6 3.7-2.6 5.5-4.3 1.8-1.7 4-5.4 5-8.1 1.1-3.4 1.7-8 1.7-14-.1-5.4-.7-11.2-1.7-14.5-1-3-3.1-7.6-4.7-10.3-2-3-4.6-5.5-7.3-6.9-3.5-1.7-6.6-2.2-16.4-2.6l-12.1-.5zm463.8-202.8c15 .3 15.4.4 17.3 2.8 1.9 2.5 2 4.8 1.9 200l53.2.5 1.9 2.5c1.8 2.3 2 4.1 1.9 17.8 0 13.9-.2 15.4-2 17.2-1.1 1.1-3.5 2.3-5.3 2.6-1.7.3-21.7.4-44.4.2-39.5-.3-41.2-.4-45.4-4.3l-.1-235.3 2.8-2.2c2.7-2 3.8-2.1 18.2-1.8zm189.4-.1c17.9-.1 25.5.3 27.4 1.2 1.5.8 2.9 2.6 3.5 4.7.5 2 9.3 53.9 19.4 115.5 10.2 61.6 18.5 113.2 18.5 114.5.1 1.4-.8 3.7-1.9 5-1.9 2.4-2.4 2.5-15.8 2.9-8.1.2-15.3-.1-17.6-.8-2.9-.8-3.9-1.8-4.7-4.3-.5-1.8-2.5-11.8-4.5-22.3-2-10.4-3.8-20-4.5-23.5l-39.5.5-4.1 22.5c-2.3 12.4-4.5 23.3-5 24.3s-2.3 2.2-3.9 2.8c-1.7.5-8.6.9-15.5.8-6.9 0-13.6-.4-15-.8-1.4-.4-3.1-1.8-3.9-3.1-1.3-2.2.3-13.5 17.3-117.5 10.3-63.2 19.1-116.1 19.6-117.5.5-1.3 2-3 3.2-3.7 1.6-.8 10.1-1.2 27-1.2zm-12.7 152.9h25.5c-1-7.3-3.8-25-6.9-44l-5.7-34.5zm178.5-152.7c22.9.3 37.1.9 40 1.7 2.5.6 7.4 2.6 11 4.4 3.9 1.9 8.9 5.5 12.5 9.2 3.9 3.8 7.5 8.8 10.2 14 2.3 4.4 4.8 10.4 5.7 13.5.9 3 2 9.5 2.6 14.5q1 9 0 18c-.6 4.9-2 11.9-3.1 15.5-1.1 3.5-3.3 8.7-4.9 11.5-1.5 2.7-4.8 7.1-12 14.5l4.6 5.2c2.5 2.9 6.4 8.9 8.5 13.3 2.2 4.4 4.9 11.6 6 16 1.4 5.3 2.3 12.5 2.6 22 .5 10.9.2 15.8-1.1 22.5-1 4.6-3.1 11.6-4.7 15.5-1.6 3.8-4.9 9.7-7.4 13-2.5 3.3-6.4 7.5-8.8 9.3-2.3 1.9-6.7 4.5-9.7 5.9-3 1.3-9.1 2.8-13.5 3.4-4.4.5-23.1.8-41.6.6-32.1-.2-33.8-.3-38-4.2l-.1-235.4 2.8-2.2c2.9-2.1 3.2-2.1 38.4-1.7zm-1 101.8c18.7 0 23.1-.5 25.8-1.6 2-.9 5.2-3 7-4.7 1.9-1.8 4.4-5.3 5.7-7.7 1.2-2.5 2.8-7 3.5-10 .8-3.4 1.1-8.7.8-13.5-.3-4.4-1.3-9.8-2.2-12-.9-2.2-2.9-5.3-4.4-6.9-1.5-1.5-4-3.5-5.7-4.4-2.1-1.1-6.8-1.7-16.6-2.1l-13.6-.4zm0 101c24.2 0 28.9-.4 31.5-1.5 1.9-.8 4.7-3.2 6.2-5.3 1.6-2 3.4-6 4.2-8.7 1-3.5 1.2-8 .8-15-.3-6.1-1.2-11.9-2.4-14.9-1-2.6-3.4-6.6-5.3-8.8-2-2.3-4.9-4.8-6.5-5.6-2.1-1-7.1-1.7-15.6-2l-12.7-.5zm-461.5-138.3c3.9.3 10.4 1.6 14.5 2.9 4.7 1.4 10.2 4.2 14.5 7.2 3.9 2.7 9 7.3 11.4 10.3 2.5 3 5.9 8.6 7.7 12.4 1.8 3.9 3.8 10 4.5 13.5.8 3.9 1 9.9.7 15-.3 4.7-1.5 11.2-2.6 14.5-1.2 3.3-4 9-6.3 12.5-2.3 3.6-6.5 8.7-9.3 11.3-2.8 2.7-8 6.3-11.6 8.2-3.5 1.8-8.9 4.1-12 4.9-3.3 1-9.2 1.6-15 1.6-5.3 0-12-.6-15.5-1.5-3.3-.9-9.1-3.3-12.9-5.3-4.5-2.4-9.2-6.1-13.5-10.7-4-4.2-7.9-9.6-9.8-13.5-1.7-3.5-3.9-9.6-4.8-13.5-1.2-4.9-1.5-9.5-1.2-15.5.3-4.6 1.5-11.4 2.6-15 1.1-3.5 3.9-9.3 6.1-12.7 2.2-3.5 6.4-8.5 9.3-11.3 2.9-2.7 8.2-6.5 11.7-8.4 3.6-1.8 8.3-3.9 10.5-4.6 2.2-.7 6.3-1.6 9-2 2.8-.5 8.2-.6 12-.3zm-17.5 47c-1.2 1.5-2.6 4.4-3.2 6.3-.8 2.6-.8 4.6.1 7.8.6 2.3 2.4 5.6 3.9 7.4 1.5 1.7 4 3.7 5.5 4.5 1.5.7 4.8 1.3 7.2 1.3 2.5 0 5.8-.6 7.3-1.3 1.5-.8 4.2-3 6-5 1.9-2.2 3.5-5.2 3.9-7.4.3-2.1.3-5.2 0-7-.4-1.8-2.1-4.9-3.9-6.9-1.8-2-4.5-4.2-6-5-1.5-.8-4.9-1.4-7.5-1.4-2.8 0-6.1.8-8 1.9-1.8 1.1-4.2 3.2-5.3 4.8zm427-778.1c7.5.3 18.3 1.2 24 2 5.8.9 14.8 2.6 20 3.9 5.3 1.3 13.8 4 19 5.9 5.3 1.9 13.1 5.1 17.5 7.1s12.3 6.2 17.5 9.3c5.3 3.1 13.4 8.5 18 12.1 4.7 3.5 11.7 9.2 15.4 12.5 3.8 3.4 10.7 10.4 15.4 15.6 4.6 5.3 12 14.9 16.5 21.5 4.4 6.6 10.4 16.8 13.2 22.5 2.9 5.8 7 15 9 20.5 2.1 5.5 5 15 6.6 21 1.5 6.1 3.5 17.1 4.5 24.5 1.3 10.3 1.6 17.9 1.2 31.5-.3 9.9-1.3 22.1-2.2 27-.9 5-2.7 13.3-4 18.5-1.4 5.3-3.8 13.4-5.6 18-1.7 4.7-5.2 13-7.8 18.5-2.7 5.5-7.2 13.9-10.1 18.5-2.9 4.7-7.8 11.9-10.9 16-3.1 4.2-10.3 12.4-16.1 18.4-5.8 6-14.8 14.4-20.1 18.6-5.2 4.1-13.7 10.2-19 13.5-5.2 3.2-14.6 8.3-21 11.3-6.3 3.1-16.6 7.2-23 9.3-6.3 2.1-16 4.7-21.5 5.8-5.5 1.1-13.8 2.5-18.5 3.1-4.6.6-15.3 1-23.7 1-8.4 0-20.3-.6-26.5-1.4-6.2-.9-16.9-2.9-23.8-4.7-6.8-1.7-16.3-4.6-21-6.4-4.6-1.8-11.6-4.7-15.5-6.4-3.8-1.8-11-5.6-16-8.5-4.9-2.9-13.5-8.7-19-12.8-5.5-4-14-11.2-19-16-4.9-4.7-12.3-12.7-16.5-17.7-4.1-5-10.1-13.1-13.3-17.9-3.2-4.8-8.7-14.5-12.2-21.7-3.5-7.1-8.2-18.4-10.5-25-2.2-6.6-5.1-17.4-6.5-24-1.3-6.6-2.9-17.8-3.5-25-.7-7.8-.9-18-.5-25.5.4-6.8 1.5-17.6 2.6-24 1-6.3 3.2-16.3 4.9-22.2 1.7-5.9 4.4-14.1 6-18.3 1.7-4.1 5.3-12.1 8.2-17.7 2.8-5.7 7.6-14.1 10.6-18.8 3-4.6 7.6-11.2 10.1-14.5 2.5-3.3 9.3-10.9 15.1-16.8 5.8-6 14.4-13.9 19-17.6 4.7-3.8 12.4-9.3 17-12.4 4.7-3 14.6-8.4 22-12 7.5-3.6 18.5-8.2 24.5-10.1 6.1-2 16.4-4.8 23-6.1 6.6-1.3 16.8-2.9 22.5-3.4 5.8-.5 16.6-.7 24-.5zm-46.5 50.9c-5.5 1.5-13.8 4.3-18.5 6.2-4.6 1.8-12.5 5.6-17.5 8.4-4.9 2.7-13 8-18 11.7-4.9 3.7-13 10.8-18 15.8-4.9 5-12 13.3-15.7 18.5-3.7 5.2-9.4 14.8-12.7 21.4-3.3 6.6-7.3 16.1-9 21-1.6 5-3.9 13.8-5.2 19.5-1.9 8.9-2.2 13.5-2.2 30.5 0 16.7.3 21.7 2.1 30 1.2 5.5 3.6 14.3 5.3 19.5 1.7 5.3 5.1 13.6 7.4 18.5 2.4 5 7.6 14 11.6 20 5.2 7.9 10.9 14.6 19.9 23.6 8.4 8.4 15.9 14.7 22.5 19.2 5.5 3.6 14.8 8.9 20.5 11.6 5.8 2.8 14.1 6.2 18.5 7.7 4.4 1.4 12 3.5 16.8 4.5 4.8 1.1 14.3 2.4 21 3 8.8.8 15.6.7 24.2 0 6.6-.7 16.3-2.1 21.5-3.2 5.3-1.2 13.1-3.4 17.5-4.9 4.4-1.6 11.2-4.3 15-6 3.9-1.7 10.9-5.4 15.5-8.3 4.7-2.8 13-8.7 18.5-13.1 5.5-4.5 13.5-12.1 17.8-17.1 4.3-4.9 10.4-12.8 13.6-17.5 3.1-4.6 7.7-12.7 10.3-18 2.6-5.2 6.3-14.2 8.2-20 1.9-5.7 4.2-14.5 5.2-19.5.9-4.9 2-13.7 2.4-19.5.4-5.7.4-15.6 0-22-.5-6.3-1.8-15.7-2.9-21-1.1-5.2-3.2-13.1-4.7-17.5-1.4-4.4-4.6-12.2-7-17.5-2.5-5.2-7.9-14.6-12.1-21-5.4-8.1-11-14.8-19.2-23-6.4-6.3-15.6-14.3-20.6-17.8-4.9-3.5-13.7-8.7-19.5-11.7-5.7-2.9-15.2-6.9-21-8.8-5.7-2-15.2-4.5-21-5.7-7.1-1.5-15.4-2.3-26-2.5-9.7-.3-19 .1-25 1-5.2.7-14 2.5-19.5 4zm-730.5-2c11.6.2 23.4 1 29 2 5.3.9 14.7 3 21 4.6 6.4 1.7 16 4.9 21.5 7.1 5.5 2.1 14.8 6.4 20.5 9.5 5.8 3.1 13.7 7.7 17.5 10.3 3.9 2.6 10.6 7.6 15 11.1 4.4 3.4 12.3 10.6 17.5 15.9 5.3 5.3 12.9 14.1 17.1 19.6 4.2 5.4 10.1 14.2 13.2 19.4 3.1 5.3 7.3 13.1 9.3 17.5 2 4.4 5.2 12.3 7.1 17.5 1.9 5.3 4.5 13.8 5.9 19 1.3 5.3 3.1 14.3 4 20 1.2 7.3 1.7 16.7 1.8 30.5 0 16.5-.4 22.3-2.3 33-1.2 7.2-3.6 17.6-5.2 23.3-1.6 5.6-4.2 13.7-5.9 18-1.7 4.2-5.4 12.2-8.1 17.7-2.8 5.5-7.5 13.9-10.6 18.5-3 4.7-8.3 12.1-11.8 16.5-3.4 4.4-10.7 12.5-16.1 17.9-5.4 5.4-13.9 12.9-18.9 16.7-4.9 3.7-13 9.3-18 12.4-4.9 3.2-13.5 7.9-19 10.5-5.5 2.7-15.4 6.7-22 8.9-6.6 2.3-17.4 5.2-24 6.6-6.6 1.4-17.6 3-24.5 3.6-7 .7-18.4.9-26 .6-7.4-.3-19.1-1.6-26-2.7-6.8-1.2-16.7-3.4-22-4.9-5.2-1.6-13.7-4.5-19-6.5-5.2-2-14-6-19.5-8.9-5.5-2.9-14-8-19-11.3-4.9-3.3-13-9.4-18-13.6-4.9-4.1-12.3-11-16.3-15.4-4.1-4.3-10.2-11.5-13.7-15.9-3.4-4.4-8.5-11.6-11.2-16-2.7-4.4-7.2-12.5-10-18-2.7-5.5-6.7-14.5-8.7-20-2.1-5.5-5-14.9-6.6-21-1.5-6-3.5-16.5-4.4-23.2-.8-6.8-1.5-18.7-1.5-26.5 0-7.9.4-18.3 1-23.3.6-4.9 1.9-13.5 3-19s4.1-16 6.6-23.5c2.4-7.4 6.9-18.4 9.9-24.5 2.9-6 8.4-15.7 12.2-21.5 3.8-5.7 10.3-14.5 14.4-19.5 4.2-4.9 10.9-12.2 15-16.1 4-3.9 10.3-9.5 13.8-12.4 3.6-2.9 9.7-7.4 13.5-10 3.9-2.6 10.9-6.8 15.5-9.4 4.7-2.6 13-6.7 18.5-9 5.5-2.4 14.5-5.7 20-7.5 5.5-1.7 14.5-4 20-5.1 5.5-1.1 13.4-2.4 17.5-2.9 4.2-.5 16.3-.8 27-.6zm-44 50.6c-4.1 1.1-10.6 3.2-14.5 4.6-3.8 1.5-11 4.6-16 7.1-4.9 2.5-12.3 6.7-16.5 9.5-4.1 2.7-11.3 8.2-15.9 12.1-4.7 3.9-11.8 11-15.9 15.6-4 4.7-9.8 12.1-12.7 16.5-2.9 4.4-7.3 12.1-9.8 17-2.5 5-5.7 12.2-7.1 16-1.5 3.9-3.7 11.3-5 16.5-1.4 5.3-3 13.6-3.6 18.5-.8 5.7-1 15.4-.7 26 .5 13.2 1.2 19.4 3.1 27.5 1.3 5.8 3.4 13.5 4.6 17 1.2 3.6 5.1 12.4 8.6 19.5 3.5 7.2 9.5 17.3 13.2 22.4 3.7 5.2 10.8 13.6 15.7 18.6 5 5 13.1 12.1 18 15.8 5 3.7 13.1 9 18 11.7 5 2.7 13.1 6.6 18 8.6 5 2 14 4.9 20 6.5 6.1 1.5 15.8 3.3 21.5 4 6.2.7 15.9 1 23.5.7 7.2-.3 18-1.6 24-2.8 6.1-1.2 15.5-3.7 21-5.7 5.5-1.9 14.1-5.5 19-8 5-2.5 12.2-6.5 16-9 3.9-2.5 10.2-7.1 14-10.3 3.9-3.2 10-8.9 13.7-12.6 3.7-3.8 9.9-11.1 13.8-16.4 3.9-5.2 9.7-14.6 13-21 3.2-6.3 7.2-15.3 8.8-20 1.7-4.6 3.9-12.5 5.1-17.5 1.1-4.9 2.6-13.7 3.2-19.5.7-6.2 1-15.4.6-22.5-.3-6.6-1.5-16.9-2.7-23-1.2-6-3.7-15.5-5.6-21-2-5.5-5.4-13.8-7.7-18.5-2.2-4.6-7.2-13.2-11.1-19-3.9-5.8-11.5-15.1-17-20.8-5.5-5.7-14.1-13.4-19.1-17.2-4.9-3.7-13-9.1-18-11.9-4.9-2.8-13.5-6.9-19-9-5.5-2.2-13.6-4.9-18-6-4.4-1.2-12.2-2.8-17.5-3.6-5.2-.8-15.7-1.4-23.5-1.4-7.7.1-18 .8-23 1.5-4.9.8-12.3 2.3-16.5 3.5zm288.5 251.5c2.8.3 6.6 1.4 8.5 2.4 2 1 4.3 2.7 5.2 3.7 1 1 2.4 3.4 3.2 5.3.7 2 1.7 8 2.1 13.5.4 5.5 1.3 13.7 2.1 18.3.8 4.5 2.6 11.9 4 16.5 1.5 4.5 4.5 11.8 6.8 16.2 2.3 4.3 6.6 10.5 9.6 13.6 3.8 3.9 7.8 6.8 12.5 9 5.6 2.7 8.7 3.4 15 3.8 5.7.3 9.8-.1 14-1.3 3.3-1 8.3-3.2 11-4.9 2.7-1.7 7.1-5.6 9.8-8.7 2.7-3 6.7-9.1 8.8-13.5 2.2-4.4 5-11.8 6.3-16.5 1.4-4.6 3.2-13.2 4-19 .9-5.7 1.6-12.9 1.7-16 0-3 .5-7.3 1.2-9.4.7-2.2 2.7-5.5 4.5-7.3 2-2 5.3-3.9 8.5-4.8 3.3-1 6.9-1.3 9.7-1 2.5.4 6.3 1.6 8.5 2.8 2.2 1.3 5 4 6.3 6.2 2.2 3.8 2.3 4.7 1.9 18-.3 8.6-1.3 18.3-2.7 25-1.2 6.1-3.5 15.1-5.1 20-1.6 5-4.7 12.6-6.7 17-2.1 4.4-5.9 11.4-8.6 15.5-2.7 4.2-7.8 10.6-11.4 14.4-3.7 3.7-8.7 8.3-11.2 10.1-2.4 1.8-7.8 5-12 7.1-4.1 2-10.8 4.6-15 5.6-5.1 1.4-11.2 2-19.5 2.1-8.3.1-14.4-.4-20-1.7-4.4-1-11.1-3.2-15-5-3.8-1.7-9-4.6-11.5-6.2-2.4-1.7-6.9-5.3-9.9-8s-8.1-8.5-11.4-12.9c-3.2-4.4-8-12.2-10.6-17.5-2.7-5.2-6-12.8-7.4-17-1.4-4.1-3.5-11.5-4.7-16.5-1.2-4.9-2.8-13.7-3.5-19.5-.8-5.7-1.4-13.7-1.4-17.7s.6-8.7 1.3-10.5c.8-1.8 2.7-4.5 4.3-6 1.6-1.5 4.9-3.4 7.3-4.3 2.9-.9 6.4-1.2 9.5-.9zm537-272.9c5.5.2 14.3 1.3 19.5 2.4 5.3 1 12.6 3 16.3 4.4 3.7 1.4 10.2 4.3 14.5 6.4 4.3 2.2 10.9 6.2 14.7 8.9 3.9 2.7 10.1 7.8 13.9 11.4 3.8 3.5 9.8 10.2 13.3 14.8 3.5 4.7 8.6 12.8 11.3 18 2.6 5.3 6 12.9 7.5 17 1.4 4.2 3.6 12 4.8 17.5 1.5 7.3 2.1 13.6 2 23 0 8.5-.6 15.8-1.7 21-1 4.4-3 12.1-4.6 17-1.6 5-5 13.1-7.5 18-2.5 5-6.7 12-9.2 15.5-2.5 3.6-8.7 10.7-13.7 15.9-5.9 6.1-12.7 11.7-19.6 16.3-5.7 3.8-13.6 8.2-17.5 9.8-3.8 1.6-10.8 4-15.5 5.4-4.6 1.3-13 3-18.5 3.7-6.3.8-14.2 1-21.5.6-6.3-.4-15.3-1.5-20-2.6-4.6-1-11.8-3.1-16-4.6-4.1-1.5-11.3-4.7-16-7.1-4.6-2.4-12.3-7.2-17-10.7-4.6-3.5-11.4-9.5-15-13.3-3.5-3.8-8.6-9.8-11.1-13.4-2.6-3.5-6.5-9.8-8.7-14-2.2-4.1-5.6-12.2-7.5-18-2-5.7-4.2-15.2-5.1-21-.8-5.7-1.5-13.6-1.5-17.5-.1-3.8.4-10.8 1-15.5.6-4.6 2.1-12.5 3.4-17.5 1.3-4.9 4.1-13 6.2-18 2.1-4.9 6.8-13.5 10.5-19 3.6-5.5 10.3-13.8 15-18.4 4.6-4.6 11.5-10.6 15.3-13.3 3.9-2.7 11.3-7.1 16.5-9.7 5.3-2.7 13.1-6 17.5-7.3 4.4-1.4 10.3-3 13-3.7 2.8-.6 8.6-1.5 13-2s12.5-.7 18-.4zm-31.5 46.8c-4.1 1.4-10.2 4.1-13.5 6-3.3 1.9-8.6 5.5-11.7 8-3.2 2.5-8.3 7.6-11.4 11.3-3 3.7-7.5 10.8-9.9 15.7-2.5 5-5.4 12.6-6.5 17-1.4 5.5-2 11.3-2 18.5.1 6.8.7 13.3 2 18.5 1 4.4 3 10.5 4.3 13.5 1.3 3.1 4.1 8.2 6.2 11.5 2.1 3.3 6.6 8.9 9.9 12.4 3.4 3.5 8.8 8.3 12.1 10.7 3.3 2.4 9.2 5.7 13 7.5 3.9 1.7 10.4 4 14.5 5.1 5.4 1.4 10.9 1.9 19 1.9 8.5 0 13.7-.5 19.5-2 4.4-1.2 11.6-3.9 16-6.1 4.4-2.2 10.9-6.3 14.3-9 3.4-2.7 8.8-8 11.8-11.7 3.1-3.7 7.8-11.3 10.5-16.8 2.6-5.5 5.6-12.9 6.5-16.5.9-3.5 1.9-10.3 2.2-15 .4-6 0-11-1.2-17-.9-4.6-3.1-12.1-4.8-16.5-1.7-4.4-5.3-11.1-7.8-15-2.6-3.8-8.3-10.3-12.6-14.5-4.4-4.1-10.6-9-13.9-11-3.3-1.9-8.9-4.5-12.5-5.8-3.5-1.3-9.7-3-13.7-3.8-4-.7-10.7-1.3-15-1.3-4.3.1-10 .5-12.8 1-2.7.5-8.3 2-12.5 3.4z" fill="#263c5b"/><path d="M780 1400.5c6.3.2 14 1.1 17 2 3 .8 7.4 2.6 9.8 4 2.3 1.4 4.2 3.1 4.2 3.8 0 .6-1.3 2.5-5.9 7.2l-2.8-2.2c-1.5-1.2-5.7-2.9-9.3-3.7-3.6-.9-10.5-1.6-15.5-1.6-5.5 0-11.2.6-14.5 1.6-3.8 1.1-6.8 2.9-9.6 5.8-2.5 2.4-4.6 5.8-5.3 8.1-.6 2.2-1.1 5.2-1.1 6.8 0 1.5.6 4.2 1.3 6 .8 1.7 3 4.7 5 6.5 2.1 1.7 5.2 3.8 6.9 4.6 1.8.7 10.9 3.4 20.3 6s18.3 5.2 19.9 5.9c1.6.6 4.7 3.2 6.9 5.7 2.3 2.5 5 6.5 6 9 1.5 3.3 2 6.7 1.9 13 0 6-.6 10.1-2 14-1.2 3.2-4.1 7.8-6.9 10.8-3 3.4-7 6.5-10.8 8.3-3.3 1.6-8.5 3.4-11.5 4-3.2.7-10.1.9-16.5.6-6.8-.3-13.5-1.3-17.5-2.5-3.6-1.1-8.5-3.5-10.9-5.4-2.5-1.8-4.6-3.8-4.7-4.3-.1-.5 1.3-2.3 6.7-7l2.2 2.2c1.2 1.3 4.5 3.1 7.2 4.2 2.8 1.1 9 2.5 14 3.1 6.8.9 10.6.9 15.5 0 3.6-.6 8.5-2.1 10.9-3.3 2.5-1.2 6.1-4 8-6.3 2.1-2.3 4.4-6.6 5.5-10 1.3-4 1.7-7.6 1.4-11.4-.2-3-1.3-7-2.4-8.9-1-1.9-3-4.2-4.4-5.2-1.4-1.1-11-4.3-21.5-7.2-10.5-3-21.3-6.5-24-8-2.7-1.4-6.7-4.3-8.7-6.4-2-2.1-4.5-5.6-5.4-7.8-1-2.5-1.7-6.7-1.7-11 0-5 .7-8.4 2.2-12 1.2-2.8 3.6-6.5 5.4-8.3 1.8-1.9 5-4.4 7.2-5.7 2.2-1.3 6.7-3.1 10-3.9 4.3-1.1 9.2-1.4 17.5-1.1zm288.9.5h9l.3 48.8c.3 43.6.5 49.1 2 52.2 1 1.9 3.4 5.2 5.5 7.3 2.1 2.1 6.3 4.7 9.3 5.9 4.1 1.6 7.9 2.1 15 2.1 6 .1 11.5-.5 15-1.5 3-.9 7.5-3.1 9.9-5 2.5-1.8 5.5-5.3 9.1-12.3V1401h9.8l-.1 50.3c-.2 49.7-.2 50.2-2.4 54.7-1.2 2.5-3.8 6.3-5.6 8.5-1.9 2.2-5.6 5.2-8.3 6.7-2.7 1.5-7.6 3.4-10.9 4.2-3.3.9-9.9 1.6-14.7 1.6-4.9 0-11.2-.5-14-1.1-2.9-.6-7.5-2.3-10.3-3.6-2.7-1.4-6.9-4.4-9.3-6.7-2.4-2.2-5.3-5.9-6.5-8.1-2.2-3.9-2.2-4.8-2.5-55.3zm208.1 0h76v10h-66v48h63v9h-63v48h66v10h-76v-62.5zM54 1468h453v9H54v-4.5zm529-67h10v125h-10v-62.5zm42 0h10l60.5 105.7.5-105.7h9v125h-10l-60.5-105.7-.5 105.8h-9v-62.5zm213 0h72v10h-31v115h-10v-115h-31v-5zm98 0h9v125h-9v-62.5zm35 0h72v10h-31v115h-10v-115h-31v-5zm208 0h72v10h-31v115h-9v-115h-32v-5z" fill="#8e929f"/></svg>