<svg viewBox="0 0 500 500" xmlns="http://www.w3.org/2000/svg"><circle cx="250" cy="250" fill="#c8c8c8" r="250"/><path fill-rule="evenodd" class="prefix__a" d="M232.82 58.217c1.207 0 2.925.139 3.83.325.906.185 2.461.743 3.482 1.253 1.022.488 2.531 1.393 3.344 2.02.835.627 1.996 1.765 2.622 2.531.604.766 1.486 2.066 1.904 2.902.441.835 1.045 2.344 1.324 3.366.418 1.439.533 2.437.533 4.527 0 1.764-.139 3.18-.394 4.178-.209.836-.882 2.508-1.486 3.715-.905 1.834-1.416 2.53-3.064 4.178-1.463 1.463-2.484 2.252-3.854 2.949-1.022.534-2.646 1.184-3.598 1.416-.952.255-2.368.534-3.134.627-.766.069-2.298.023-3.436-.116-1.115-.116-2.786-.511-3.691-.836-.929-.325-2.415-1.045-3.32-1.602-.906-.557-2.368-1.764-3.25-2.693-.906-.952-2.043-2.461-2.554-3.343-.487-.882-1.161-2.414-1.462-3.366-.348-1.091-.58-2.6-.673-4.063-.094-1.718-.024-2.832.255-4.294.232-1.092.627-2.485.906-3.134.278-.627.859-1.788 1.299-2.554.441-.766 1.556-2.136 2.438-3.018.905-.905 2.275-2.02 3.041-2.484.766-.464 1.973-1.068 2.67-1.346.696-.279 1.903-.65 2.67-.813.765-.162 2.391-.325 3.598-.325zm-3.761 11.932c-.696.488-1.23 1.161-1.764 2.206-.557 1.114-.743 1.811-.743 2.67 0 .65.139 1.625.348 2.205.186.58.743 1.509 1.207 2.066.488.557 1.346 1.254 1.927 1.532.581.302 1.509.604 2.089.697.697.108 1.47.046 2.322-.186.696-.209 1.741-.696 2.298-1.138.557-.418 1.323-1.277 1.694-1.926.372-.696.721-1.672.79-2.438.116-.928.047-1.625-.256-2.554-.255-.765-.812-1.694-1.369-2.298-.534-.557-1.462-1.276-2.112-1.555-.836-.395-1.556-.557-2.554-.534-.767 0-1.718.139-2.136.279-.395.162-1.184.603-1.741.974zm117.049 50.075c2.856-.023 6.477.116 8.474.302 1.927.185 4.782.557 6.384.836 1.602.255 4.527.881 6.5 1.393 1.973.487 5.014 1.369 6.732 1.949 1.718.604 4.388 1.602 5.92 2.252 1.532.65 3.83 1.695 5.107 2.322 1.277.65 3.158 1.648 4.179 2.228 1.021.581 3.064 1.834 4.527 2.786 1.462.952 3.877 2.647 5.339 3.761 1.463 1.137 3.831 3.088 5.224 4.341 1.393 1.277 3.644 3.459 4.967 4.852a102.878 102.878 0 014.644 5.316c1.23 1.532 3.087 4.04 4.109 5.572a109.991 109.991 0 013.11 4.875c.673 1.16 1.904 3.459 2.74 5.107.812 1.672 1.973 4.179 2.553 5.572.558 1.416 1.439 3.76 1.951 5.223.487 1.462 1.207 3.761 1.578 5.108.371 1.346.998 4.015 1.369 5.919.395 1.927.883 4.852 1.115 6.5.302 2.299.395 4.76.418 10.331 0 4.759-.116 8.195-.302 9.866-.185 1.393-.58 3.97-.882 5.688-.325 1.718-.952 4.597-1.416 6.384-.441 1.787-1.346 4.759-1.973 6.616-.65 1.857-1.742 4.667-2.438 6.268a98.876 98.876 0 01-2.763 5.757c-.812 1.556-2.182 3.947-3.018 5.34a118.722 118.722 0 01-3.366 5.038 149.452 149.452 0 01-3.458 4.527 110.389 110.389 0 01-4.04 4.526c-1.3 1.393-3.575 3.599-5.038 4.898a127.32 127.32 0 01-4.851 4.063c-1.208.952-3.413 2.508-4.876 3.482-1.462.975-4.086 2.577-5.803 3.553-1.718.951-4.76 2.483-6.733 3.365-1.973.883-5.27 2.182-7.312 2.879-2.044.697-5.386 1.695-7.429 2.206-2.043.51-5.432 1.207-7.545 1.532-2.113.325-5.456.719-7.429.859-2.159.162-5.455.209-8.241.139-2.554-.093-6.059-.302-7.777-.511-1.718-.209-4.922-.72-7.081-1.161-2.158-.44-5.246-1.161-6.848-1.625-1.602-.464-4.178-1.323-8.589-2.901h-82.367c-73.011 0-82.668-.047-85.245-.349-1.601-.209-4.155-.626-5.687-.952-1.533-.325-4.202-1.067-5.92-1.624-1.718-.581-4.225-1.533-5.571-2.113a82.09 82.09 0 01-4.76-2.345c-1.277-.719-3.366-1.973-4.642-2.832a94.83 94.83 0 01-4.18-3.018c-1.021-.812-2.994-2.577-4.387-3.923-1.369-1.37-3.343-3.459-4.364-4.667-1.022-1.206-2.809-3.621-3.947-5.338-1.161-1.719-2.901-4.76-3.877-6.733-.975-1.973-2.228-4.852-2.785-6.384a80.33 80.33 0 01-1.649-5.456 84.45 84.45 0 01-1.045-4.758 133.19 133.19 0 01-.58-4.18c-.139-1.23-.232-9.819-.232-20.893 0-14.996.07-19.384.348-21.706.186-1.602.604-4.201.929-5.803.348-1.602 1.114-4.411 1.741-6.268.603-1.858 1.649-4.574 2.321-6.036.651-1.463 1.834-3.761 2.6-5.107.767-1.347 1.974-3.274 2.693-4.295.72-1.021 1.858-2.577 2.577-3.483.697-.881 2.577-2.971 4.202-4.619 1.602-1.625 3.947-3.831 5.224-4.852a78.116 78.116 0 015.107-3.691c1.532-1.022 4.248-2.554 6.036-3.436 1.787-.882 4.248-1.973 5.455-2.438 1.207-.464 3.25-1.137 4.527-1.508 1.277-.372 3.366-.906 4.643-1.161 1.277-.256 3.459-.65 4.875-.859 2.345-.371 8.543-.395 150.084-.534l2.739-1.811c1.486-.998 4.063-2.553 5.735-3.483 1.671-.905 4.271-2.228 5.803-2.901a112.065 112.065 0 015.572-2.321c1.532-.581 4.411-1.533 6.384-2.09 1.973-.58 4.898-1.323 6.5-1.648 1.602-.325 4.063-.743 5.455-.952 1.393-.209 3.553-.441 4.76-.557 1.207-.116 4.457-.209 7.196-.209zm-11.375 22.124c-1.718.301-4.388.928-5.92 1.369-1.532.418-3.83 1.161-5.107 1.648-1.277.465-3.993 1.672-6.036 2.67-2.043.998-5.13 2.763-6.849 3.877-1.717 1.138-4.224 2.948-5.571 4.04-1.323 1.068-3.644 3.157-5.107 4.619-1.462 1.463-3.598 3.831-4.736 5.224-1.115 1.416-2.809 3.714-3.737 5.107-.929 1.416-2.229 3.552-2.879 4.759a72.26 72.26 0 00-2.322 4.643c-.627 1.346-1.601 3.807-2.182 5.455-.58 1.672-1.37 4.319-1.764 5.921-.371 1.601-.929 4.41-1.207 6.268-.418 2.692-.511 4.41-.511 8.589-.023 3.691.093 6.082.395 8.125.209 1.602.58 3.9.835 5.107a87.009 87.009 0 001.254 4.991c.418 1.532 1.161 3.831 1.648 5.108.465 1.276 1.672 3.993 2.67 6.036 1.021 2.042 2.507 4.759 3.296 6.035.813 1.277 2.206 3.32 3.111 4.528.906 1.206 2.531 3.203 3.622 4.41a76.144 76.144 0 004.039 4.156c1.138 1.067 2.925 2.6 3.993 3.412l1.904 1.486c34.729-.139 37.353-.209 39.581-.557 1.393-.233 3.9-.743 5.572-1.184 1.671-.418 4.271-1.254 5.804-1.858 1.532-.603 3.621-1.532 4.642-2.042 1.022-.511 2.786-1.509 3.947-2.229 1.16-.696 3.134-2.066 4.41-3.018 1.277-.975 3.576-3.018 5.108-4.55 1.532-1.532 3.575-3.83 4.55-5.107a89.12 89.12 0 003.111-4.527c.743-1.207 1.903-3.366 2.576-4.759a63.67 63.67 0 002.067-4.875c.464-1.277 1.137-3.529 1.509-4.992.371-1.462.859-3.76 1.068-5.107.371-2.135.417-4.735.51-20.893.047-12.374 0-19.454-.185-21.474a67.14 67.14 0 00-.813-5.85c-.325-1.579-.906-3.877-1.3-5.107a77.842 77.842 0 00-1.393-4.017c-.65-1.671-.743-1.787-2.577-3.157a84.357 84.357 0 00-3.9-2.693c-1.091-.719-2.971-1.834-4.179-2.506-1.207-.674-3.552-1.835-5.223-2.554-1.671-.743-4.48-1.811-6.268-2.391-1.788-.581-4.457-1.323-5.92-1.649a97.524 97.524 0 00-5.107-.975c-1.509-.209-4.503-.394-7.893-.441-2.995-.047-6.337.023-7.429.14-1.091.116-3.389.464-5.107.789zm-189.782 5.339c-1.276.209-3.574.766-5.107 1.208-1.532.44-3.923 1.276-5.339 1.833a60.036 60.036 0 00-4.527 2.113c-1.091.603-2.855 1.648-3.947 2.368-1.091.719-2.762 1.903-3.714 2.67a69.28 69.28 0 00-3.691 3.25 84.968 84.968 0 00-3.691 3.969 57.361 57.361 0 00-3.366 4.527c-.883 1.346-2.252 3.737-3.065 5.339-.789 1.602-1.764 3.785-2.159 4.876-.417 1.091-.998 2.902-1.323 4.062-.325 1.161-.813 3.25-1.045 4.644-.255 1.392-.58 4.27-.719 6.383-.163 2.415-.209 9.727-.139 19.849.069 10.377.209 16.668.371 17.876a125.5 125.5 0 00.743 4.178c.255 1.277.952 3.784 1.555 5.571.58 1.788 1.764 4.667 2.623 6.385.859 1.718 2.299 4.225 3.181 5.571a70.65 70.65 0 003.459 4.643c1.021 1.207 2.739 3.042 3.807 4.04 1.068 1.021 2.902 2.553 4.039 3.459a71.425 71.425 0 004.179 2.901 75.352 75.352 0 004.875 2.624c1.532.743 3.993 1.764 5.456 2.252 1.462.511 3.621 1.137 4.759 1.392 1.161.279 3.18.674 4.527.906 2.275.371 7.545.395 75.448.487l73.01.07a137.974 137.974 0 01-5.571-4.434c-1.161-.998-3.598-3.366-5.479-5.246-1.857-1.904-4.202-4.504-5.223-5.781a120.211 120.211 0 01-3.482-4.643c-.929-1.277-2.484-3.668-3.482-5.339-.975-1.649-2.601-4.689-3.599-6.733-.975-2.042-2.182-4.712-2.646-5.919-.488-1.208-1.254-3.413-1.741-4.876-.488-1.462-1.208-3.923-1.626-5.455a98.167 98.167 0 01-1.276-5.804 113.047 113.047 0 01-.952-6.384c-.302-2.46-.418-5.038-.418-9.634 0-4.504.116-7.22.418-9.634.209-1.857.72-4.991 1.091-6.965.394-1.973 1.161-5.153 1.718-7.08a98.737 98.737 0 012.206-6.732c.65-1.788 2.089-5.085 3.157-7.313 1.091-2.229 2.739-5.317 3.644-6.849.929-1.532 2.392-3.83 3.297-5.107.905-1.277 2.461-3.366 3.482-4.62 1.021-1.277 2.507-3.041 3.32-3.899.789-.859 1.439-1.626 1.439-1.695 0-.07-29.738-.094-66.116-.094-36.354.024-66.975.117-68.065.209a94.282 94.282 0 00-4.296.581zm257.686 67.207a78.723 78.723 0 01-.813 5.224 77.351 77.351 0 01-1.184 4.875c-.394 1.393-1.231 3.853-1.857 5.455-.627 1.602-1.741 4.109-2.484 5.571-.743 1.463-1.927 3.599-2.646 4.76a84.29 84.29 0 01-2.74 4.062c-.812 1.092-2.275 2.902-3.25 4.063-.999 1.161-2.832 3.088-4.086 4.295-1.277 1.207-3.203 2.925-4.271 3.784-1.092.881-3.134 2.367-4.527 3.296-1.393.928-3.552 2.252-4.76 2.902-1.207.65-3.458 1.741-4.991 2.437-1.532.674-4.248 1.695-6.035 2.276-1.788.58-4.55 1.323-6.152 1.648-1.602.325-4.248.743-5.92.952-1.881.209-5.27.348-9.054.371-5.595.023-5.943.047-4.643.325.766.186 2.6.511 4.062.743 2.09.325 4.063.418 9.054.418 4.04 0 7.151-.116 8.474-.302 1.161-.163 3.343-.557 4.875-.859 1.532-.302 4.04-.929 5.572-1.37 1.532-.44 3.784-1.183 4.991-1.648a117.761 117.761 0 004.643-2.02c1.346-.626 3.737-1.926 5.339-2.878 1.602-.952 3.923-2.484 5.154-3.412 1.23-.93 3.296-2.6 4.619-3.762 1.301-1.161 3.367-3.18 4.574-4.526 1.207-1.347 3.065-3.599 4.109-4.991 1.068-1.393 2.623-3.715 3.482-5.108.859-1.393 2.206-3.9 3.018-5.571.812-1.649 1.88-4.179 2.414-5.572a65.644 65.644 0 001.648-4.992 70.46 70.46 0 001.277-5.222c.325-1.533.72-4.133.929-5.804.186-1.718.348-4.969.348-7.545 0-2.507-.162-5.827-.348-7.429-.186-1.601-.487-3.784-.696-4.875-.209-1.091-.743-3.389-1.184-5.108-.442-1.717-1.347-4.479-1.996-6.151-.674-1.649-1.789-4.179-2.508-5.572-.72-1.393-1.486-2.809-1.694-3.134-.372-.557-.395.395-.395 18.456 0 15.275-.07 19.617-.348 21.938zM71.593 126.236c.51-.023 1.323.093 1.811.209.464.14 1.183.511 1.601.883.395.348.929 1.044 1.138 1.555.417.883.441 2.368.441 53.859l1.903.881c1.068.465 2.647 1.417 3.529 2.09.882.65 2.113 1.834 2.739 2.6.604.766 1.486 2.112 1.927 3.018.442.905 1.022 2.461 1.277 3.483.441 1.787.464 2.622.464 21.008 0 18.387-.023 19.223-.464 21.01-.255 1.022-.835 2.577-1.277 3.482-.441.906-1.323 2.252-1.927 3.019-.626.765-1.787 1.903-2.623 2.53-.812.626-2.321 1.532-3.343 2.019-1.044.488-2.716 1.068-3.83 1.277-1.416.279-2.577.349-4.179.255-1.323-.069-2.901-.347-3.947-.673-.951-.301-2.46-.951-3.365-1.439-1.068-.604-2.322-1.602-3.599-2.901-1.555-1.556-2.205-2.438-2.972-3.971-.534-1.091-1.16-2.646-1.392-3.482-.372-1.369-.395-3.18-.395-21.126 0-17.944.023-19.755.395-21.125.232-.835.858-2.391 1.392-3.482.767-1.532 1.417-2.414 2.972-3.97 1.208-1.23 2.553-2.321 3.482-2.832.836-.464 1.997-.998 3.715-1.555V156.16c0-26.232 0-26.72.464-27.625.255-.511.743-1.114 1.114-1.37a8.001 8.001 0 011.323-.673c.395-.139 1.115-.256 1.626-.256zm-4.086 68.438c-.65.674-1.208 1.485-1.439 2.228-.372 1.046-.395 2.81-.395 18.92 0 16.112.023 17.876.395 18.92.255.743.789 1.556 1.439 2.229.673.65 1.486 1.184 2.229 1.439.65.233 1.624.395 2.205.395.604 0 1.532-.232 2.206-.557.649-.278 1.578-.998 2.066-1.555.51-.557 1.09-1.393 1.276-1.834.325-.72.372-2.995.372-19.037 0-16.041-.047-18.316-.372-19.035-.186-.441-.766-1.277-1.276-1.835-.488-.556-1.324-1.23-1.835-1.485-.534-.255-1.532-.488-2.321-.534-.906-.047-1.765.046-2.438.301-.58.21-1.532.859-2.112 1.44zm319.715 90.05c.069.093 2.042 5.758 4.341 12.583a3565.459 3565.459 0 014.573 13.534c.186.604.488 1.091.627 1.091.162 0 1.091.372 2.043.859 1.045.534 2.252 1.37 3.041 2.159.72.697 1.602 1.857 1.95 2.554.348.696 6.152 17.411 25.049 73.01l.023 6.083-.975 1.95c-.673 1.346-1.392 2.368-2.321 3.296-.743.72-1.881 1.602-2.508 1.95-.649.349-2.994 1.23-5.223 1.973-3.134 1.068-4.48 1.417-5.92 1.51-1.3.069-2.344 0-3.482-.279-.905-.209-2.252-.719-2.994-1.114-.767-.418-1.904-1.277-2.554-1.904-.65-.65-1.486-1.694-1.857-2.321-.395-.674-5.92-16.553-25.281-73.592l-.024-2.669c0-2.298.07-2.856.558-4.063.302-.766.998-2.043 2.553-4.294l-3.946-11.655c-2.182-6.43-3.924-11.816-3.901-11.978.047-.163 3.668-2.229 8.079-4.573 4.388-2.345 8.056-4.202 8.149-4.11zM233.749 96.127c18.13.047 18.223.047 20.08.557 1.022.302 2.693.975 3.715 1.509 1.346.697 2.367 1.462 3.714 2.832 1.022 1.021 2.252 2.531 2.739 3.366.488.836 1.138 2.345 1.486 3.367.534 1.624.627 2.251.627 4.991.023 2.67-.07 3.389-.511 4.875-.302.951-.928 2.484-1.393 3.366-.58 1.114-1.462 2.229-2.832 3.598-1.091 1.092-2.553 2.322-3.25 2.716-.697.418-2.02 1.022-2.902 1.347-.905.302-2.46.673-3.482.812-1.253.186-7.893.233-20.313.186-16.622-.07-18.595-.116-19.849-.487-.766-.209-2.391-.882-3.598-1.486-1.788-.882-2.554-1.44-4.086-2.948-1.509-1.533-2.066-2.298-2.948-4.087-.604-1.206-1.277-2.878-1.486-3.714-.255-.974-.395-2.414-.395-4.062 0-1.672.14-3.065.395-4.063.232-.835.766-2.228 1.184-3.134.418-.882 1.277-2.298 1.904-3.11.627-.837 1.764-2.02 2.53-2.624.766-.626 2.229-1.556 3.25-2.043 1.022-.487 2.321-1.021 2.902-1.161.58-.162 1.764-.371 2.67-.464.882-.092 9.819-.162 19.849-.139zm-22.124 12.374c-.488.487-1.115 1.299-1.393 1.81-.372.697-.488 1.346-.511 2.554 0 1.393.093 1.811.719 2.902a5.649 5.649 0 001.858 2.043c.627.418 1.509.858 1.95.974.464.14 8.102.233 18.34.233 14.718 0 17.712-.046 18.688-.325.65-.209 1.602-.743 2.182-1.231.557-.51 1.253-1.439 1.602-2.158.51-1.092.58-1.51.487-2.787-.093-1.068-.302-1.833-.743-2.6-.348-.626-1.068-1.439-1.625-1.833-.534-.372-1.509-.859-2.136-1.045-.975-.279-3.969-.325-18.571-.325-16.623.023-17.481.046-18.689.464-.743.256-1.648.813-2.158 1.324zm-88.728 198.788c1.161 0 2.554.162 3.715.465 1.021.278 2.577.882 3.482 1.346.975.511 2.229 1.463 3.134 2.368.905.906 1.857 2.159 2.368 3.134.465.882 1.068 2.46 1.346 3.482.442 1.788.465 2.461.465 18.224 0 15.647-.023 16.459-.465 18.223-.255 1.022-.789 2.531-1.207 3.367-.51 1.068-1.276 2.066-2.6 3.366-1.3 1.3-2.344 2.112-3.389 2.6-.836.418-2.182.928-3.018 1.137-.929.256-2.368.418-3.715.418-1.346 0-2.785-.162-3.714-.418-.835-.209-2.182-.719-3.018-1.137-1.044-.488-2.089-1.3-3.389-2.6-1.323-1.3-2.089-2.298-2.6-3.366-.418-.836-.952-2.345-1.208-3.367-.44-1.764-.464-2.576-.464-18.223 0-15.763.024-16.436.464-18.224.279-1.022.883-2.6 1.347-3.482.511-.975 1.463-2.228 2.368-3.134.905-.905 2.159-1.857 3.134-2.368.882-.464 2.414-1.068 3.366-1.323.998-.256 2.531-.464 3.598-.488zm-2.855 10.493c-.394.418-1.022 1.394-1.393 2.159l-.627 1.393c0 28.972.024 29.785.442 30.992.255.697.835 1.695 1.276 2.182.464.511 1.254 1.091 1.765 1.324.51.232 1.23.417 1.625.417.371 0 1.044-.139 1.462-.279.418-.162 1.115-.649 1.579-1.09.441-.442 1.044-1.393 1.323-2.09.51-1.277.51-1.369.51-16.482v-15.206c-1.137-2.414-1.74-3.25-2.228-3.645-.418-.325-1.207-.719-1.718-.859-.511-.139-1.045-.255-1.161-.255a9.558 9.558 0 00-1.161.348c-.51.186-1.276.696-1.694 1.091zm87.009-10.469c.952 0 2.461.138 3.367.325.882.209 2.414.743 3.365 1.207 1.277.604 2.206 1.3 3.506 2.6 1.207 1.207 2.019 2.274 2.6 3.389.441.882.999 2.252 1.23 3.018.372 1.277.418 2.809.512 17.179.046 10.54-.024 16.413-.187 17.643-.139 1.022-.51 2.6-.812 3.483-.325.881-1.068 2.345-1.671 3.226-.627.882-1.649 2.066-2.275 2.624-.65.557-1.997 1.416-3.019 1.926-1.021.488-2.437 1.022-3.134 1.184-.696.163-2.275.302-3.482.302-1.346-.023-2.786-.162-3.714-.418-.836-.232-2.252-.789-3.134-1.253-1.022-.534-2.228-1.44-3.25-2.484-1.138-1.138-1.904-2.16-2.508-3.366-.464-.952-1.044-2.415-1.253-3.251-.371-1.369-.418-3.017-.418-18.339 0-15.508.023-16.947.418-18.34.232-.836.743-2.182 1.161-3.018.488-1.044 1.3-2.089 2.6-3.389 1.416-1.44 2.275-2.09 3.598-2.716.952-.464 2.415-.998 3.25-1.185.836-.185 2.299-.347 3.25-.347zm-2.089 9.889c-.441.279-1.091.906-1.462 1.44-.349.534-.813 1.508-1.045 2.182-.348 1.09-.395 2.507-.395 15.484 0 12.675.047 14.416.395 15.554.209.696.72 1.741 1.161 2.321.418.581 1.23 1.277 1.81 1.579.836.441 1.277.511 2.206.417.626-.092 1.462-.324 1.857-.556.371-.233 1.044-.929 1.463-1.556.418-.65.858-1.671.998-2.321.139-.72.185-6.802.162-16.019l-.07-14.857c-.905-1.95-1.555-2.856-2.042-3.296-.465-.418-1.254-.86-1.742-.999-.464-.116-.974-.232-1.09-.209-.14 0-.488.093-.813.186-.325.093-.952.395-1.393.65zm-130.235-9.147c6.662.07 8.31.163 9.75.488.952.232 2.531.789 3.482 1.253 1.184.558 2.159 1.231 3.018 2.113.697.72 1.602 1.927 2.02 2.693.395.766.951 2.182 1.23 3.134.255.952.604 3.088.743 4.759.209 2.321.209 3.691 0 5.92-.139 1.602-.488 3.644-.743 4.527-.255.882-.72 2.159-1.021 2.785-.326.65-1.068 1.718-1.695 2.415-.604.697-1.741 1.671-2.507 2.159-.766.487-1.671.929-2.043.998-.349.07-.674.255-.743.418-.07.139 1.695 4.805 3.946 10.33 2.229 5.503 4.063 10.308 4.063 10.679 0 .372-.232.859-.604 1.207-.58.581-.649.581-4.364.581-2.522 0-3.893-.093-4.109-.279-.186-.139-2.252-5.061-8.915-21.66h-1.508v10.215c0 7.708-.07 10.354-.302 10.795-.14.325-.604.697-.975.813-.395.139-1.95.232-3.483.232-1.532 0-3.134-.093-3.552-.232-.394-.116-.858-.441-.974-.697-.14-.302-.232-9.913-.232-27.393 0-20.592.069-27.046.278-27.417.163-.255.488-.557.766-.673.256-.14 3.83-.186 8.474-.163zm0 25.235c7.336-.116 7.87-.163 8.589-.604.441-.255 1.045-.836 1.347-1.277a6.78 6.78 0 00.789-1.717c.162-.511.279-2.484.279-4.411 0-1.904-.117-3.901-.279-4.411-.139-.511-.488-1.3-.789-1.741-.302-.441-.952-1.021-1.463-1.277-.789-.395-1.486-.487-4.689-.534l-3.738-.093-.046 16.065zm85.895-25.212c7.127.047 8.403.116 9.518.488.696.209 1.787.673 2.438.998.626.325 1.833 1.277 2.669 2.113.929.928 1.857 2.182 2.368 3.157.464.905 1.091 2.461 1.369 3.482.442 1.556.534 2.414.534 5.108 0 2.391-.116 3.668-.417 4.758a20.172 20.172 0 01-1.161 3.018c-.395.813-1.254 2.043-3.041 3.924l.882.998c.487.557 1.23 1.625 1.671 2.391.442.766.998 2.02 1.277 2.786.255.766.651 2.136.859 3.018.232 1.091.348 2.763.348 4.991 0 2.716-.092 3.737-.487 5.223-.279 1.022-.906 2.647-1.37 3.599a12.974 12.974 0 01-2.252 3.18c-.928.952-1.904 1.671-2.902 2.136-.928.441-2.182.812-3.25.952-.952.116-5.13.232-9.286.232-4.503 0-7.846-.069-8.311-.232-.418-.116-.858-.441-.974-.697-.163-.302-.233-9.889-.233-27.393 0-20.592.07-27.046.279-27.393.139-.279.488-.581.743-.697.279-.116 3.993-.186 8.729-.14zm-.233 23.587c5.549-.116 5.781-.14 6.686-.743.534-.348 1.277-1.138 1.672-1.741.394-.604.882-1.671 1.091-2.392.186-.696.348-2.042.348-3.017 0-.952-.116-2.205-.278-2.786-.14-.557-.534-1.439-.836-1.904-.302-.487-.999-1.114-1.555-1.392-.813-.418-1.463-.511-4.04-.604l-3.041-.093-.047 14.672zm0 23.447c5.177 0 6.71-.116 7.035-.256.278-.139.858-.603 1.277-.998.418-.395.928-1.253 1.16-1.88.256-.79.394-1.858.394-3.25-.022-1.254-.162-2.6-.394-3.366a14.795 14.795 0 00-1.091-2.391c-.464-.697-1.068-1.277-1.695-1.602-.812-.395-1.532-.511-3.807-.604l-2.809-.116-.07 14.463zm107.671-47.08c3.482.07 3.575.093 4.016.65.441.58.465 1.114.441 46.43l12.351.116.44.58c.419.534.465.952.442 4.133 0 3.226-.047 3.574-.464 3.992-.256.256-.813.534-1.231.604-.395.07-5.037.093-10.307.046-9.17-.069-9.565-.092-10.54-.998l-.023-54.624.65-.511c.627-.465.882-.487 4.225-.418zm43.969-.023c4.155-.024 5.919.069 6.361.278.348.186.673.604.813 1.092.115.464 2.158 12.512 4.503 26.813 2.368 14.3 4.295 26.279 4.295 26.58.023.326-.186.86-.442 1.161-.44.558-.556.581-3.668.674-1.88.046-3.551-.024-4.085-.186-.673-.186-.906-.418-1.091-.998-.116-.418-.58-2.739-1.045-5.177-.464-2.414-.882-4.643-1.045-5.456l-9.169.116-.952 5.224c-.534 2.878-1.045 5.409-1.161 5.641-.116.232-.534.511-.905.65-.395.116-1.997.209-3.599.186-1.602 0-3.157-.093-3.482-.186-.325-.093-.72-.418-.905-.72-.302-.511.069-3.133 4.016-27.277 2.391-14.672 4.434-26.953 4.55-27.278.116-.301.464-.696.743-.859.371-.185 2.344-.278 6.268-.278zm-2.949 35.496h5.921c-.233-1.695-.883-5.804-1.602-10.215l-1.323-8.009-2.996 18.224zm41.439-35.45c5.316.07 8.612.209 9.286.395.581.139 1.718.603 2.554 1.021.905.442 2.066 1.277 2.902 2.136.905.882 1.74 2.043 2.367 3.25.534 1.022 1.115 2.415 1.324 3.134.209.697.464 2.205.603 3.367a18.828 18.828 0 010 4.178c-.139 1.138-.464 2.763-.719 3.598-.256.813-.767 2.02-1.138 2.67-.348.627-1.114 1.648-2.786 3.367l1.068 1.206c.581.673 1.486 2.066 1.973 3.088.511 1.022 1.138 2.693 1.393 3.714.325 1.231.534 2.902.604 5.108.116 2.53.046 3.668-.255 5.223-.233 1.068-.72 2.693-1.092 3.598-.371.882-1.137 2.252-1.718 3.018-.58.767-1.485 1.741-2.042 2.159-.534.441-1.556 1.045-2.252 1.37-.697.302-2.113.65-3.134.789-1.022.117-5.363.186-9.657.139-7.453-.046-7.847-.069-8.822-.974l-.024-54.648.65-.511c.674-.487.743-.487 8.915-.395zm-.232 23.633c4.341 0 5.363-.116 5.989-.372a7.116 7.116 0 001.625-1.09c.441-.418 1.022-1.231 1.324-1.788.278-.581.649-1.625.812-2.322.186-.789.255-2.019.186-3.134-.07-1.021-.302-2.274-.511-2.786-.209-.51-.673-1.23-1.021-1.601-.349-.348-.929-.813-1.323-1.021-.488-.256-1.579-.395-3.854-.488l-3.158-.093-.069 14.695zm0 23.447c5.618 0 6.709-.093 7.312-.348.442-.186 1.092-.743 1.44-1.23.371-.465.789-1.393.975-2.02.232-.813.278-1.857.185-3.483-.069-1.415-.278-2.762-.556-3.459-.233-.603-.79-1.532-1.231-2.042-.464-.534-1.138-1.114-1.509-1.301-.488-.231-1.648-.394-3.622-.464l-2.947-.116-.047 14.463zm-107.136-32.106c.905.07 2.413.371 3.365.673 1.092.325 2.369.975 3.367 1.672.905.626 2.089 1.694 2.646 2.391.58.696 1.37 1.996 1.788 2.878.418.906.882 2.322 1.044 3.134.186.906.233 2.299.163 3.482-.07 1.092-.349 2.6-.604 3.367-.278.766-.928 2.089-1.462 2.901-.534.837-1.509 2.02-2.159 2.624-.65.626-1.858 1.462-2.693 1.903-.813.418-2.066.952-2.786 1.138-.766.232-2.135.372-3.482.372-1.231 0-2.786-.14-3.598-.349-.767-.209-2.113-.766-2.995-1.23-1.044-.557-2.136-1.416-3.134-2.484-.929-.975-1.834-2.229-2.275-3.134-.395-.813-.905-2.229-1.114-3.134-.279-1.137-.349-2.205-.279-3.598.07-1.068.348-2.647.604-3.483.255-.812.905-2.159 1.416-2.948.51-.813 1.485-1.973 2.158-2.624.674-.626 1.904-1.508 2.716-1.949.837-.418 1.928-.906 2.438-1.068.511-.163 1.463-.372 2.09-.464.65-.117 1.903-.14 2.786-.07zm-4.063 10.911c-.279.348-.604 1.022-.743 1.462-.186.604-.186 1.068.023 1.811.139.534.557 1.3.906 1.718.348.395.928.859 1.277 1.044.347.163 1.114.303 1.671.303.58 0 1.346-.14 1.694-.303.349-.185.976-.696 1.393-1.16.442-.51.813-1.207.906-1.718.07-.487.07-1.207 0-1.625-.093-.418-.488-1.138-.906-1.602-.417-.464-1.044-.975-1.393-1.161-.348-.185-1.137-.325-1.741-.325-.65 0-1.415.186-1.857.442-.418.255-.975.743-1.23 1.114zm99.127-180.635c1.741.07 4.249.279 5.572.464 1.347.209 3.435.604 4.643.906 1.23.301 3.203.928 4.411 1.369a64.066 64.066 0 014.062 1.649c1.022.464 2.856 1.439 4.063 2.159 1.231.719 3.11 1.973 4.178 2.809a63.582 63.582 0 013.576 2.901c.881.79 2.483 2.415 3.575 3.622 1.068 1.231 2.785 3.459 3.83 4.991 1.021 1.532 2.414 3.901 3.065 5.224.672 1.346 1.624 3.482 2.089 4.758.487 1.277 1.161 3.483 1.532 4.876.348 1.416.812 3.97 1.045 5.687.301 2.391.371 4.156.278 7.313-.07 2.299-.302 5.13-.511 6.268a80.246 80.246 0 01-.928 4.295c-.325 1.23-.882 3.111-1.3 4.178-.395 1.092-1.207 3.019-1.811 4.296-.627 1.276-1.671 3.226-2.344 4.294a57.63 57.63 0 01-2.531 3.714c-.719.976-2.391 2.879-3.738 4.272-1.346 1.392-3.436 3.343-4.666 4.318-1.207.951-3.18 2.368-4.411 3.134a59.127 59.127 0 01-4.875 2.623c-1.462.72-3.853 1.672-5.339 2.159-1.463.487-3.715 1.091-4.991 1.347a75.45 75.45 0 01-4.295.719c-1.068.14-3.552.232-5.502.232-1.95 0-4.713-.139-6.152-.325-1.439-.209-3.924-.673-5.525-1.09-1.579-.396-3.784-1.068-4.875-1.486a126.044 126.044 0 01-3.598-1.486 61.96 61.96 0 01-3.715-1.973c-1.138-.674-3.134-2.02-4.411-2.972-1.276-.929-3.25-2.6-4.41-3.714-1.138-1.092-2.856-2.949-3.831-4.109a63.943 63.943 0 01-3.088-4.156c-.742-1.114-2.019-3.366-2.832-5.037-.812-1.649-1.904-4.272-2.438-5.804-.51-1.532-1.183-4.04-1.508-5.572-.302-1.532-.674-4.132-.813-5.804-.162-1.81-.209-4.178-.116-5.919.093-1.579.348-4.086.604-5.572.232-1.462.743-3.784 1.137-5.154.395-1.369 1.022-3.273 1.393-4.248a64.717 64.717 0 011.903-4.109 54.31 54.31 0 012.462-4.364 72.241 72.241 0 012.344-3.366c.581-.766 2.159-2.531 3.506-3.901 1.346-1.392 3.343-3.227 4.411-4.086 1.09-.881 2.878-2.158 3.946-2.878 1.091-.696 3.39-1.95 5.107-2.786 1.742-.835 4.295-1.903 5.688-2.344 1.416-.465 3.807-1.115 5.339-1.416 1.532-.303 3.901-.674 5.224-.79 1.346-.116 3.853-.162 5.571-.116zm-10.795 11.816a46.919 46.919 0 00-4.294 1.439c-1.068.419-2.902 1.301-4.063 1.951-1.137.627-3.018 1.857-4.179 2.716-1.138.859-3.017 2.507-4.178 3.668-1.138 1.161-2.786 3.087-3.645 4.295-.859 1.207-2.182 3.435-2.948 4.967-.766 1.533-1.695 3.738-2.09 4.876-.371 1.161-.905 3.203-1.207 4.526-.441 2.067-.511 3.134-.511 7.081 0 3.877.07 5.038.488 6.965a56.55 56.55 0 001.23 4.527c.395 1.23 1.184 3.157 1.718 4.294.557 1.161 1.764 3.25 2.693 4.644 1.207 1.833 2.53 3.389 4.62 5.478 1.95 1.95 3.691 3.412 5.223 4.458 1.277.835 3.436 2.065 4.759 2.692 1.347.65 3.274 1.439 4.295 1.787 1.021.325 2.786.813 3.9 1.046 1.114.255 3.32.556 4.875.696 2.043.185 3.622.162 5.618 0 1.533-.162 3.784-.488 4.992-.743 1.23-.279 3.04-.789 4.062-1.138a63.09 63.09 0 003.482-1.393c.906-.394 2.531-1.253 3.599-1.926 1.09-.65 3.017-2.02 4.294-3.041 1.277-1.045 3.134-2.809 4.132-3.97.999-1.138 2.415-2.972 3.158-4.063.719-1.068 1.787-2.948 2.391-4.179.604-1.207 1.462-3.296 1.903-4.642a45.176 45.176 0 001.207-4.527c.21-1.138.465-3.181.558-4.527.092-1.324.092-3.622 0-5.108-.116-1.462-.418-3.644-.673-4.875-.256-1.207-.743-3.041-1.092-4.062-.325-1.021-1.068-2.832-1.624-4.063-.581-1.207-1.835-3.389-2.809-4.875-1.254-1.88-2.554-3.436-4.458-5.34-1.486-1.462-3.621-3.319-4.782-4.132-1.137-.812-3.181-2.019-4.527-2.716-1.323-.673-3.529-1.602-4.875-2.043-1.324-.464-3.528-1.044-4.875-1.323-1.649-.348-3.576-.534-6.036-.581-2.252-.069-4.411.024-5.804.233-1.207.163-3.25.58-4.527.928zm-169.584-.464c2.692.046 5.432.233 6.732.464 1.23.209 3.413.697 4.875 1.068a52.728 52.728 0 014.992 1.648c1.277.488 3.435 1.486 4.758 2.206 1.347.719 3.181 1.787 4.063 2.391.906.604 2.461 1.765 3.482 2.577 1.022.789 2.856 2.461 4.063 3.691 1.23 1.231 2.994 3.273 3.97 4.55.975 1.254 2.344 3.297 3.064 4.504.72 1.23 1.695 3.041 2.159 4.062a71.207 71.207 0 011.649 4.063 68.839 68.839 0 011.369 4.411c.301 1.23.719 3.32.928 4.643.279 1.694.395 3.876.419 7.08 0 3.831-.094 5.178-.534 7.661a61.648 61.648 0 01-1.208 5.409c-.371 1.301-.974 3.181-1.37 4.179-.394.975-1.253 2.832-1.88 4.109-.65 1.277-1.741 3.227-2.46 4.295a55.084 55.084 0 01-2.74 3.83c-.789 1.022-2.484 2.903-3.737 4.156-1.254 1.253-3.228 2.995-4.388 3.877-1.137.859-3.018 2.159-4.179 2.878-1.138.743-3.134 1.834-4.411 2.438-1.276.626-3.575 1.555-5.107 2.066-1.532.534-4.039 1.207-5.571 1.532-1.532.325-4.086.696-5.688.836-1.625.163-4.272.209-6.036.139-1.718-.07-4.434-.371-6.036-.626-1.578-.279-3.877-.79-5.107-1.138a91.39 91.39 0 01-4.411-1.509c-1.207-.465-3.25-1.393-4.527-2.066-1.277-.674-3.25-1.858-4.411-2.623a60.129 60.129 0 01-4.178-3.158c-1.138-.952-2.855-2.554-3.784-3.575-.952-.998-2.368-2.669-3.181-3.691-.789-1.022-1.973-2.693-2.6-3.714a73.37 73.37 0 01-2.321-4.179c-.627-1.277-1.556-3.366-2.02-4.643-.487-1.277-1.161-3.459-1.532-4.875-.348-1.393-.812-3.83-1.021-5.386-.186-1.578-.349-4.341-.349-6.152 0-1.834.093-4.248.232-5.409.139-1.137.441-3.134.697-4.411.255-1.277.952-3.714 1.532-5.455.557-1.718 1.602-4.272 2.298-5.688.673-1.393 1.95-3.644 2.832-4.991.883-1.323 2.391-3.366 3.343-4.527.975-1.137 2.531-2.832 3.483-3.737a64.479 64.479 0 013.203-2.879 60.251 60.251 0 013.135-2.322c.905-.603 2.53-1.578 3.598-2.182 1.09-.603 3.017-1.555 4.294-2.089 1.277-.558 3.367-1.323 4.643-1.741a56.438 56.438 0 014.643-1.184 67.111 67.111 0 014.063-.674c.975-.115 3.784-.185 6.268-.139zm-10.215 11.747c-.952.255-2.46.743-3.366 1.068a55.431 55.431 0 00-3.714 1.648c-1.138.58-2.856 1.556-3.831 2.205-.952.628-2.623 1.904-3.691 2.81-1.091.905-2.739 2.553-3.691 3.621-.929 1.091-2.275 2.809-2.948 3.83-.673 1.022-1.695 2.81-2.275 3.947-.58 1.16-1.323 2.832-1.648 3.714-.349.905-.859 2.624-1.161 3.831-.325 1.23-.696 3.157-.836 4.294-.186 1.324-.232 3.575-.163 6.037.116 3.064.279 4.503.72 6.384.302 1.346.789 3.134 1.068 3.946.278.836 1.184 2.878 1.996 4.527.813 1.672 2.206 4.016 3.065 5.2.858 1.207 2.507 3.157 3.645 4.318 1.16 1.16 3.041 2.809 4.178 3.668 1.161.859 3.041 2.089 4.179 2.716 1.161.627 3.041 1.532 4.179 1.996 1.16.465 3.25 1.138 4.643 1.509 1.416.349 3.668.767 4.991.929 1.439.163 3.691.232 5.455.163 1.672-.07 4.179-.372 5.571-.65 1.417-.279 3.599-.859 4.876-1.323 1.277-.442 3.273-1.277 4.411-1.858 1.161-.58 2.832-1.509 3.714-2.089a37.31 37.31 0 003.25-2.391c.905-.743 2.322-2.066 3.181-2.925.858-.882 2.298-2.577 3.203-3.807.905-1.208 2.252-3.39 3.018-4.876.743-1.462 1.672-3.552 2.043-4.642.395-1.068.905-2.903 1.184-4.063.255-1.138.604-3.181.743-4.528.163-1.439.232-3.574.139-5.222-.069-1.533-.348-3.924-.627-5.34-.278-1.393-.859-3.598-1.3-4.875-.464-1.277-1.253-3.204-1.787-4.295-.511-1.067-1.671-3.065-2.577-4.41-.905-1.347-2.67-3.506-3.946-4.829-1.277-1.324-3.274-3.111-4.435-3.993-1.137-.859-3.018-2.113-4.178-2.763-1.138-.65-3.134-1.601-4.411-2.089-1.277-.511-3.158-1.138-4.179-1.393-1.021-.279-2.832-.65-4.062-.836-1.207-.186-3.645-.325-5.456-.325-1.788.023-4.179.186-5.339.348-1.138.186-2.856.534-3.831.813zm66.975 58.385c.65.07 1.532.325 1.974.557.464.233.998.627 1.206.859.233.232.558.79.743 1.231.163.464.395 1.857.488 3.134.093 1.277.301 3.18.488 4.248.185 1.045.603 2.763.928 3.831.348 1.044 1.045 2.739 1.579 3.76.534.998 1.532 2.438 2.229 3.158.881.905 1.81 1.578 2.901 2.089 1.3.626 2.02.789 3.483.882 1.323.069 2.275-.023 3.249-.302.767-.232 1.927-.743 2.554-1.137.627-.395 1.648-1.301 2.275-2.02.627-.696 1.555-2.113 2.043-3.134.511-1.021 1.161-2.74 1.463-3.83.325-1.068.743-3.065.928-4.411.209-1.323.371-2.995.395-3.714 0-.697.116-1.695.278-2.183.163-.511.628-1.276 1.045-1.694.464-.465 1.231-.906 1.974-1.115.765-.232 1.601-.302 2.251-.232.58.093 1.463.371 1.973.65.511.302 1.161.928 1.463 1.44.511.881.534 1.09.441 4.178-.069 1.996-.302 4.248-.627 5.804-.279 1.416-.812 3.505-1.184 4.643-.371 1.161-1.091 2.925-1.555 3.946-.487 1.022-1.37 2.646-1.997 3.598-.626.975-1.811 2.461-2.646 3.344-.859.858-2.02 1.926-2.6 2.344-.557.418-1.811 1.161-2.786 1.648-.952.465-2.507 1.068-3.482 1.3-1.184.326-2.6.465-4.527.488-1.927.023-3.343-.093-4.643-.395-1.021-.232-2.577-.743-3.482-1.16a24.823 24.823 0 01-2.67-1.44 30.89 30.89 0 01-2.298-1.857c-.696-.627-1.88-1.973-2.647-2.995-.743-1.021-1.857-2.832-2.46-4.062-.628-1.207-1.393-2.972-1.718-3.947-.325-.952-.813-2.67-1.092-3.83-.278-1.138-.649-3.181-.812-4.527-.186-1.324-.325-3.181-.325-4.109 0-.929.139-2.02.302-2.438a5.113 5.113 0 01.998-1.392c.371-.349 1.138-.79 1.695-.999.673-.209 1.486-.278 2.205-.209zm124.664-63.353c1.276.047 3.32.302 4.527.557 1.23.232 2.925.696 3.784 1.022.859.325 2.367.998 3.366 1.485.998.511 2.53 1.44 3.412 2.066.906.627 2.345 1.811 3.228 2.647.882.812 2.275 2.368 3.087 3.436.812 1.091 1.997 2.971 2.623 4.178.604 1.231 1.393 2.995 1.741 3.947a47.14 47.14 0 011.114 4.062c.349 1.695.488 3.158.465 5.34 0 1.973-.14 3.668-.395 4.875-.232 1.022-.696 2.809-1.068 3.947-.371 1.16-1.16 3.041-1.741 4.178-.58 1.161-1.555 2.786-2.136 3.598-.58.836-2.019 2.485-3.18 3.692a28.154 28.154 0 01-4.55 3.784c-1.323.882-3.157 1.903-4.063 2.275-.881.371-2.507.928-3.598 1.253-1.068.302-3.018.696-4.295.859-1.462.186-3.296.233-4.991.14-1.462-.094-3.552-.349-4.643-.604a36.31 36.31 0 01-3.714-1.068c-.952-.348-2.624-1.091-3.714-1.648-1.068-.557-2.856-1.672-3.947-2.484-1.068-.813-2.646-2.206-3.483-3.088-.812-.882-1.996-2.275-2.576-3.111-.604-.812-1.509-2.275-2.02-3.249-.511-.952-1.3-2.833-1.741-4.18-.464-1.323-.975-3.528-1.184-4.874-.186-1.324-.348-3.158-.348-4.063-.023-.882.093-2.507.232-3.598.139-1.068.488-2.902.789-4.063.302-1.137.952-3.018 1.439-4.179.488-1.137 1.579-3.134 2.438-4.411.836-1.276 2.391-3.203 3.483-4.271 1.068-1.067 2.669-2.461 3.551-3.087.906-.627 2.624-1.648 3.831-2.252 1.23-.627 3.041-1.393 4.062-1.695a66.41 66.41 0 013.019-.859c.649-.139 1.996-.348 3.017-.464 1.022-.116 2.902-.163 4.179-.093zm-7.313 10.864c-.951.325-2.368.952-3.134 1.393a25.577 25.577 0 00-2.716 1.858c-.743.58-1.927 1.764-2.646 2.623-.697.859-1.742 2.507-2.299 3.644-.58 1.161-1.253 2.926-1.509 3.947-.325 1.277-.464 2.623-.464 4.295.024 1.578.163 3.087.464 4.294.233 1.022.697 2.438.999 3.134.301.721.952 1.904 1.439 2.67.487.766 1.532 2.066 2.298 2.879.789.812 2.043 1.927 2.809 2.484.766.557 2.136 1.323 3.018 1.741.906.395 2.414.929 3.366 1.184 1.254.325 2.531.441 4.411.441 1.973 0 3.18-.116 4.527-.464 1.022-.279 2.693-.906 3.714-1.416 1.022-.511 2.531-1.463 3.32-2.09.79-.627 2.043-1.857 2.739-2.716.72-.858 1.811-2.623 2.438-3.9.604-1.277 1.3-2.995 1.509-3.83.209-.813.441-2.391.51-3.483.094-1.392 0-2.553-.278-3.946-.209-1.068-.72-2.809-1.114-3.83-.395-1.022-1.23-2.578-1.811-3.483-.604-.882-1.927-2.391-2.925-3.366-1.021-.952-2.461-2.089-3.227-2.553a21.837 21.837 0 00-2.902-1.347c-.813-.302-2.252-.697-3.18-.882a24.36 24.36 0 00-3.483-.302c-.998.023-2.321.116-2.971.232-.627.116-1.927.464-2.902.789z" fill="#263c5b"/><path class="prefix__b" d="M236.07 383.318c1.462.046 3.25.255 3.947.464.696.186 1.717.604 2.275.929.534.324.974.719.974.882 0 .139-.302.58-1.369 1.671l-.65-.51c-.349-.279-1.324-.673-2.159-.86-.836-.208-2.438-.371-3.598-.371-1.277 0-2.6.14-3.367.371a4.827 4.827 0 00-2.228 1.347c-.581.557-1.068 1.347-1.231 1.881-.139.51-.255 1.207-.255 1.578 0 .348.139.975.302 1.393.186.395.696 1.091 1.161 1.509.487.395 1.207.882 1.601 1.068.418.162 2.531.789 4.713 1.393 2.182.603 4.248 1.207 4.62 1.369.371.14 1.091.743 1.602 1.324.534.58 1.16 1.509 1.392 2.089.349.766.465 1.556.441 3.018 0 1.393-.139 2.345-.464 3.25-.279.743-.951 1.811-1.602 2.508-.696.789-1.624 1.508-2.507 1.926-.766.372-1.973.79-2.67.929-.743.162-2.344.209-3.83.139-1.579-.069-3.134-.302-4.063-.581-.835-.255-1.973-.812-2.53-1.253-.58-.418-1.068-.882-1.091-.998-.023-.116.302-.534 1.555-1.626l.511.512c.279.301 1.045.719 1.672.974.65.256 2.089.581 3.25.72 1.578.209 2.46.209 3.598 0 .835-.139 1.973-.487 2.53-.766.58-.279 1.417-.928 1.857-1.462.488-.534 1.022-1.533 1.277-2.322a6.582 6.582 0 00.325-2.647c-.046-.696-.301-1.624-.557-2.066-.232-.441-.696-.975-1.021-1.207-.325-.255-2.554-.998-4.991-1.671-2.438-.697-4.945-1.509-5.572-1.858-.627-.325-1.555-.998-2.019-1.485-.465-.488-1.046-1.3-1.255-1.811-.231-.58-.394-1.555-.394-2.554 0-1.16.163-1.95.511-2.785.278-.65.835-1.509 1.253-1.927.418-.442 1.161-1.022 1.672-1.323.51-.302 1.555-.72 2.321-.906.999-.255 2.136-.325 4.063-.255zm67.068.116h2.089l.069 11.328c.07 10.123.117 11.399.465 12.119.232.441.789 1.207 1.277 1.694.487.488 1.462 1.092 2.159 1.371.951.371 1.833.487 3.482.487 1.393.023 2.669-.116 3.482-.348.697-.209 1.741-.72 2.299-1.161.58-.418 1.276-1.231 2.112-2.855v-22.635h2.275l-.023 11.677c-.047 11.538-.047 11.654-.557 12.699-.279.58-.882 1.462-1.301 1.973-.44.51-1.299 1.207-1.926 1.555-.627.349-1.764.79-2.531.975-.765.209-2.298.372-3.412.372-1.138 0-2.6-.117-3.25-.256-.674-.139-1.742-.534-2.391-.835-.627-.325-1.602-1.022-2.16-1.556-.556-.511-1.23-1.369-1.508-1.881-.511-.905-.511-1.114-.581-12.837l-.069-11.886zm48.31 0h17.643v2.322h-15.322v11.142h14.626v2.09h-14.626v11.143h15.322v2.321h-17.643v-29.018zM67.53 398.988h105.163v2.089H67.53v-2.089zm122.807-15.554h2.321v29.018h-2.321v-29.018zm9.75 0h2.321l14.045 24.538.117-24.538h2.089v29.018h-2.322l-14.045-24.538-.115 24.562h-2.09v-29.042zm49.448 0h16.714v2.322h-7.197v26.696h-2.321v-26.696h-7.196v-2.322zm22.75 0h2.089v29.018h-2.089v-29.018zm8.125 0h16.715v2.322h-7.197v26.696h-2.321v-26.696h-7.197v-2.322zm48.287 0h16.715v2.322h-7.197v26.696h-2.089v-26.696h-7.429v-2.322z" fill="#8e929f"/></svg>